<svg width="128" height="129" viewBox="0 0 128 129" fill="none" xmlns="http://www.w3.org/2000/svg">
<path d="M33.1002 128.238H14.9121C14.5753 128.238 14.2806 128.111 14.028 127.857C13.7754 127.604 13.6491 127.307 13.6491 126.969V75.6797H8.09163C7.83902 75.6797 7.62851 75.6162 7.4601 75.4893C7.29169 75.3623 7.12328 75.2142 6.95488 75.0449C6.87067 74.791 6.82857 74.5583 6.82857 74.3467C6.82857 74.1351 6.91277 73.9447 7.08118 73.7754L22.9957 48.6387C23.0799 48.4694 23.2062 48.3213 23.3746 48.1943C23.543 48.0674 23.7535 48.0039 24.0062 48.0039C24.2588 48.0039 24.4693 48.0462 24.6377 48.1309C24.8061 48.2155 24.9324 48.3848 25.0166 48.6387L40.9311 73.7754C41.0995 73.9447 41.1838 74.1351 41.1838 74.3467C41.1838 74.5583 41.1416 74.791 41.0574 75.0449C40.889 75.2142 40.7206 75.3623 40.5522 75.4893C40.3838 75.6162 40.1733 75.6797 39.9207 75.6797H34.3632V126.969C34.3632 127.307 34.2369 127.604 33.9843 127.857C33.7317 128.111 33.437 128.238 33.1002 128.238ZM16.1752 125.699H31.8371V74.4102C31.8371 74.0716 31.9634 73.7754 32.216 73.5215C32.4686 73.2676 32.7634 73.1406 33.1002 73.1406H37.6472L24.0062 51.6855L10.3651 73.1406H14.9121C15.249 73.1406 15.5437 73.2676 15.7963 73.5215C16.0489 73.7754 16.1752 74.0716 16.1752 74.4102V125.699ZM74.0233 128.238H55.8352C55.4984 128.238 55.2037 128.111 54.9511 127.857C54.6985 127.604 54.5722 127.307 54.5722 126.969V45.9727H49.0147C48.7621 45.9727 48.5516 45.9092 48.3832 45.7822C48.2148 45.6553 48.0464 45.5072 47.878 45.3379C47.7938 45.084 47.7517 44.8512 47.7517 44.6396C47.7517 44.4281 47.8359 44.2376 48.0043 44.0684L63.9188 18.9316C64.003 18.7624 64.1293 18.6143 64.2977 18.4873C64.4661 18.3604 64.6766 18.2969 64.9292 18.2969C65.1819 18.2969 65.3924 18.3392 65.5608 18.4238C65.7292 18.5085 65.8555 18.6777 65.9397 18.9316L81.8542 44.0684C82.0226 44.2376 82.1068 44.4281 82.1068 44.6396C82.1068 44.8512 82.0647 45.084 81.9805 45.3379C81.8121 45.5072 81.6437 45.6553 81.4753 45.7822C81.3069 45.9092 81.0964 45.9727 80.8438 45.9727H75.2863V126.969C75.2863 127.307 75.16 127.604 74.9074 127.857C74.6548 128.111 74.3601 128.238 74.0233 128.238ZM57.0983 125.699H72.7602V44.7031C72.7602 44.3646 72.8865 44.0684 73.1391 43.8145C73.3917 43.5605 73.6864 43.4336 74.0233 43.4336H78.5703L64.9292 21.9785L51.2882 43.4336H55.8352C56.172 43.4336 56.4668 43.5605 56.7194 43.8145C56.972 44.0684 57.0983 44.3646 57.0983 44.7031V125.699ZM114.946 128.238H96.7583C96.4215 128.238 96.1268 128.111 95.8742 127.857C95.6216 127.604 95.4952 127.307 95.4952 126.969V66.5391H89.9378C89.6852 66.5391 89.4747 66.4756 89.3063 66.3486C89.1379 66.2217 88.9694 66.0736 88.801 65.9043C88.7168 65.6504 88.6747 65.4176 88.6747 65.2061C88.6747 64.9945 88.7589 64.804 88.9273 64.6348L104.842 39.498C104.926 39.3288 105.052 39.1807 105.221 39.0537C105.389 38.9268 105.6 38.8633 105.852 38.8633C106.105 38.8633 106.315 38.9056 106.484 38.9902C106.652 39.0749 106.779 39.2441 106.863 39.498L122.777 64.6348C122.946 64.804 123.03 64.9945 123.03 65.2061C123.03 65.4176 122.988 65.6504 122.904 65.9043C122.819 66.0736 122.672 66.2217 122.462 66.3486C122.251 66.4756 122.019 66.5391 121.767 66.5391H116.209V126.969C116.209 127.307 116.083 127.604 115.83 127.857C115.578 128.111 115.283 128.238 114.946 128.238ZM98.0214 125.699H113.683V65.2695C113.683 64.931 113.81 64.6348 114.062 64.3809C114.315 64.127 114.61 64 114.946 64H119.493L105.852 42.5449L92.2113 64H96.7583C97.0951 64 97.3898 64.127 97.6424 64.3809C97.8951 64.6348 98.0214 64.931 98.0214 65.2695V125.699ZM99.7896 26.9297C99.6212 26.9297 99.4949 26.9085 99.4107 26.8662C99.3265 26.8239 99.2423 26.8027 99.1581 26.8027L98.0214 26.168C97.6845 26.0833 97.474 25.8717 97.3898 25.5332C97.3056 25.1947 97.3477 24.8561 97.5161 24.5176C97.6845 24.179 97.9161 23.9674 98.2108 23.8828C98.5055 23.7982 98.8213 23.8405 99.1581 24.0098L100.295 24.5176C100.632 24.6869 100.863 24.9408 100.99 25.2793C101.116 25.6178 101.095 25.9141 100.926 26.168C100.758 26.4219 100.569 26.6123 100.358 26.7393C100.148 26.8662 99.958 26.9297 99.7896 26.9297ZM93.8533 23.8828C93.6849 23.8828 93.5586 23.8828 93.4743 23.8828C93.3901 23.8828 93.3059 23.8405 93.2217 23.7559L90.8219 22.6133C90.4851 22.444 90.2746 22.1901 90.1904 21.8516C90.1062 21.513 90.1483 21.1745 90.3167 20.8359C90.4851 20.582 90.7167 20.3916 91.0114 20.2646C91.3061 20.1377 91.6219 20.1589 91.9587 20.3281L94.3585 21.5977C94.6953 21.6823 94.9269 21.8939 95.0532 22.2324C95.1795 22.571 95.1584 22.9095 94.99 23.248C94.8216 23.502 94.6322 23.6712 94.4216 23.7559C94.2111 23.8405 94.0217 23.8828 93.8533 23.8828ZM86.6538 20.3281C86.4854 20.3281 86.3591 20.307 86.2749 20.2646C86.1907 20.2223 86.1065 20.2012 86.0223 20.2012L83.6225 18.9316C83.2857 18.7624 83.0752 18.5296 82.991 18.2334C82.9068 17.9372 82.9489 17.6198 83.1173 17.2812C83.2857 16.9427 83.5172 16.71 83.812 16.583C84.1067 16.4561 84.4224 16.4772 84.7593 16.6465L87.1591 17.916C87.4959 18.0853 87.7274 18.3392 87.8537 18.6777C87.98 19.0163 87.959 19.3125 87.7906 19.5664C87.6222 19.8203 87.4327 20.0107 87.2222 20.1377C87.0117 20.2646 86.8222 20.3281 86.6538 20.3281ZM79.3281 16.6465C79.2439 16.6465 79.1597 16.6465 79.0755 16.6465C78.9913 16.6465 78.9071 16.6042 78.8229 16.5195L76.4231 15.377C76.0863 15.2077 75.8757 14.9538 75.7915 14.6152C75.7073 14.2767 75.7494 13.9381 75.9178 13.5996C76.0021 13.2611 76.2126 13.0495 76.5494 12.9648C76.8862 12.8802 77.223 12.9225 77.5598 13.0918L79.9596 14.2344C80.2964 14.4036 80.507 14.6576 80.5912 14.9961C80.6754 15.3346 80.6333 15.6732 80.4649 16.0117C80.3807 16.181 80.2333 16.3291 80.0228 16.4561C79.8123 16.583 79.5807 16.6465 79.3281 16.6465ZM72.1287 13.0918C72.0445 13.0918 71.9603 13.0706 71.8761 13.0283C71.7919 12.986 71.7076 12.9648 71.6234 12.9648L70.4867 12.3301C70.1499 12.1608 69.9183 11.9281 69.792 11.6318C69.6657 11.3356 69.6868 11.0182 69.8552 10.6797C70.0236 10.3411 70.2762 10.1084 70.613 9.98145C70.9498 9.85449 71.2866 9.87565 71.6234 10.0449L72.7602 10.6797C73.097 10.849 73.3075 11.0817 73.3917 11.3779C73.4759 11.6742 73.4338 11.9915 73.2654 12.3301C73.1812 12.584 73.0339 12.7744 72.8233 12.9014C72.6128 13.0283 72.3813 13.0918 72.1287 13.0918ZM125.177 21.3438C124.924 21.3438 124.693 21.2803 124.482 21.1533C124.272 21.0264 124.125 20.8359 124.04 20.582C123.872 20.2435 123.851 19.9049 123.977 19.5664C124.104 19.2279 124.335 19.0163 124.672 18.9316L125.809 18.4238C126.145 18.2546 126.461 18.2334 126.756 18.3604C127.051 18.4873 127.282 18.7201 127.451 19.0586C127.619 19.3971 127.64 19.7145 127.514 20.0107C127.387 20.307 127.156 20.5397 126.819 20.709L125.682 21.2168C125.598 21.3014 125.514 21.3438 125.43 21.3438C125.346 21.3438 125.261 21.3438 125.177 21.3438ZM117.978 24.5176C117.725 24.5176 117.494 24.4541 117.283 24.3271C117.072 24.2002 116.925 24.0098 116.841 23.7559C116.673 23.4173 116.651 23.0999 116.778 22.8037C116.904 22.5075 117.136 22.2747 117.472 22.1055L119.872 21.0898C120.209 20.9206 120.525 20.8994 120.82 21.0264C121.114 21.1533 121.346 21.3861 121.514 21.7246C121.683 21.9785 121.704 22.2747 121.577 22.6133C121.451 22.9518 121.22 23.2057 120.883 23.375L118.483 24.3906C118.399 24.4753 118.314 24.5176 118.23 24.5176C118.146 24.5176 118.062 24.5176 117.978 24.5176ZM112.041 27.1836C111.873 27.1836 111.683 27.1201 111.473 26.9932C111.262 26.8662 111.073 26.6758 110.905 26.4219C110.82 26.0833 110.82 25.7448 110.905 25.4062C110.989 25.0677 111.199 24.8561 111.536 24.7715L112.673 24.2637C113.01 24.0944 113.346 24.0732 113.683 24.2002C114.02 24.3271 114.273 24.5599 114.441 24.8984C114.525 25.237 114.504 25.5544 114.378 25.8506C114.252 26.1468 114.062 26.3796 113.81 26.5488L112.547 27.0566C112.462 27.1413 112.378 27.1836 112.294 27.1836C112.21 27.1836 112.126 27.1836 112.041 27.1836ZM17.1856 38.4824C17.1856 38.4824 17.1435 38.4824 17.0593 38.4824L15.7963 38.3555C15.4595 38.2708 15.1858 38.1016 14.9753 37.8477C14.7648 37.5938 14.6595 37.2975 14.6595 36.959C14.7437 36.5358 14.9121 36.2184 15.1648 36.0068C15.4174 35.7952 15.7121 35.7318 16.0489 35.8164L17.312 35.9434C17.6488 35.9434 17.9435 36.0703 18.1961 36.3242C18.4487 36.5781 18.5329 36.9167 18.4487 37.3398C18.4487 37.5938 18.3224 37.8477 18.0698 38.1016C17.8172 38.3555 17.5225 38.4824 17.1856 38.4824ZM10.6177 37.7207C10.6177 37.7207 10.5967 37.7207 10.5546 37.7207C10.5125 37.7207 10.4914 37.7207 10.4914 37.7207L7.83902 37.4668C7.5022 37.4668 7.20749 37.3187 6.95488 37.0225C6.70226 36.7262 6.61806 36.4089 6.70226 36.0703C6.70226 35.7318 6.82857 35.4567 7.08118 35.2451C7.33379 35.0335 7.67061 34.9277 8.09163 34.9277L10.7441 35.1816C11.0809 35.2663 11.3545 35.4355 11.565 35.6895C11.7755 35.9434 11.8808 36.2396 11.8808 36.5781C11.7966 36.9167 11.6492 37.1917 11.4387 37.4033C11.2282 37.6149 10.9546 37.7207 10.6177 37.7207ZM2.53417 36.959C2.53417 36.959 2.51312 36.959 2.47102 36.959C2.42892 36.959 2.40787 36.959 2.40787 36.959L1.14481 36.832C0.807993 36.832 0.534331 36.6839 0.323821 36.3877C0.113311 36.0915 0.00805664 35.7741 0.00805664 35.4355C0.00805664 35.097 0.155413 34.8219 0.450127 34.6104C0.744841 34.3988 1.06061 34.293 1.39742 34.293L2.66048 34.4199C2.99729 34.4199 3.27096 34.568 3.48147 34.8643C3.69198 35.1605 3.79723 35.4779 3.79723 35.8164C3.79723 36.1549 3.67092 36.43 3.41831 36.6416C3.1657 36.8532 2.87099 36.959 2.53417 36.959ZM58.3613 14.1074C58.1929 14.1074 58.0245 14.0651 57.8561 13.9805C57.6877 13.8958 57.5193 13.7689 57.3509 13.5996C57.1825 13.3457 57.1193 13.0495 57.1614 12.7109C57.2035 12.3724 57.3509 12.0762 57.6035 11.8223L58.6139 11.0605C58.9508 10.8913 59.2876 10.8278 59.6244 10.8701C59.9612 10.9124 60.2138 11.1029 60.3822 11.4414C60.6348 11.6953 60.7401 11.9915 60.698 12.3301C60.6559 12.6686 60.4664 12.9648 60.1296 13.2188L59.1192 13.8535C59.035 13.9381 58.9297 14.0016 58.8034 14.0439C58.6771 14.0863 58.5297 14.1074 58.3613 14.1074ZM34.4895 31.5C34.3211 31.5 34.1527 31.4577 33.9843 31.373C33.8159 31.2884 33.6475 31.1615 33.4791 30.9922C33.3107 30.6536 33.2475 30.3151 33.2896 29.9766C33.3317 29.638 33.4791 29.3841 33.7317 29.2148L35.7526 27.6914C36.0052 27.5221 36.321 27.4587 36.6999 27.501C37.0788 27.5433 37.3525 27.6914 37.5209 27.9453C37.7735 28.2839 37.8577 28.6224 37.7735 28.9609C37.6893 29.2995 37.5209 29.5534 37.2683 29.7227L35.2474 31.2461C35.1632 31.3307 35.0579 31.3942 34.9316 31.4365C34.8053 31.4788 34.6579 31.5 34.4895 31.5ZM40.5522 27.1836C40.2996 27.1836 40.0891 27.1413 39.9207 27.0566C39.7523 26.972 39.5839 26.8451 39.4155 26.6758C39.2471 26.3372 39.1839 25.9987 39.226 25.6602C39.2681 25.3216 39.4576 25.0677 39.7944 24.8984L41.689 23.375C42.0258 23.2057 42.3626 23.1423 42.6994 23.1846C43.0362 23.2269 43.2888 23.375 43.4573 23.6289C43.7099 23.9674 43.8151 24.306 43.773 24.6445C43.7309 24.9831 43.5415 25.237 43.2046 25.4062L41.1838 26.9297C41.0995 27.0143 40.9943 27.0778 40.868 27.1201C40.7417 27.1624 40.6364 27.1836 40.5522 27.1836ZM46.4886 22.8672C46.236 22.8672 46.0255 22.8249 45.8571 22.7402C45.6887 22.6556 45.5624 22.4863 45.4781 22.2324C45.2255 21.9785 45.1203 21.6823 45.1624 21.3438C45.2045 21.0052 45.3939 20.709 45.7308 20.4551L47.7517 19.0586C48.0043 18.8893 48.299 18.8258 48.6358 18.8682C48.9726 18.9105 49.2673 19.0586 49.5199 19.3125C49.6883 19.651 49.7515 19.9896 49.7094 20.3281C49.6673 20.6667 49.4778 20.9206 49.141 21.0898L47.2464 22.6133C47.078 22.6979 46.9307 22.7614 46.8044 22.8037C46.6781 22.846 46.5728 22.8672 46.4886 22.8672ZM52.425 18.5508C52.2566 18.5508 52.0671 18.5085 51.8566 18.4238C51.6461 18.3392 51.4987 18.1699 51.4145 17.916C51.1619 17.6621 51.0777 17.3659 51.1619 17.0273C51.2461 16.6888 51.4145 16.3926 51.6671 16.1387L53.688 14.7422C53.9406 14.5729 54.2353 14.5094 54.5722 14.5518C54.909 14.5941 55.2037 14.7422 55.4563 14.9961C55.6247 15.3346 55.6879 15.6732 55.6458 16.0117C55.6037 16.3503 55.4563 16.6042 55.2037 16.7734L53.1828 18.2969C53.0144 18.3815 52.8881 18.445 52.8039 18.4873C52.7197 18.5296 52.5934 18.5508 52.425 18.5508ZM29.5636 35.0547C29.311 35.0547 29.1005 35.0124 28.9321 34.9277C28.7637 34.8431 28.6374 34.7161 28.5532 34.5469C28.3006 34.293 28.2164 33.9967 28.3006 33.6582C28.3848 33.3197 28.5532 33.0234 28.8058 32.7695L29.8162 32.0078C30.0688 31.8385 30.3846 31.7751 30.7635 31.8174C31.1424 31.8597 31.4161 32.0501 31.5845 32.3887C31.7529 32.6426 31.8161 32.9388 31.774 33.2773C31.7319 33.6159 31.5845 33.9121 31.3319 34.166L30.3214 34.8008C30.153 34.8854 30.0057 34.9489 29.8794 34.9912C29.7531 35.0335 29.6478 35.0547 29.5636 35.0547ZM24.0062 45.9727C21.8169 45.9727 19.9223 45.1686 18.3224 43.5605C16.7225 41.9525 15.9226 40.0482 15.9226 37.8477C15.9226 37.6784 15.9226 37.5303 15.9226 37.4033C15.9226 37.2764 15.9226 37.1706 15.9226 37.0859C16.1752 34.9701 17.0593 33.2139 18.575 31.8174C20.0907 30.4209 21.9011 29.7227 24.0062 29.7227C25.2692 29.7227 26.4902 30.0189 27.669 30.6113C28.8479 31.2038 29.8162 32.0501 30.5741 33.1504C31.0793 33.8275 31.4582 34.568 31.7108 35.3721C31.9634 36.1761 32.0897 37.0013 32.0897 37.8477C32.0897 40.0482 31.2898 41.9525 29.6899 43.5605C28.09 45.1686 26.1955 45.9727 24.0062 45.9727ZM24.0062 32.2617C22.5747 32.2617 21.3327 32.7484 20.2801 33.7217C19.2276 34.695 18.6171 35.901 18.4487 37.3398C18.4487 37.4245 18.4487 37.5091 18.4487 37.5938C18.4487 37.6784 18.4487 37.763 18.4487 37.8477C18.4487 39.3711 18.996 40.6829 20.0907 41.7832C21.1853 42.8835 22.4905 43.4336 24.0062 43.4336C25.5218 43.4336 26.827 42.8835 27.9216 41.7832C29.0163 40.6829 29.5636 39.3711 29.5636 37.8477C29.5636 37.2552 29.4794 36.6839 29.311 36.1338C29.1426 35.5837 28.89 35.0547 28.5532 34.5469C27.9637 33.8698 27.2901 33.3197 26.5323 32.8965C25.7744 32.4733 24.9324 32.2617 24.0062 32.2617ZM105.852 36.832C103.663 36.832 101.768 36.028 100.169 34.4199C98.5687 32.8119 97.7687 30.9076 97.7687 28.707C97.7687 28.1146 97.8319 27.501 97.9582 26.8662C98.0845 26.2314 98.3161 25.6178 98.6529 25.0254C99.3265 23.6712 100.316 22.5921 101.621 21.7881C102.926 20.984 104.337 20.582 105.852 20.582C107.452 20.582 108.926 21.0264 110.273 21.915C111.62 22.8037 112.589 23.9674 113.178 25.4062C113.431 25.9141 113.62 26.443 113.746 26.9932C113.873 27.5433 113.936 28.1146 113.936 28.707C113.936 30.9076 113.136 32.8119 111.536 34.4199C109.936 36.028 108.042 36.832 105.852 36.832ZM105.852 23.1211C104.758 23.1211 103.768 23.3962 102.884 23.9463C102 24.4964 101.347 25.237 100.926 26.168C100.674 26.5911 100.505 27.0143 100.421 27.4375C100.337 27.8607 100.295 28.2839 100.295 28.707C100.295 30.2305 100.842 31.5423 101.937 32.6426C103.031 33.7428 104.337 34.293 105.852 34.293C107.368 34.293 108.673 33.7428 109.768 32.6426C110.862 31.5423 111.41 30.2305 111.41 28.707C111.41 28.2839 111.368 27.8818 111.283 27.501C111.199 27.1201 111.073 26.7604 110.905 26.4219C110.484 25.4062 109.81 24.6022 108.884 24.0098C107.957 23.4173 106.947 23.1211 105.852 23.1211ZM64.9292 16.2656C63.6662 16.2656 62.4452 15.9694 61.2664 15.377C60.0875 14.7845 59.1192 13.9381 58.3613 12.8379C57.8561 12.1608 57.4772 11.4202 57.2246 10.6162C56.972 9.81217 56.8457 8.98698 56.8457 8.14062C56.8457 5.9401 57.6456 4.0358 59.2455 2.42773C60.8454 0.819664 62.7399 0.015625 64.9292 0.015625C67.1185 0.015625 69.0131 0.819664 70.613 2.42773C72.2129 4.0358 73.0128 5.9401 73.0128 8.14062C73.0128 8.73307 72.9497 9.34668 72.8233 9.98145C72.697 10.6162 72.4655 11.2298 72.1287 11.8223C71.455 13.1764 70.4656 14.2555 69.1605 15.0596C67.8553 15.8636 66.4449 16.2656 64.9292 16.2656ZM64.9292 2.55469C63.4136 2.55469 62.1084 3.10482 61.0138 4.20508C59.9191 5.30534 59.3718 6.61719 59.3718 8.14062C59.3718 8.73307 59.456 9.30436 59.6244 9.85449C59.7928 10.4046 60.0454 10.9336 60.3822 11.4414C60.9717 12.1185 61.6453 12.6686 62.4031 13.0918C63.161 13.515 64.003 13.7266 64.9292 13.7266C66.0239 13.7266 67.0133 13.4515 67.8974 12.9014C68.7816 12.3512 69.4341 11.6107 69.8552 10.6797C70.1078 10.2565 70.2762 9.83334 70.3604 9.41016C70.4446 8.98698 70.4867 8.5638 70.4867 8.14062C70.4867 6.61719 69.9394 5.30534 68.8447 4.20508C67.7501 3.10482 66.4449 2.55469 64.9292 2.55469ZM63.7925 127.096C63.6241 127.096 63.4557 127.075 63.2873 127.032C63.1189 126.99 62.9925 126.884 62.9083 126.715C62.6557 126.461 62.5294 126.165 62.5294 125.826C62.5294 125.488 62.6557 125.191 62.9083 124.938L73.1391 114.654C73.3917 114.4 73.6864 114.273 74.0233 114.273C74.3601 114.273 74.6548 114.4 74.9074 114.654C75.16 114.908 75.2863 115.204 75.2863 115.543C75.2863 115.882 75.16 116.178 74.9074 116.432L64.6766 126.715C64.5924 126.799 64.4661 126.884 64.2977 126.969C64.1293 127.053 63.9609 127.096 63.7925 127.096ZM55.8352 123.668C55.6668 123.668 55.4984 123.647 55.33 123.604C55.1616 123.562 55.0353 123.456 54.9511 123.287C54.6985 123.033 54.5722 122.737 54.5722 122.398C54.5722 122.06 54.6985 121.764 54.9511 121.51L73.1391 103.229C73.3917 102.975 73.6864 102.848 74.0233 102.848C74.3601 102.848 74.6548 102.975 74.9074 103.229C75.16 103.482 75.2863 103.779 75.2863 104.117C75.2863 104.456 75.16 104.752 74.9074 105.006L56.7194 123.287C56.6352 123.372 56.5089 123.456 56.3404 123.541C56.172 123.626 56.0036 123.668 55.8352 123.668ZM55.8352 112.242C55.6668 112.242 55.4984 112.221 55.33 112.179C55.1616 112.136 55.0353 112.031 54.9511 111.861C54.6985 111.607 54.5722 111.311 54.5722 110.973C54.5722 110.634 54.6985 110.338 54.9511 110.084L73.1391 91.8027C73.3917 91.5488 73.6864 91.4219 74.0233 91.4219C74.3601 91.4219 74.6548 91.5488 74.9074 91.8027C75.16 92.0566 75.2863 92.3529 75.2863 92.6914C75.2863 93.0299 75.16 93.3262 74.9074 93.5801L56.7194 111.861C56.6352 111.946 56.5089 112.031 56.3404 112.115C56.172 112.2 56.0036 112.242 55.8352 112.242ZM55.8352 100.816C55.6668 100.816 55.4984 100.795 55.33 100.753C55.1616 100.711 55.0353 100.605 54.9511 100.436C54.6985 100.182 54.5722 99.8854 54.5722 99.5469C54.5722 99.2083 54.6985 98.9121 54.9511 98.6582L73.1391 80.377C73.3917 80.123 73.6864 79.9961 74.0233 79.9961C74.3601 79.9961 74.6548 80.123 74.9074 80.377C75.16 80.6309 75.2863 80.9271 75.2863 81.2656C75.2863 81.6042 75.16 81.9004 74.9074 82.1543L56.7194 100.436C56.6352 100.52 56.5089 100.605 56.3404 100.689C56.172 100.774 56.0036 100.816 55.8352 100.816ZM56.972 88.248C56.8036 88.248 56.6352 88.2269 56.4668 88.1846C56.2983 88.1423 56.172 88.0365 56.0878 87.8672C55.8352 87.6133 55.7089 87.3171 55.7089 86.9785C55.7089 86.64 55.8352 86.3438 56.0878 86.0898L73.1391 68.9512C73.3917 68.6973 73.6864 68.5703 74.0233 68.5703C74.3601 68.5703 74.6548 68.6973 74.9074 68.9512C75.16 69.2051 75.2863 69.5013 75.2863 69.8398C75.2863 70.1784 75.16 70.4746 74.9074 70.7285L57.8561 87.8672C57.7719 87.9518 57.6456 88.0365 57.4772 88.1211C57.3088 88.2057 57.1404 88.248 56.972 88.248ZM55.8352 77.9648C55.6668 77.9648 55.4984 77.9437 55.33 77.9014C55.1616 77.8591 55.0353 77.7533 54.9511 77.584C54.6985 77.3301 54.5722 77.0339 54.5722 76.6953C54.5722 76.3568 54.6985 76.0605 54.9511 75.8066L73.1391 57.5254C73.3917 57.2715 73.6864 57.1445 74.0233 57.1445C74.3601 57.1445 74.6548 57.2715 74.9074 57.5254C75.16 57.7793 75.2863 58.0755 75.2863 58.4141C75.2863 58.7526 75.16 59.0488 74.9074 59.3027L56.7194 77.584C56.6352 77.6686 56.5089 77.7533 56.3404 77.8379C56.172 77.9225 56.0036 77.9648 55.8352 77.9648ZM55.8352 66.5391C55.6668 66.5391 55.4984 66.5179 55.33 66.4756C55.1616 66.4333 55.0353 66.3275 54.9511 66.1582C54.6985 65.9043 54.5722 65.6081 54.5722 65.2695C54.5722 64.931 54.6985 64.6348 54.9511 64.3809L73.1391 46.0996C73.3917 45.8457 73.6864 45.7188 74.0233 45.7188C74.3601 45.7188 74.6548 45.8457 74.9074 46.0996C75.16 46.3535 75.2863 46.6497 75.2863 46.9883C75.2863 47.3268 75.16 47.623 74.9074 47.877L56.7194 66.1582C56.6352 66.2428 56.5089 66.3275 56.3404 66.4121C56.172 66.4967 56.0036 66.5391 55.8352 66.5391ZM55.8352 55.1133C55.6668 55.1133 55.4984 55.0921 55.33 55.0498C55.1616 55.0075 55.0353 54.9017 54.9511 54.7324C54.6985 54.4785 54.5722 54.1823 54.5722 53.8438C54.5722 53.5052 54.6985 53.209 54.9511 52.9551L73.1391 34.6738C73.3917 34.4199 73.6864 34.293 74.0233 34.293C74.3601 34.293 74.6548 34.4199 74.9074 34.6738C75.16 34.9277 75.2863 35.224 75.2863 35.5625C75.2863 35.901 75.16 36.1973 74.9074 36.4512L56.7194 54.7324C56.6352 54.8171 56.5089 54.9017 56.3404 54.9863C56.172 55.071 56.0036 55.1133 55.8352 55.1133ZM53.5617 45.9727C53.3933 45.9727 53.2249 45.9515 53.0565 45.9092C52.8881 45.8669 52.7618 45.7611 52.6776 45.5918C52.425 45.3379 52.2987 45.0417 52.2987 44.7031C52.2987 44.3646 52.425 44.0684 52.6776 43.8145L68.5921 27.8184C68.8447 27.5645 69.1394 27.4375 69.4762 27.4375C69.8131 27.4375 70.1078 27.5645 70.3604 27.8184C70.613 28.0723 70.7393 28.3685 70.7393 28.707C70.7393 29.0456 70.613 29.3418 70.3604 29.5957L54.4459 45.5918C54.3617 45.6764 54.2353 45.7611 54.0669 45.8457C53.8985 45.9303 53.7301 45.9727 53.5617 45.9727ZM126.44 128.238H10.3651C10.0283 128.238 9.7336 128.111 9.48099 127.857C9.22838 127.604 9.10207 127.307 9.10207 126.969C9.10207 126.63 9.22838 126.334 9.48099 126.08C9.7336 125.826 10.0283 125.699 10.3651 125.699H126.44C126.777 125.699 127.072 125.826 127.324 126.08C127.577 126.334 127.703 126.63 127.703 126.969C127.703 127.307 127.577 127.604 127.324 127.857C127.072 128.111 126.777 128.238 126.44 128.238ZM3.54462 128.238H1.27111C0.934299 128.238 0.639586 128.111 0.386974 127.857C0.134362 127.604 0.00805664 127.307 0.00805664 126.969C0.00805664 126.63 0.134362 126.334 0.386974 126.08C0.639586 125.826 0.934299 125.699 1.27111 125.699H3.54462C3.88143 125.699 4.17615 125.826 4.42876 126.08C4.68137 126.334 4.80768 126.63 4.80768 126.969C4.80768 127.307 4.68137 127.604 4.42876 127.857C4.17615 128.111 3.88143 128.238 3.54462 128.238Z" fill="#DC052D"/>
</svg>
