<svg width="128" height="129" viewBox="0 0 128 129" fill="none" xmlns="http://www.w3.org/2000/svg">
<path d="M118.736 89.3906H115.704C114.525 89.3906 113.515 88.9674 112.673 88.1211C111.831 87.2747 111.41 86.2591 111.41 85.0742V84.9473C111.41 84.6087 111.536 84.3125 111.789 84.0586C112.041 83.8047 112.336 83.6777 112.673 83.6777C113.094 83.6777 113.41 83.8047 113.62 84.0586C113.831 84.3125 113.936 84.6087 113.936 84.9473C113.936 85.4551 114.125 85.8783 114.504 86.2168C114.883 86.5553 115.283 86.7246 115.704 86.7246H118.736C119.241 86.7246 119.662 86.5553 119.999 86.2168C120.336 85.8783 120.504 85.4551 120.504 84.9473C120.504 84.6087 120.63 84.3125 120.883 84.0586C121.135 83.8047 121.43 83.6777 121.767 83.6777C122.188 83.6777 122.504 83.8047 122.714 84.0586C122.925 84.3125 123.03 84.6087 123.03 84.9473V85.0742C123.03 86.2591 122.63 87.2747 121.83 88.1211C121.03 88.9674 119.999 89.3906 118.736 89.3906ZM118.736 52.8281H115.704C114.525 52.8281 113.515 52.4049 112.673 51.5586C111.831 50.7122 111.41 49.6966 111.41 48.5117V48.3848C111.41 48.0462 111.536 47.75 111.789 47.4961C112.041 47.2422 112.336 47.1152 112.673 47.1152C113.094 47.1152 113.41 47.2422 113.62 47.4961C113.831 47.75 113.936 48.0462 113.936 48.3848C113.936 48.8926 114.125 49.3158 114.504 49.6543C114.883 49.9928 115.283 50.1621 115.704 50.1621H118.736C119.241 50.1621 119.662 49.9928 119.999 49.6543C120.336 49.3158 120.504 48.8926 120.504 48.3848C120.504 48.0462 120.63 47.75 120.883 47.4961C121.135 47.2422 121.43 47.1152 121.767 47.1152C122.188 47.1152 122.504 47.2422 122.714 47.4961C122.925 47.75 123.03 48.0462 123.03 48.3848V48.5117C123.03 49.6966 122.63 50.7122 121.83 51.5586C121.03 52.4049 119.999 52.8281 118.736 52.8281ZM121.767 42.1641C121.43 42.1641 121.135 42.0371 120.883 41.7832C120.63 41.5293 120.504 41.2331 120.504 40.8945C120.504 40.3867 120.336 39.9635 119.999 39.625C119.662 39.2865 119.241 39.1172 118.736 39.1172H115.704C115.283 39.1172 114.883 39.2865 114.504 39.625C114.125 39.9635 113.936 40.3867 113.936 40.8945C113.936 41.2331 113.831 41.5293 113.62 41.7832C113.41 42.0371 113.094 42.1641 112.673 42.1641C112.336 42.1641 112.041 42.0371 111.789 41.7832C111.536 41.5293 111.41 41.2331 111.41 40.8945V40.7676C111.41 39.5827 111.831 38.5671 112.673 37.7207C113.515 36.8744 114.525 36.4512 115.704 36.4512H118.736C119.914 36.4512 120.925 36.8744 121.767 37.7207C122.609 38.5671 123.03 39.5827 123.03 40.7676V40.8945C123.03 41.2331 122.925 41.5293 122.714 41.7832C122.504 42.0371 122.188 42.1641 121.767 42.1641ZM121.767 78.7266C121.43 78.7266 121.135 78.5996 120.883 78.3457C120.63 78.0918 120.504 77.7956 120.504 77.457C120.504 76.9492 120.336 76.526 119.999 76.1875C119.662 75.849 119.241 75.6797 118.736 75.6797H115.704C115.283 75.6797 114.883 75.849 114.504 76.1875C114.125 76.526 113.936 76.9492 113.936 77.457C113.936 77.7956 113.831 78.0918 113.62 78.3457C113.41 78.5996 113.094 78.7266 112.673 78.7266C112.336 78.7266 112.041 78.5996 111.789 78.3457C111.536 78.0918 111.41 77.7956 111.41 77.457V77.3301C111.41 76.1452 111.831 75.1296 112.673 74.2832C113.515 73.4368 114.525 73.0137 115.704 73.0137H118.736C119.914 73.0137 120.925 73.4368 121.767 74.2832C122.609 75.1296 123.03 76.1452 123.03 77.3301V77.457C123.03 77.7956 122.925 78.0918 122.714 78.3457C122.504 78.5996 122.188 78.7266 121.767 78.7266ZM15.1649 116.812H14.9123C14.7439 116.812 14.5754 116.77 14.407 116.686C14.2386 116.601 14.0702 116.474 13.9018 116.305C13.8176 116.135 13.7545 115.924 13.7124 115.67C13.6703 115.416 13.6913 115.204 13.7755 115.035L14.0281 114.527C14.1123 114.273 14.3018 114.083 14.5965 113.956C14.8912 113.829 15.1649 113.766 15.4175 113.766C15.6701 113.85 15.9017 114.02 16.1122 114.273C16.3227 114.527 16.4279 114.781 16.4279 115.035V115.543C16.4279 115.882 16.3016 116.178 16.049 116.432C15.7964 116.686 15.5017 116.812 15.1649 116.812ZM55.8353 105.387H28.5533C28.3849 105.387 28.2165 105.344 28.0481 105.26C27.8797 105.175 27.7113 105.048 27.5428 104.879C27.4586 104.71 27.3955 104.519 27.3534 104.308C27.3113 104.096 27.3323 103.863 27.4165 103.609L31.9635 92.1836C32.0478 91.9297 32.1951 91.7393 32.4056 91.6123C32.6161 91.4854 32.8477 91.4219 33.1003 91.4219H51.2883C51.5409 91.4219 51.7936 91.4854 52.0462 91.6123C52.2988 91.7393 52.4672 91.9297 52.5514 92.1836L57.0984 103.609C57.0984 103.779 57.0984 103.99 57.0984 104.244C57.0984 104.498 57.0563 104.71 56.9721 104.879C56.8037 105.048 56.6353 105.175 56.4669 105.26C56.2985 105.344 56.088 105.387 55.8353 105.387ZM30.4479 102.848H54.0671L50.5305 93.9609H33.9844L30.4479 102.848ZM56.8458 54.4785C56.7616 54.4785 56.6774 54.4785 56.5932 54.4785C56.509 54.4785 56.4248 54.4362 56.3406 54.3516C55.7511 54.0977 55.1196 53.8861 54.446 53.7168C53.7724 53.5475 53.0566 53.4629 52.2988 53.4629C51.6251 53.4629 50.9515 53.5475 50.2779 53.7168C49.6043 53.8861 48.9727 54.0977 48.3833 54.3516C48.1307 54.5208 47.8991 54.5843 47.6886 54.542C47.4781 54.4997 47.2887 54.4362 47.1202 54.3516C46.9518 54.2669 46.8045 54.1188 46.6782 53.9072C46.5519 53.6956 46.4887 53.4629 46.4887 53.209V40.0059C46.4887 38.821 46.9308 37.5514 47.8149 36.1973C48.6991 34.8431 50.1937 34.166 52.2988 34.166C54.4881 34.166 56.0037 34.8431 56.8458 36.1973C57.6878 37.5514 58.1088 38.821 58.1088 40.0059V53.209C58.1088 53.4629 58.0667 53.6745 57.9825 53.8438C57.8983 54.013 57.7299 54.1823 57.4773 54.3516C57.3931 54.4362 57.3089 54.4785 57.2247 54.4785C57.1405 54.4785 57.0142 54.4785 56.8458 54.4785ZM52.2988 50.9238C52.8882 50.9238 53.4566 50.9661 54.0039 51.0508C54.5512 51.1354 55.0775 51.2624 55.5827 51.4316V40.0059C55.5827 39.752 55.4354 39.1383 55.1407 38.165C54.8459 37.1917 53.8987 36.7051 52.2988 36.7051C50.7831 36.7051 49.8569 37.1917 49.5201 38.165C49.1832 39.1383 49.0148 39.752 49.0148 40.0059V51.4316C49.6043 51.2624 50.1726 51.1354 50.72 51.0508C51.2673 50.9661 51.7936 50.9238 52.2988 50.9238ZM52.2988 74.0293C51.1199 74.0293 49.9411 73.8389 48.7622 73.458C47.5834 73.0771 46.4887 72.5059 45.4783 71.7441C43.9626 70.6439 42.8048 69.2897 42.0049 67.6816C41.2049 66.0736 40.805 64.3385 40.805 62.4766C40.805 60.276 41.3944 58.2448 42.5732 56.3828C43.7521 54.5208 45.3099 53.082 47.2465 52.0664C48.0044 51.7279 48.8254 51.4528 49.7095 51.2412C50.5937 51.0296 51.4567 50.9238 52.2988 50.9238C53.225 50.9238 54.1092 51.0296 54.9512 51.2412C55.7932 51.4528 56.6353 51.7279 57.4773 52.0664C59.3298 53.082 60.8244 54.4785 61.9612 56.2559C63.0979 58.0332 63.7084 59.9798 63.7926 62.0957V62.4766C63.7926 64.2539 63.4347 65.9255 62.719 67.4912C62.0033 69.057 60.9297 70.39 59.4982 71.4902C58.4878 72.3366 57.3721 72.9714 56.1511 73.3945C54.9302 73.8177 53.646 74.0293 52.2988 74.0293ZM52.2988 53.4629C51.6251 53.4629 50.9515 53.5475 50.2779 53.7168C49.6043 53.8861 48.9727 54.0977 48.3833 54.3516C46.8676 55.1133 45.6467 56.2347 44.7204 57.7158C43.7942 59.1969 43.3311 60.7839 43.3311 62.4766C43.3311 63.9154 43.6468 65.2484 44.2784 66.4756C44.9099 67.7028 45.8151 68.7819 46.9939 69.7129C47.7518 70.3053 48.5938 70.7497 49.5201 71.0459C50.4463 71.3421 51.3725 71.4902 52.2988 71.4902C53.3934 71.4902 54.4039 71.321 55.3301 70.9824C56.2564 70.6439 57.1405 70.1361 57.9825 69.459C58.993 68.6126 59.7929 67.5758 60.3824 66.3486C60.9718 65.1214 61.2665 63.8307 61.2665 62.4766V62.0957C61.2665 60.4876 60.8244 58.9854 59.9403 57.5889C59.0561 56.1924 57.8562 55.1133 56.3406 54.3516C55.7511 54.0977 55.1196 53.8861 54.446 53.7168C53.7724 53.5475 53.0566 53.4629 52.2988 53.4629ZM69.8553 77.584C69.0133 77.584 68.2975 77.4359 67.7081 77.1396C67.1187 76.8434 66.7818 76.6953 66.6976 76.6953L58.1088 71.6172C57.9404 71.4479 57.8141 71.2786 57.7299 71.1094C57.6457 70.9401 57.6036 70.7708 57.6036 70.6016C57.5194 70.3477 57.5194 70.1361 57.6036 69.9668C57.6878 69.7975 57.8141 69.6283 57.9825 69.459C59.0772 68.6126 59.9192 67.5758 60.5087 66.3486C61.0981 65.1214 61.3928 63.8307 61.3928 62.4766V62.0957C61.3928 61.9264 61.456 61.736 61.5823 61.5244C61.7086 61.3128 61.8559 61.1647 62.0243 61.0801C62.1927 60.9108 62.4032 60.8262 62.6559 60.8262C62.9085 60.8262 63.119 60.9108 63.2874 61.0801L72.634 66.666C72.634 66.666 72.6551 66.6872 72.6972 66.7295C72.7393 66.7718 72.7603 66.793 72.7603 66.793C73.855 67.4701 74.697 68.5068 75.2864 69.9033C75.8759 71.2998 75.6654 72.8867 74.6549 74.6641C74.2339 75.4258 73.7287 76.0394 73.1392 76.5049C72.5498 76.9704 71.9183 77.2878 71.2447 77.457C70.992 77.457 70.7605 77.4782 70.55 77.5205C70.3395 77.5628 70.1079 77.584 69.8553 77.584ZM60.8876 70.2207L67.9607 74.5371C68.2133 74.6217 68.8238 74.791 69.7921 75.0449C70.7605 75.2988 71.6236 74.7487 72.3814 73.3945C73.1392 72.2096 73.2655 71.2363 72.7603 70.4746C72.2551 69.7129 71.7499 69.1628 71.2447 68.8242L63.6663 64.2539C63.4979 65.3542 63.1821 66.4121 62.719 67.4277C62.2559 68.4434 61.6454 69.3743 60.8876 70.2207ZM35.1212 77.8379C34.2792 77.8379 33.4371 77.6263 32.5951 77.2031C31.753 76.7799 31.0373 76.0605 30.4479 75.0449C29.3532 73.1829 29.1427 71.5326 29.8163 70.0938C30.49 68.6549 31.332 67.597 32.3425 66.9199L41.4365 61.4609C41.6049 61.2917 41.8154 61.207 42.068 61.207C42.3206 61.207 42.5311 61.2494 42.6995 61.334C42.9522 61.5033 43.1206 61.6725 43.2048 61.8418C43.289 62.0111 43.3311 62.2227 43.3311 62.4766C43.3311 63.9154 43.6468 65.2695 44.2784 66.5391C44.9099 67.8086 45.773 68.8665 46.8676 69.7129C47.036 69.7975 47.1623 69.9456 47.2465 70.1572C47.3308 70.3688 47.3729 70.5592 47.3729 70.7285C47.3729 70.8978 47.3308 71.0882 47.2465 71.2998C47.1623 71.5114 47.036 71.6595 46.8676 71.7441L38.4051 76.9492C37.9841 77.2031 37.5 77.4147 36.9526 77.584C36.4053 77.7533 35.7948 77.8379 35.1212 77.8379ZM41.0576 64.6348L33.6055 69.2051C33.4371 69.2897 33.0161 69.7341 32.3425 70.5381C31.6688 71.3421 31.753 72.3789 32.5951 73.6484C33.3529 75.0026 34.2371 75.5527 35.2475 75.2988C36.2579 75.0449 36.8895 74.8757 37.1421 74.791L44.0889 70.4746C43.3311 69.6283 42.6995 68.7184 42.1943 67.7451C41.6891 66.7718 41.3102 65.735 41.0576 64.6348ZM110.399 70.9824H83.1174C82.7806 70.9824 82.4859 70.8555 82.2333 70.6016C81.9806 70.3477 81.8543 70.0514 81.8543 69.7129V58.2871C81.8543 57.9486 81.9806 57.6523 82.2333 57.3984C82.4859 57.1445 82.7806 57.0176 83.1174 57.0176H110.399C110.82 57.0176 111.136 57.1445 111.347 57.3984C111.557 57.6523 111.663 57.9486 111.663 58.2871V69.7129C111.663 70.0514 111.557 70.3477 111.347 70.6016C111.136 70.8555 110.82 70.9824 110.399 70.9824ZM84.3805 68.4434H109.136V59.5566H84.3805V68.4434ZM89.9379 70.9824H83.1174C82.7806 70.9824 82.4859 70.8555 82.2333 70.6016C81.9806 70.3477 81.8543 70.0514 81.8543 69.7129V58.2871C81.8543 57.9486 81.9806 57.6523 82.2333 57.3984C82.4859 57.1445 82.7806 57.0176 83.1174 57.0176H89.9379C90.3589 57.0176 90.6747 57.1445 90.8852 57.3984C91.0957 57.6523 91.201 57.9486 91.201 58.2871V69.7129C91.201 70.0514 91.0957 70.3477 90.8852 70.6016C90.6747 70.8555 90.3589 70.9824 89.9379 70.9824ZM84.3805 68.4434H88.6749V59.5566H84.3805V68.4434ZM96.7584 70.9824H89.9379C89.6011 70.9824 89.3064 70.8555 89.0538 70.6016C88.8012 70.3477 88.6749 70.0514 88.6749 69.7129V58.2871C88.6749 57.9486 88.8012 57.6523 89.0538 57.3984C89.3064 57.1445 89.6011 57.0176 89.9379 57.0176H96.7584C97.1794 57.0176 97.4952 57.1445 97.7057 57.3984C97.9162 57.6523 98.0215 57.9486 98.0215 58.2871V69.7129C98.0215 70.0514 97.9162 70.3477 97.7057 70.6016C97.4952 70.8555 97.1794 70.9824 96.7584 70.9824ZM91.201 68.4434H95.4954V59.5566H91.201V68.4434ZM103.579 70.9824H96.7584C96.4216 70.9824 96.1269 70.8555 95.8743 70.6016C95.6217 70.3477 95.4954 70.0514 95.4954 69.7129V58.2871C95.4954 57.9486 95.6217 57.6523 95.8743 57.3984C96.1269 57.1445 96.4216 57.0176 96.7584 57.0176H103.579C104 57.0176 104.316 57.1445 104.526 57.3984C104.737 57.6523 104.842 57.9486 104.842 58.2871V69.7129C104.842 70.0514 104.737 70.3477 104.526 70.6016C104.316 70.8555 104 70.9824 103.579 70.9824ZM98.0215 68.4434H102.316V59.5566H98.0215V68.4434ZM110.399 70.9824H103.579C103.242 70.9824 102.947 70.8555 102.695 70.6016C102.442 70.3477 102.316 70.0514 102.316 69.7129V58.2871C102.316 57.9486 102.442 57.6523 102.695 57.3984C102.947 57.1445 103.242 57.0176 103.579 57.0176H110.399C110.82 57.0176 111.136 57.1445 111.347 57.3984C111.557 57.6523 111.663 57.9486 111.663 58.2871V69.7129C111.663 70.0514 111.557 70.3477 111.347 70.6016C111.136 70.8555 110.82 70.9824 110.399 70.9824ZM104.842 68.4434H109.136V59.5566H104.842V68.4434ZM67.2029 93.834C67.0345 93.834 66.8871 93.8128 66.7608 93.7705C66.6345 93.7282 66.4871 93.6224 66.3187 93.4531C66.0661 93.1992 65.9398 92.903 65.9398 92.5645C65.9398 92.2259 66.0661 91.9297 66.3187 91.6758L70.8657 87.1055C71.1183 86.8516 71.4341 86.7246 71.813 86.7246C72.1919 86.7246 72.5077 86.8516 72.7603 87.1055C73.0129 87.3594 73.1392 87.6556 73.1392 87.9941C73.1392 88.3327 73.0129 88.6289 72.7603 88.8828L68.2133 93.4531C68.0449 93.5378 67.8765 93.6224 67.7081 93.707C67.5397 93.7917 67.3713 93.834 67.2029 93.834ZM74.0234 96.1191H69.4764C69.1396 96.1191 68.8448 95.9922 68.5922 95.7383C68.3396 95.4844 68.2133 95.1882 68.2133 94.8496C68.2133 94.5111 68.3396 94.2148 68.5922 93.9609C68.8448 93.707 69.1396 93.5801 69.4764 93.5801H74.0234C74.4444 93.5801 74.7602 93.707 74.9707 93.9609C75.1812 94.2148 75.2864 94.5111 75.2864 94.8496C75.2864 95.1882 75.1812 95.4844 74.9707 95.7383C74.7602 95.9922 74.4444 96.1191 74.0234 96.1191ZM64.9294 91.5488C64.5925 91.5488 64.2978 91.4219 64.0452 91.168C63.7926 90.9141 63.6663 90.6178 63.6663 90.2793V85.709C63.6663 85.3704 63.7926 85.0742 64.0452 84.8203C64.2978 84.5664 64.5925 84.4395 64.9294 84.4395C65.3504 84.4395 65.6661 84.5664 65.8767 84.8203C66.0872 85.0742 66.1924 85.3704 66.1924 85.709V90.2793C66.1924 90.6178 66.0872 90.9141 65.8767 91.168C65.6661 91.4219 65.3504 91.5488 64.9294 91.5488ZM5.81825 102.975C5.48143 102.975 5.18672 102.848 4.9341 102.594C4.68149 102.34 4.55519 102.044 4.55519 101.705V95.8652C4.55519 95.5267 4.68149 95.2305 4.9341 94.9766C5.18672 94.7227 5.48143 94.5957 5.81825 94.5957C6.23926 94.5957 6.55503 94.7227 6.76554 94.9766C6.97605 95.2305 7.0813 95.5267 7.0813 95.8652V101.705C7.0813 102.044 6.97605 102.34 6.76554 102.594C6.55503 102.848 6.23926 102.975 5.81825 102.975ZM5.81825 91.2949C5.48143 91.2949 5.18672 91.168 4.9341 90.9141C4.68149 90.6602 4.55519 90.3639 4.55519 90.0254V84.1855C4.55519 83.847 4.68149 83.5508 4.9341 83.2969C5.18672 83.043 5.48143 82.916 5.81825 82.916C6.23926 82.916 6.55503 83.043 6.76554 83.2969C6.97605 83.5508 7.0813 83.847 7.0813 84.1855V90.0254C7.0813 90.3639 6.97605 90.6602 6.76554 90.9141C6.55503 91.168 6.23926 91.2949 5.81825 91.2949ZM5.81825 79.6152C5.48143 79.6152 5.18672 79.4883 4.9341 79.2344C4.68149 78.9805 4.55519 78.6842 4.55519 78.3457V72.5059C4.55519 72.1673 4.68149 71.8711 4.9341 71.6172C5.18672 71.3633 5.48143 71.2363 5.81825 71.2363C6.23926 71.2363 6.55503 71.3633 6.76554 71.6172C6.97605 71.8711 7.0813 72.1673 7.0813 72.5059V78.3457C7.0813 78.6842 6.97605 78.9805 6.76554 79.2344C6.55503 79.4883 6.23926 79.6152 5.81825 79.6152ZM5.81825 67.9355C5.48143 67.9355 5.18672 67.8086 4.9341 67.5547C4.68149 67.3008 4.55519 67.0046 4.55519 66.666V60.8262C4.55519 60.4876 4.68149 60.1914 4.9341 59.9375C5.18672 59.6836 5.48143 59.5566 5.81825 59.5566C6.23926 59.5566 6.55503 59.6836 6.76554 59.9375C6.97605 60.1914 7.0813 60.4876 7.0813 60.8262V66.666C7.0813 67.0046 6.97605 67.3008 6.76554 67.5547C6.55503 67.8086 6.23926 67.9355 5.81825 67.9355ZM5.81825 56.2559C5.48143 56.2559 5.18672 56.1289 4.9341 55.875C4.68149 55.6211 4.55519 55.3249 4.55519 54.9863V49.1465C4.55519 48.8079 4.68149 48.5117 4.9341 48.2578C5.18672 48.0039 5.48143 47.877 5.81825 47.877C6.23926 47.877 6.55503 48.0039 6.76554 48.2578C6.97605 48.5117 7.0813 48.8079 7.0813 49.1465V54.9863C7.0813 55.3249 6.97605 55.6211 6.76554 55.875C6.55503 56.1289 6.23926 56.2559 5.81825 56.2559ZM5.81825 45.8457C5.73404 45.8457 5.64984 45.8245 5.56563 45.7822C5.48143 45.7399 5.39723 45.7188 5.31302 45.7188C2.7027 44.4492 1.16598 42.4603 0.702861 39.752C0.239739 37.0436 0.00817871 35.6048 0.00817871 35.4355C0.00817871 35.2663 0.0502806 35.097 0.134485 34.9277C0.218688 34.7585 0.302892 34.6315 0.387096 34.5469C0.555504 34.4622 0.702861 34.3776 0.829166 34.293C0.955472 34.2083 1.10283 34.166 1.27124 34.166C2.02907 34.166 2.76586 33.9121 3.48159 33.4043C4.19732 32.8965 4.68149 32.5156 4.9341 32.2617C5.18672 32.0078 5.50248 31.8809 5.8814 31.8809C6.26032 31.8809 6.57608 32.0078 6.82869 32.2617C7.0813 32.5156 7.56548 32.8965 8.28121 33.4043C8.99694 33.9121 9.73373 34.166 10.4916 34.166C10.8284 34.166 11.1231 34.293 11.3757 34.5469C11.6283 34.8008 11.7546 35.097 11.7546 35.4355C11.7546 35.6048 11.5231 37.0436 11.0599 39.752C10.5968 42.4603 9.06009 44.4492 6.44977 45.7188C6.36557 45.7188 6.28137 45.7399 6.19716 45.7822C6.11296 45.8245 5.98665 45.8457 5.81825 45.8457ZM2.6606 36.5781C2.7448 37.4245 2.99742 38.5247 3.41844 39.8789C3.83945 41.2331 4.63939 42.291 5.81825 43.0527C6.9971 42.291 7.81809 41.2331 8.28121 39.8789C8.74433 38.5247 9.01799 37.4245 9.1022 36.5781C8.42857 36.4089 7.81809 36.1549 7.27076 35.8164C6.72344 35.4779 6.23926 35.1393 5.81825 34.8008C5.48143 35.1393 5.03936 35.4567 4.49203 35.7529C3.94471 36.0492 3.33423 36.3242 2.6606 36.5781ZM30.8268 23.1211C29.9006 23.1211 29.0796 22.7826 28.3638 22.1055C27.6481 21.4284 27.2902 20.582 27.2902 19.5664C27.2902 18.5508 27.6481 17.7044 28.3638 17.0273C29.0796 16.3503 29.9006 16.0117 30.8268 16.0117C31.8372 16.0117 32.6793 16.3503 33.3529 17.0273C34.0265 17.7044 34.3634 18.5508 34.3634 19.5664C34.3634 20.582 34.0265 21.4284 33.3529 22.1055C32.6793 22.7826 31.8372 23.1211 30.8268 23.1211ZM30.8268 18.5508C30.5742 18.5508 30.3426 18.6566 30.1321 18.8682C29.9216 19.0798 29.8163 19.3125 29.8163 19.5664C29.8163 19.8203 29.9216 20.0531 30.1321 20.2646C30.3426 20.4762 30.5742 20.582 30.8268 20.582C31.1636 20.582 31.4162 20.4762 31.5846 20.2646C31.753 20.0531 31.8372 19.8203 31.8372 19.5664C31.8372 19.3125 31.753 19.0798 31.5846 18.8682C31.4162 18.6566 31.1636 18.5508 30.8268 18.5508ZM110.399 23.1211C109.473 23.1211 108.652 22.7826 107.936 22.1055C107.221 21.4284 106.863 20.582 106.863 19.5664C106.863 18.5508 107.221 17.7044 107.936 17.0273C108.652 16.3503 109.473 16.0117 110.399 16.0117C111.41 16.0117 112.252 16.3503 112.926 17.0273C113.599 17.7044 113.936 18.5508 113.936 19.5664C113.936 20.582 113.599 21.4284 112.926 22.1055C112.252 22.7826 111.41 23.1211 110.399 23.1211ZM110.399 18.5508C110.147 18.5508 109.915 18.6566 109.705 18.8682C109.494 19.0798 109.389 19.3125 109.389 19.5664C109.389 19.8203 109.494 20.0531 109.705 20.2646C109.915 20.4762 110.147 20.582 110.399 20.582C110.736 20.582 110.989 20.4762 111.157 20.2646C111.326 20.0531 111.41 19.8203 111.41 19.5664C111.41 19.3125 111.326 19.0798 111.157 18.8682C110.989 18.6566 110.736 18.5508 110.399 18.5508ZM110.399 105.26C109.473 105.26 108.652 104.921 107.936 104.244C107.221 103.567 106.863 102.721 106.863 101.705C106.863 100.689 107.221 99.8431 107.936 99.166C108.652 98.4889 109.473 98.1504 110.399 98.1504C111.41 98.1504 112.252 98.4889 112.926 99.166C113.599 99.8431 113.936 100.689 113.936 101.705C113.936 102.721 113.599 103.567 112.926 104.244C112.252 104.921 111.41 105.26 110.399 105.26ZM110.399 100.689C110.147 100.689 109.915 100.795 109.705 101.007C109.494 101.218 109.389 101.451 109.389 101.705C109.389 101.959 109.494 102.192 109.705 102.403C109.915 102.615 110.147 102.721 110.399 102.721C110.736 102.721 110.989 102.615 111.157 102.403C111.326 102.192 111.41 101.959 111.41 101.705C111.41 101.451 111.326 101.218 111.157 101.007C110.989 100.795 110.736 100.689 110.399 100.689ZM126.567 121.383H80.465C80.2124 121.383 79.9808 121.319 79.7703 121.192C79.5598 121.065 79.4124 120.875 79.3282 120.621L77.8126 116.812H69.6027C69.3501 116.812 69.0975 116.749 68.8448 116.622C68.5922 116.495 68.4238 116.305 68.3396 116.051L64.1715 105.387H20.3434L16.3016 115.543C16.2174 115.797 16.049 116.008 15.7964 116.178C15.5438 116.347 15.2491 116.389 14.9123 116.305C14.6597 116.22 14.4281 116.072 14.2176 115.86C14.0071 115.649 13.9018 115.374 13.9018 115.035V1.28516C13.9018 0.946617 14.0281 0.650391 14.2807 0.396484C14.5333 0.142578 14.8281 0.015625 15.1649 0.015625H126.567C126.903 0.015625 127.198 0.142578 127.451 0.396484C127.703 0.650391 127.83 0.946617 127.83 1.28516V120.113C127.83 120.452 127.703 120.748 127.451 121.002C127.198 121.256 126.903 121.383 126.567 121.383ZM81.3491 118.844H125.304V2.55469H16.4279V108.434L18.3225 103.609C18.4067 103.44 18.5541 103.271 18.7646 103.102C18.9751 102.932 19.2067 102.848 19.4593 102.848H64.9294C65.182 102.848 65.4346 102.932 65.6872 103.102C65.9398 103.271 66.1082 103.44 66.1924 103.609L70.3605 114.273H78.5704C78.823 114.273 79.0546 114.358 79.2651 114.527C79.4756 114.697 79.6229 114.866 79.7071 115.035L81.3491 118.844ZM118.736 89.2637H115.704C114.525 89.2637 113.515 88.8405 112.673 87.9941C111.831 87.1478 111.41 86.1322 111.41 84.9473V77.457C111.41 76.2721 111.831 75.2565 112.673 74.4102C113.515 73.5638 114.525 73.1406 115.704 73.1406H118.736C119.914 73.1406 120.925 73.5638 121.767 74.4102C122.609 75.2565 123.03 76.2721 123.03 77.457V84.9473C123.03 86.1322 122.63 87.1478 121.83 87.9941C121.03 88.8405 119.999 89.2637 118.736 89.2637ZM115.704 75.6797C115.283 75.6797 114.883 75.849 114.504 76.1875C114.125 76.526 113.936 76.9492 113.936 77.457V84.9473C113.936 85.4551 114.125 85.8783 114.504 86.2168C114.883 86.5553 115.283 86.7246 115.704 86.7246H118.736C119.241 86.7246 119.662 86.5553 119.999 86.2168C120.336 85.8783 120.504 85.4551 120.504 84.9473V77.457C120.504 76.9492 120.336 76.526 119.999 76.1875C119.662 75.849 119.241 75.6797 118.736 75.6797H115.704ZM118.736 52.7012H115.704C114.525 52.7012 113.515 52.278 112.673 51.4316C111.831 50.5853 111.41 49.5697 111.41 48.3848V40.8945C111.41 39.7096 111.831 38.694 112.673 37.8477C113.515 37.0013 114.525 36.5781 115.704 36.5781H118.736C119.914 36.5781 120.925 37.0013 121.767 37.8477C122.609 38.694 123.03 39.7096 123.03 40.8945V48.3848C123.03 49.5697 122.63 50.5853 121.83 51.4316C121.03 52.278 119.999 52.7012 118.736 52.7012ZM115.704 39.1172C115.283 39.1172 114.883 39.2865 114.504 39.625C114.125 39.9635 113.936 40.3867 113.936 40.8945V48.3848C113.936 48.8926 114.125 49.3158 114.504 49.6543C114.883 49.9928 115.283 50.1621 115.704 50.1621H118.736C119.241 50.1621 119.662 49.9928 119.999 49.6543C120.336 49.3158 120.504 48.8926 120.504 48.3848V40.8945C120.504 40.3867 120.336 39.9635 119.999 39.625C119.662 39.2865 119.241 39.1172 118.736 39.1172H115.704ZM118.736 89.2637H115.704C114.525 89.2637 113.515 88.8405 112.673 87.9941C111.831 87.1478 111.41 86.1322 111.41 84.9473V77.457C111.41 76.2721 111.831 75.2565 112.673 74.4102C113.515 73.5638 114.525 73.1406 115.704 73.1406H118.736C119.914 73.1406 120.925 73.5638 121.767 74.4102C122.609 75.2565 123.03 76.2721 123.03 77.457V84.9473C123.03 86.1322 122.63 87.1478 121.83 87.9941C121.03 88.8405 119.999 89.2637 118.736 89.2637ZM115.704 75.6797C115.283 75.6797 114.883 75.849 114.504 76.1875C114.125 76.526 113.936 76.9492 113.936 77.457V84.9473C113.936 85.4551 114.125 85.8783 114.504 86.2168C114.883 86.5553 115.283 86.7246 115.704 86.7246H118.736C119.241 86.7246 119.662 86.5553 119.999 86.2168C120.336 85.8783 120.504 85.4551 120.504 84.9473V77.457C120.504 76.9492 120.336 76.526 119.999 76.1875C119.662 75.849 119.241 75.6797 118.736 75.6797H115.704ZM118.736 52.7012H115.704C114.525 52.7012 113.515 52.278 112.673 51.4316C111.831 50.5853 111.41 49.5697 111.41 48.3848V40.8945C111.41 39.7096 111.831 38.694 112.673 37.8477C113.515 37.0013 114.525 36.5781 115.704 36.5781H118.736C119.914 36.5781 120.925 37.0013 121.767 37.8477C122.609 38.694 123.03 39.7096 123.03 40.8945V48.3848C123.03 49.5697 122.63 50.5853 121.83 51.4316C121.03 52.278 119.999 52.7012 118.736 52.7012ZM115.704 39.1172C115.283 39.1172 114.883 39.2865 114.504 39.625C114.125 39.9635 113.936 40.3867 113.936 40.8945V48.3848C113.936 48.8926 114.125 49.3158 114.504 49.6543C114.883 49.9928 115.283 50.1621 115.704 50.1621H118.736C119.241 50.1621 119.662 49.9928 119.999 49.6543C120.336 49.3158 120.504 48.8926 120.504 48.3848V40.8945C120.504 40.3867 120.336 39.9635 119.999 39.625C119.662 39.2865 119.241 39.1172 118.736 39.1172H115.704ZM42.1943 116.812H15.1649C14.8281 116.812 14.5333 116.686 14.2807 116.432C14.0281 116.178 13.9018 115.882 13.9018 115.543V115.035C13.9018 114.951 13.9018 114.866 13.9018 114.781C13.9018 114.697 13.9439 114.612 14.0281 114.527L18.3225 103.609C18.4067 103.355 18.5541 103.165 18.7646 103.038C18.9751 102.911 19.2067 102.848 19.4593 102.848H37.6473C37.8999 102.848 38.1525 102.911 38.4051 103.038C38.6578 103.165 38.8262 103.355 38.9104 103.609L43.4574 115.035C43.4574 115.204 43.4574 115.416 43.4574 115.67C43.4574 115.924 43.4153 116.135 43.3311 116.305C43.1627 116.474 42.9943 116.601 42.8258 116.686C42.6574 116.77 42.4469 116.812 42.1943 116.812ZM16.8069 114.273H40.426L39.2893 111.48L36.8895 105.387H20.3434L16.8069 114.273ZM28.5533 128.238H1.27124C1.10283 128.238 0.934421 128.196 0.766014 128.111C0.597606 128.027 0.429198 127.9 0.26079 127.73C0.176586 127.561 0.113434 127.371 0.0713316 127.159C0.0292297 126.948 0.0502806 126.715 0.134485 126.461L4.68149 115.035C4.7657 114.781 4.91305 114.591 5.12356 114.464C5.33407 114.337 5.56563 114.273 5.81825 114.273H24.0063C24.2589 114.273 24.5115 114.337 24.7641 114.464C25.0167 114.591 25.1851 114.781 25.2693 115.035L29.8163 126.461C29.8163 126.63 29.8163 126.842 29.8163 127.096C29.8163 127.35 29.7742 127.561 29.69 127.73C29.5216 127.9 29.3532 128.027 29.1848 128.111C29.0164 128.196 28.8059 128.238 28.5533 128.238ZM3.16582 125.699H26.785L23.2484 116.812H6.70239L3.16582 125.699ZM28.5533 128.238C28.3007 128.238 28.0691 128.175 27.8586 128.048C27.6481 127.921 27.5007 127.73 27.4165 127.477L22.8695 116.051C22.7853 115.882 22.7643 115.67 22.8064 115.416C22.8485 115.162 22.9116 114.951 22.9958 114.781C23.1642 114.612 23.3327 114.485 23.5011 114.4C23.6695 114.316 23.8379 114.273 24.0063 114.273H33.1003C33.3529 114.273 33.5634 114.316 33.7318 114.4C33.9002 114.485 34.0686 114.612 34.2371 114.781C34.3213 114.951 34.3634 115.141 34.3634 115.353C34.3634 115.564 34.3634 115.797 34.3634 116.051L29.8163 127.477C29.7321 127.73 29.5637 127.921 29.3111 128.048C29.0585 128.175 28.8059 128.238 28.5533 128.238ZM25.9009 116.812L28.5533 123.541L31.332 116.812H25.9009ZM55.8353 128.238H28.5533C28.3849 128.238 28.2165 128.196 28.0481 128.111C27.8797 128.027 27.7113 127.9 27.5428 127.73C27.4586 127.561 27.3955 127.371 27.3534 127.159C27.3113 126.948 27.3323 126.715 27.4165 126.461L31.9635 115.035C32.0478 114.781 32.1951 114.591 32.4056 114.464C32.6161 114.337 32.8477 114.273 33.1003 114.273H51.2883C51.5409 114.273 51.7936 114.337 52.0462 114.464C52.2988 114.591 52.4672 114.781 52.5514 115.035L57.0984 126.461C57.0984 126.63 57.0984 126.842 57.0984 127.096C57.0984 127.35 57.0563 127.561 56.9721 127.73C56.8037 127.9 56.6353 128.027 56.4669 128.111C56.2985 128.196 56.088 128.238 55.8353 128.238ZM30.4479 125.699H54.0671L50.5305 116.812H33.9844L30.4479 125.699ZM83.1174 128.238H55.8353C55.6669 128.238 55.4985 128.196 55.3301 128.111C55.1617 128.027 54.9933 127.9 54.8249 127.73C54.7407 127.561 54.6775 127.371 54.6354 127.159C54.5933 126.948 54.6144 126.715 54.6986 126.461L59.2456 115.035C59.3298 114.781 59.4772 114.591 59.6877 114.464C59.8982 114.337 60.1297 114.273 60.3824 114.273H78.5704C78.823 114.273 79.0756 114.337 79.3282 114.464C79.5808 114.591 79.7492 114.781 79.8335 115.035L84.3805 126.461C84.3805 126.63 84.3805 126.842 84.3805 127.096C84.3805 127.35 84.3384 127.561 84.2542 127.73C84.0857 127.9 83.9173 128.027 83.7489 128.111C83.5805 128.196 83.37 128.238 83.1174 128.238ZM57.7299 125.699H81.3491L77.8126 116.812H61.2665L57.7299 125.699ZM55.8353 128.238C55.5827 128.238 55.3512 128.175 55.1407 128.048C54.9302 127.921 54.7828 127.73 54.6986 127.477L50.1516 116.051C50.0674 115.882 50.0463 115.67 50.0884 115.416C50.1305 115.162 50.1937 114.951 50.2779 114.781C50.4463 114.612 50.6147 114.485 50.7831 114.4C50.9515 114.316 51.1199 114.273 51.2883 114.273H60.3824C60.635 114.273 60.8455 114.316 61.0139 114.4C61.1823 114.485 61.3507 114.612 61.5191 114.781C61.6033 114.951 61.6454 115.141 61.6454 115.353C61.6454 115.564 61.6454 115.797 61.6454 116.051L57.0984 127.477C57.0142 127.73 56.8458 127.921 56.5932 128.048C56.3406 128.175 56.088 128.238 55.8353 128.238ZM53.1829 116.812L55.8353 123.541L58.6141 116.812H53.1829ZM69.4764 116.812H42.1943C42.0259 116.812 41.8575 116.77 41.6891 116.686C41.5207 116.601 41.3523 116.474 41.1839 116.305C41.0997 116.135 41.0365 115.945 40.9944 115.733C40.9523 115.522 40.9734 115.289 41.0576 115.035L45.6046 103.609C45.6888 103.355 45.8361 103.165 46.0466 103.038C46.2572 102.911 46.4887 102.848 46.7413 102.848H64.9294C65.182 102.848 65.4346 102.911 65.6872 103.038C65.9398 103.165 66.1082 103.355 66.1924 103.609L70.7394 115.035C70.7394 115.204 70.7394 115.416 70.7394 115.67C70.7394 115.924 70.6973 116.135 70.6131 116.305C70.4447 116.474 70.2763 116.601 70.1079 116.686C69.9395 116.77 69.729 116.812 69.4764 116.812ZM44.0889 114.273H67.7081L64.1715 105.387H47.6255L44.0889 114.273ZM42.1943 116.812C41.9417 116.812 41.7101 116.749 41.4996 116.622C41.2891 116.495 41.1418 116.305 41.0576 116.051L36.5106 104.625C36.4264 104.456 36.4053 104.244 36.4474 103.99C36.4895 103.736 36.5527 103.525 36.6369 103.355C36.8053 103.186 36.9737 103.059 37.1421 102.975C37.3105 102.89 37.4789 102.848 37.6473 102.848H46.7413C46.9939 102.848 47.2044 102.89 47.3729 102.975C47.5413 103.059 47.7097 103.186 47.8781 103.355C47.9623 103.525 48.0044 103.715 48.0044 103.927C48.0044 104.138 48.0044 104.371 48.0044 104.625L43.4574 116.051C43.3732 116.305 43.2048 116.495 42.9522 116.622C42.6995 116.749 42.4469 116.812 42.1943 116.812ZM39.5419 105.387L42.1943 112.115L44.973 105.387H39.5419ZM117.473 112.242H67.7081C67.4555 112.242 67.2239 112.179 67.0134 112.052C66.8029 111.925 66.6555 111.734 66.5713 111.48L64.1715 105.387H24.2589C23.9221 105.387 23.6274 105.26 23.3748 105.006C23.1221 104.752 22.9958 104.456 22.9958 104.117V10.4258C22.9958 10.0872 23.1221 9.79102 23.3748 9.53711C23.6274 9.2832 23.9221 9.15625 24.2589 9.15625H117.473C117.809 9.15625 118.104 9.2832 118.357 9.53711C118.609 9.79102 118.736 10.0872 118.736 10.4258V37.8477C118.736 38.1862 118.609 38.4824 118.357 38.7363C118.104 38.9902 117.809 39.1172 117.473 39.1172H115.704C115.283 39.1172 114.883 39.2865 114.504 39.625C114.125 39.9635 113.936 40.3867 113.936 40.8945V48.3848C113.936 48.8926 114.125 49.3158 114.504 49.6543C114.883 49.9928 115.283 50.1621 115.704 50.1621H117.473C117.809 50.1621 118.104 50.2891 118.357 50.543C118.609 50.7969 118.736 51.0931 118.736 51.4316V74.4102C118.736 74.7487 118.609 75.0449 118.357 75.2988C118.104 75.5527 117.809 75.6797 117.473 75.6797H115.704C115.283 75.6797 114.883 75.849 114.504 76.1875C114.125 76.526 113.936 76.9492 113.936 77.457V84.9473C113.936 85.4551 114.125 85.8783 114.504 86.2168C114.883 86.5553 115.283 86.7246 115.704 86.7246H117.473C117.809 86.7246 118.104 86.8516 118.357 87.1055C118.609 87.3594 118.736 87.6556 118.736 87.9941V110.973C118.736 111.311 118.609 111.607 118.357 111.861C118.104 112.115 117.809 112.242 117.473 112.242ZM68.5922 109.703H116.21V89.2637H115.704C114.525 89.2637 113.515 88.8405 112.673 87.9941C111.831 87.1478 111.41 86.1322 111.41 84.9473V77.457C111.41 76.2721 111.831 75.2565 112.673 74.4102C113.515 73.5638 114.525 73.1406 115.704 73.1406H116.21V52.7012H115.704C114.525 52.7012 113.515 52.278 112.673 51.4316C111.831 50.5853 111.41 49.5697 111.41 48.3848V40.8945C111.41 39.7096 111.831 38.694 112.673 37.8477C113.515 37.0013 114.525 36.5781 115.704 36.5781H116.21V11.6953H25.522V102.848H64.9294C65.182 102.848 65.4346 102.911 65.6872 103.038C65.9398 103.165 66.1082 103.355 66.1924 103.609L68.5922 109.703Z" fill="#DC052D"/>
</svg>
