<svg width="128" height="127" viewBox="0 0 128 127" fill="none" xmlns="http://www.w3.org/2000/svg">
<path d="M76.8019 99.0703C76.8019 99.0703 76.7598 99.0703 76.6756 99.0703C76.5914 99.0703 76.5493 99.0703 76.5493 99.0703C76.2966 98.9857 73.8758 98.1182 69.2867 96.4678C64.6976 94.8174 61.3505 92.2995 59.2454 88.9141C59.077 88.5755 59.0348 88.237 59.119 87.8984C59.2033 87.5599 59.3717 87.306 59.6243 87.1367C59.9611 86.9674 60.2979 86.9251 60.6347 87.0098C60.9715 87.0944 61.2241 87.2637 61.3926 87.5176C63.245 90.4798 66.3185 92.7227 70.6129 94.2461C74.9073 95.7695 77.0966 96.5736 77.1808 96.6582C77.5176 96.7428 77.7702 96.9333 77.9386 97.2295C78.107 97.5257 78.1491 97.8431 78.0649 98.1816C77.9807 98.4355 77.8334 98.6471 77.6228 98.8164C77.4123 98.9857 77.1387 99.0703 76.8019 99.0703ZM6.95475 99.0703C6.87055 99.0703 6.78635 99.0703 6.70214 99.0703C6.61794 99.0703 6.53373 99.0703 6.44953 99.0703C6.28112 98.901 6.11272 98.7106 5.94431 98.499C5.7759 98.2874 5.6917 98.0547 5.6917 97.8008C5.7759 95.7695 5.98641 93.5479 6.32322 91.1357C6.66004 88.7236 7.12316 86.1211 7.71259 83.3281C7.71259 83.2435 7.71259 83.18 7.71259 83.1377C7.71259 83.0954 7.71259 83.0319 7.71259 82.9473C7.79679 82.6934 7.9652 82.4818 8.21781 82.3125C8.47042 82.1432 8.72303 82.0586 8.97565 82.0586H14.4068C14.5752 82.0586 14.7436 82.0798 14.912 82.1221C15.0804 82.1644 15.2488 82.2702 15.4172 82.4395C15.5014 82.6087 15.5646 82.778 15.6067 82.9473C15.6488 83.1165 15.6699 83.2858 15.6699 83.4551C15.5014 84.8092 15.2067 86.1423 14.7857 87.4541C14.3647 88.7659 13.8174 90.099 13.1437 91.4531C12.0491 93.6536 10.9123 95.4098 9.73348 96.7217C8.55463 98.0335 7.9231 98.7318 7.83889 98.8164C7.75469 98.901 7.62838 98.9645 7.45998 99.0068C7.29157 99.0492 7.12316 99.0703 6.95475 99.0703ZM9.98609 84.5977C9.64928 86.2904 9.35456 87.9408 9.10195 89.5488C8.84934 91.1569 8.63883 92.7227 8.47042 94.2461C8.89144 93.6536 9.29141 93.04 9.67033 92.4053C10.0492 91.7705 10.4492 91.0723 10.8702 90.3105C11.3755 89.3796 11.7965 88.4274 12.1333 87.4541C12.4701 86.4808 12.7227 85.5286 12.8911 84.5977H9.98609ZM84.6328 93.8652C84.5486 93.8652 84.4644 93.8652 84.3802 93.8652C84.296 93.8652 84.2118 93.8229 84.1276 93.7383C83.7908 93.6536 80.8015 92.2572 75.1599 89.5488C69.5182 86.8405 65.7291 84.0898 63.7924 81.2969C63.624 81.043 63.5819 80.7467 63.6661 80.4082C63.7503 80.0697 63.9187 79.8158 64.1713 79.6465C64.4239 79.3926 64.7397 79.3079 65.1186 79.3926C65.4975 79.4772 65.7712 79.6465 65.9396 79.9004C67.2868 81.9316 70.2761 84.1322 74.9073 86.502C79.5385 88.8717 82.9487 90.5221 85.138 91.4531C85.4749 91.5378 85.7064 91.7493 85.8327 92.0879C85.959 92.4264 85.938 92.765 85.7696 93.1035C85.6854 93.3574 85.538 93.5479 85.3275 93.6748C85.117 93.8018 84.8854 93.8652 84.6328 93.8652ZM34.2368 93.4844C34.1526 93.4844 34.0684 93.4844 33.9842 93.4844C33.9 93.4844 33.8158 93.4844 33.7316 93.4844C30.8687 92.3841 28.953 90.8184 27.9847 88.7871C27.0163 86.7559 26.4901 85.0208 26.4058 83.582C26.4058 83.582 26.4058 83.5609 26.4058 83.5186C26.4058 83.4762 26.4058 83.4551 26.4058 83.4551C26.3216 83.2012 26.3006 82.9896 26.3427 82.8203C26.3848 82.651 26.448 82.4818 26.5322 82.3125C26.6164 81.8893 26.8479 81.4238 27.2268 80.916C27.6058 80.4082 28.0899 80.0273 28.6794 79.7734C29.6898 79.5195 30.8055 79.7311 32.0265 80.4082C33.2474 81.0853 34.6157 82.2279 36.1314 83.8359C36.2998 84.0898 36.4051 84.3226 36.4472 84.5342C36.4893 84.7458 36.4682 84.9785 36.384 85.2324C35.963 86.1634 35.6051 87.306 35.3104 88.6602C35.0157 90.0143 35.0367 90.9876 35.3736 91.5801C35.4578 91.834 35.4788 92.1091 35.4367 92.4053C35.3946 92.7015 35.2894 92.9342 35.1209 93.1035V93.2305C34.9525 93.3151 34.8052 93.3786 34.6789 93.4209C34.5526 93.4632 34.4052 93.4844 34.2368 93.4844ZM28.932 82.8203C28.932 82.9049 28.932 82.9684 28.932 83.0107C28.932 83.0531 28.932 83.0742 28.932 83.0742C28.932 83.1589 29.0793 84.0264 29.374 85.6768C29.6687 87.3271 30.7423 88.7871 32.5948 90.0566C32.679 89.1257 32.8474 88.1947 33.1001 87.2637C33.3527 86.3327 33.5632 85.571 33.7316 84.9785C32.3001 83.4551 31.2476 82.6087 30.5739 82.4395C29.9003 82.2702 29.5214 82.1855 29.4372 82.1855C29.353 82.2702 29.2688 82.376 29.1846 82.5029C29.1004 82.6299 29.0162 82.7357 28.932 82.8203ZM90.4429 85.6133C90.3587 85.6133 90.2534 85.5921 90.1271 85.5498C90.0008 85.5075 89.8956 85.4863 89.8114 85.4863C89.8114 85.4863 88.7799 84.9574 86.7169 83.8994C84.6539 82.8415 82.2751 81.5508 79.5806 80.0273C76.044 77.9115 73.1811 75.9437 70.9918 74.124C68.8025 72.3044 67.3289 70.6328 66.5711 69.1094C66.4027 68.7708 66.3816 68.4534 66.5079 68.1572C66.6342 67.861 66.8237 67.6283 67.0763 67.459C67.4131 67.2897 67.7499 67.2686 68.0868 67.3955C68.4236 67.5225 68.6762 67.7129 68.8446 67.9668C69.2656 68.8132 70.3182 70.0404 72.0022 71.6484C73.6863 73.2565 76.6335 75.3301 80.8437 77.8691C83.454 79.3926 85.7906 80.6621 87.8536 81.6777C89.9166 82.6934 90.9481 83.2012 90.9481 83.2012C91.2849 83.3704 91.5165 83.6032 91.6428 83.8994C91.7691 84.1956 91.748 84.513 91.5796 84.8516C91.4112 85.1055 91.2218 85.2959 91.0113 85.4229C90.8008 85.5498 90.6113 85.6133 90.4429 85.6133ZM97.3897 79.6465C97.2213 79.6465 97.0529 79.6042 96.8845 79.5195C96.7161 79.4349 96.5898 79.3503 96.5056 79.2656C96.4214 79.181 96.2951 79.054 96.1266 78.8848C95.9582 78.7155 95.5793 78.4193 94.9899 77.9961C94.7373 77.8268 94.5689 77.5518 94.4847 77.1709C94.4005 76.79 94.4847 76.4727 94.7373 76.2188C94.9057 75.9648 95.1583 75.8167 95.4951 75.7744C95.8319 75.7321 96.1688 75.7956 96.5056 75.9648C97.095 76.4727 97.516 76.8324 97.7686 77.0439C98.0212 77.2555 98.1896 77.4036 98.2738 77.4883C98.5265 77.7422 98.6528 78.0384 98.6528 78.377C98.6528 78.7155 98.5265 79.0117 98.2738 79.2656C98.1054 79.3503 97.9581 79.4349 97.8318 79.5195C97.7055 79.6042 97.5581 79.6465 97.3897 79.6465ZM44.9728 101.355C43.6255 101.355 42.5098 101.144 41.6257 100.721C40.7416 100.298 40.2574 100.086 40.1732 100.086C40.1732 100.086 40.1521 100.065 40.11 100.022C40.0679 99.9801 40.0469 99.959 40.0469 99.959C40.0469 99.959 39.9416 99.8955 39.7311 99.7686C39.5206 99.6416 39.2469 99.4512 38.9101 99.1973C37.226 97.8431 36.1103 96.9121 35.563 96.4043C35.0157 95.8965 34.6578 95.5579 34.4894 95.3887C34.0684 94.9655 33.7526 94.5212 33.5421 94.0557C33.3316 93.5902 33.1843 93.2305 33.1001 92.9766C33.1001 92.8919 33.079 92.8073 33.0369 92.7227C32.9948 92.638 32.9738 92.5534 32.9738 92.4688C32.8895 92.4688 32.8474 92.4476 32.8474 92.4053C32.8474 92.363 32.8474 92.2995 32.8474 92.2148C32.4264 90.8607 32.4685 89.2949 32.9738 87.5176C33.479 85.7402 33.8579 84.64 34.1105 84.2168C34.1105 84.2168 34.2368 83.9417 34.4894 83.3916C34.742 82.8415 35.1209 82.2279 35.6262 81.5508C36.384 80.5352 37.1629 79.7734 37.9628 79.2656C38.7628 78.7578 39.5838 78.4616 40.4258 78.377C41.6046 78.377 42.7203 78.779 43.7729 79.583C44.8254 80.387 45.8569 81.6354 46.8674 83.3281C46.9516 83.4974 47.0147 83.6455 47.0568 83.7725C47.0989 83.8994 47.1621 84.0475 47.2463 84.2168C47.2463 84.64 47.1621 85.2959 46.9937 86.1846C46.8253 87.0732 46.1938 88.4909 45.0991 90.4375C44.3413 91.8763 44.1097 93.3151 44.4044 94.7539C44.6991 96.1927 45.5201 97.5892 46.8674 98.9434V99.0703C47.12 99.3242 47.2463 99.6204 47.2463 99.959C47.2463 100.298 47.12 100.594 46.8674 100.848V100.975C46.699 101.059 46.5306 101.144 46.3622 101.229C46.1938 101.313 46.0253 101.355 45.8569 101.355C45.8569 101.355 45.8148 101.355 45.7306 101.355C45.6464 101.355 45.5201 101.355 45.3517 101.355C45.1833 101.355 45.057 101.355 44.9728 101.355ZM41.5625 97.9277C41.6467 97.9277 41.8362 98.0124 42.1309 98.1816C42.4256 98.3509 42.8256 98.4779 43.3308 98.5625C42.4046 97.1237 41.8994 95.6003 41.8152 93.9922C41.731 92.3841 42.0678 90.8184 42.8256 89.2949C43.6676 87.7715 44.1939 86.6712 44.4044 85.9941C44.6149 85.3171 44.7202 84.8939 44.7202 84.7246C44.215 83.8783 43.6045 83.0319 42.8888 82.1855C42.173 81.3392 41.3941 80.9583 40.5521 81.043C39.6259 81.043 38.7628 81.6143 37.9628 82.7568C37.1629 83.8994 36.6366 84.7246 36.384 85.2324C36.0472 86.1634 35.7104 87.306 35.3736 88.6602C35.0367 90.0143 35.0367 90.9876 35.3736 91.5801C35.4578 91.6647 35.4999 91.7493 35.4999 91.834C35.4999 91.9186 35.4999 92.0033 35.4999 92.0879C35.5841 92.2572 35.6893 92.5111 35.8156 92.8496C35.9419 93.1882 36.1314 93.4844 36.384 93.7383C36.4682 93.8229 36.784 94.098 37.3313 94.5635C37.8786 95.029 38.9522 95.8965 40.5521 97.166C40.8047 97.3353 41.0152 97.4834 41.1836 97.6104C41.352 97.7373 41.4783 97.8431 41.5625 97.9277ZM51.0355 104.656C50.9513 104.656 50.8881 104.656 50.846 104.656C50.8039 104.656 50.7408 104.656 50.6566 104.656C49.5619 104.572 48.7199 104.318 48.1304 103.895C47.541 103.471 47.2042 103.217 47.12 103.133C47.12 103.133 47.0779 103.133 46.9937 103.133L44.9728 100.975C44.8886 100.89 44.8254 100.805 44.7833 100.721C44.7412 100.636 44.7202 100.551 44.7202 100.467C43.1203 98.6895 42.173 96.8486 41.8783 94.9443C41.5836 93.04 41.8994 91.1992 42.8256 89.4219C43.836 87.5599 44.4044 86.3115 44.5307 85.6768C44.657 85.042 44.7202 84.7246 44.7202 84.7246C44.7202 84.5553 44.7202 84.4072 44.7202 84.2803C44.7202 84.1533 44.7623 84.0052 44.8465 83.8359C45.0991 83.3281 45.7306 82.3337 46.7411 80.8525C47.7515 79.3714 49.0146 78.7155 50.5303 78.8848C51.7091 78.9694 52.7406 79.6888 53.6247 81.043C54.5089 82.3971 55.2878 84.4707 55.9614 87.2637C56.0456 87.4329 56.0667 87.6234 56.0246 87.835C55.9825 88.0466 55.8772 88.237 55.7088 88.4062C55.7088 88.4062 55.1825 89.2949 54.13 91.0723C53.0774 92.8496 52.8038 94.6693 53.309 96.5312C53.8142 98.4779 54.1721 99.6839 54.3826 100.149C54.5931 100.615 54.8247 100.975 55.0773 101.229C55.1615 101.229 55.2246 101.25 55.2667 101.292C55.3088 101.334 55.3299 101.355 55.3299 101.355C55.4141 101.525 55.4983 101.694 55.5825 101.863C55.6667 102.033 55.7088 102.244 55.7088 102.498C55.6246 102.667 55.5404 102.837 55.4562 103.006C55.372 103.175 55.2457 103.302 55.0773 103.387C54.4036 103.81 53.73 104.127 53.0564 104.339C52.3827 104.55 51.7091 104.656 51.0355 104.656ZM48.8883 101.355C48.8883 101.355 49.0567 101.461 49.3935 101.673C49.7303 101.884 50.1934 101.99 50.7829 101.99C51.0355 102.075 51.3091 102.096 51.6039 102.054C51.8986 102.011 52.1722 101.906 52.4248 101.736C52.1722 101.398 51.9407 100.89 51.7302 100.213C51.5197 99.5358 51.246 98.5202 50.9092 97.166C50.3197 95.0501 50.4671 93.0612 51.3512 91.1992C52.2354 89.3372 52.9301 88.0254 53.4353 87.2637C52.6775 84.4707 52.0038 82.7992 51.4144 82.249C50.825 81.6989 50.4461 81.3815 50.2776 81.2969C49.8566 81.2969 49.3304 81.6777 48.6988 82.4395C48.0673 83.2012 47.5831 83.9629 47.2463 84.7246C47.2463 85.1478 47.12 85.8037 46.8674 86.6924C46.6148 87.5811 46.0253 88.8717 45.0991 90.5645C44.3413 91.9186 44.1097 93.3151 44.4044 94.7539C44.6991 96.1927 45.5201 97.6315 46.8674 99.0703H46.9937C46.9937 99.1549 47.0147 99.2396 47.0568 99.3242C47.0989 99.4089 47.1621 99.4935 47.2463 99.5781L48.8883 101.355ZM59.119 106.688C58.5296 106.688 58.0244 106.624 57.6034 106.497C57.1824 106.37 56.8876 106.307 56.7192 106.307C56.635 106.222 56.5508 106.159 56.4666 106.116C56.3824 106.074 56.2982 106.01 56.214 105.926L53.5616 103.133C53.4774 103.048 53.4353 103.006 53.4353 103.006C53.4353 103.006 53.3932 102.964 53.309 102.879C52.888 102.456 52.5301 101.927 52.2354 101.292C51.9407 100.657 51.4986 99.2819 50.9092 97.166C50.3197 94.9655 50.5303 92.8708 51.5407 90.8818C52.5511 88.8929 53.2669 87.6022 53.6879 87.0098C53.8563 86.3327 54.2352 85.6768 54.8247 85.042C55.4141 84.4072 56.1298 84.0898 56.9719 84.0898C58.2349 84.0898 59.2875 84.9362 60.1295 86.6289C60.9715 88.3216 61.6031 90.903 62.0241 94.373C62.1083 94.4577 62.1504 94.627 62.1504 94.8809C62.1504 95.1348 62.1925 95.431 62.2767 95.7695C62.2767 96.8698 62.6135 97.8431 63.2871 98.6895C63.9608 99.5358 64.8028 100.128 65.8133 100.467C66.0659 100.551 66.2764 100.594 66.4448 100.594C66.6132 100.594 66.7395 100.594 66.8237 100.594C67.0763 100.594 67.3079 100.657 67.5184 100.784C67.7289 100.911 67.9184 101.102 68.0868 101.355C68.171 101.525 68.192 101.757 68.1499 102.054C68.1078 102.35 68.0026 102.583 67.8342 102.752C66.1501 104.36 64.5502 105.418 63.0345 105.926C61.5189 106.434 60.2137 106.688 59.119 106.688ZM57.856 104.021C58.0244 104.021 58.3191 104.043 58.7401 104.085C59.1612 104.127 59.6243 104.106 60.1295 104.021C60.8031 103.937 61.4768 103.768 62.1504 103.514C62.824 103.26 63.4556 102.921 64.045 102.498C62.7819 101.906 61.7504 101.017 60.9505 99.832C60.1505 98.6471 59.7085 97.3353 59.6243 95.8965C59.6243 95.6426 59.6032 95.4098 59.5611 95.1982C59.519 94.9867 59.498 94.8809 59.498 94.8809C58.9927 90.9876 58.4454 88.639 57.856 87.835C57.2666 87.0309 56.9297 86.6289 56.8455 86.6289C56.7613 86.6289 56.614 86.7559 56.4035 87.0098C56.193 87.2637 56.0877 87.5176 56.0877 87.7715C56.0877 87.8561 56.0456 87.9619 55.9614 88.0889C55.8772 88.2158 55.8351 88.3216 55.8351 88.4062C55.7509 88.4062 55.1825 89.2949 54.13 91.0723C53.0774 92.8496 52.8038 94.6693 53.309 96.5312C53.8142 98.4779 54.1721 99.6839 54.3826 100.149C54.5931 100.615 54.8247 100.975 55.0773 101.229C55.1615 101.229 55.2246 101.25 55.2667 101.292C55.3088 101.334 55.3299 101.355 55.3299 101.355L57.856 104.021ZM6.95475 99.0703C6.95475 99.0703 6.91265 99.0703 6.82845 99.0703C6.74424 99.0703 6.66004 99.0703 6.57584 99.0703L0.892075 97.0391C0.639464 96.9544 0.428954 96.8063 0.260546 96.5947C0.0921384 96.3831 0.00793457 96.1081 0.00793457 95.7695C0.0921384 91.2839 0.513158 85.973 1.27099 79.8369C2.02883 73.7008 3.6708 67.5436 6.19692 61.3652C7.71259 57.7259 9.123 55.0176 10.4282 53.2402C11.7333 51.4629 12.3859 50.5319 12.3859 50.4473C12.5543 50.278 12.7227 50.151 12.8911 50.0664C13.0595 49.9818 13.27 49.9395 13.5227 49.9395L19.0801 50.5742C19.4169 50.5742 19.6906 50.7012 19.9011 50.9551C20.1116 51.209 20.2169 51.5052 20.2169 51.8438V52.4785C20.2169 52.5631 20.2169 52.6478 20.2169 52.7324C20.2169 52.8171 20.1748 52.9017 20.0906 52.9863C20.0906 52.9863 19.7537 53.875 19.0801 55.6523C18.3223 57.4297 17.4381 59.7572 16.4277 62.6348C15.4172 65.5124 14.3226 68.7708 13.1437 72.4102C12.0491 76.0495 11.0807 79.7734 10.2387 83.582L10.1124 83.8359C9.52297 86.5443 9.0809 89.0622 8.78619 91.3896C8.49147 93.7171 8.30202 95.8965 8.21781 97.9277C8.21781 98.097 8.17571 98.2663 8.09151 98.4355C8.0073 98.6048 7.881 98.7741 7.71259 98.9434C7.62838 98.9434 7.52313 98.9645 7.39682 99.0068C7.27052 99.0492 7.12316 99.0703 6.95475 99.0703ZM2.66036 94.8809L5.818 96.0234C5.90221 94.1615 6.11272 92.1725 6.44953 90.0566C6.78635 87.9408 7.20737 85.6979 7.71259 83.3281L7.83889 82.9473C9.27036 76.4303 11.0386 70.252 13.1437 64.4121C15.2488 58.5723 16.6803 54.7637 17.4381 52.9863L13.9016 52.6055C13.4806 53.1979 12.7648 54.3193 11.7544 55.9697C10.7439 57.6201 9.64928 59.7995 8.47042 62.5078C7.20737 65.724 5.92326 70.0192 4.6181 75.3936C3.31294 80.7679 2.66036 87.2637 2.66036 94.8809ZM17.3118 84.5977H8.97565C8.80724 84.5977 8.63883 84.5553 8.47042 84.4707C8.30202 84.3861 8.13361 84.2591 7.9652 84.0898C7.881 83.9206 7.81784 83.7513 7.77574 83.582C7.73364 83.4128 7.71259 83.2435 7.71259 83.0742C8.55463 79.181 9.56507 75.4147 10.7439 71.7754C11.9228 68.0514 13.0385 64.7295 14.091 61.8096C15.1436 58.8896 16.0067 56.541 16.6803 54.7637C17.4381 52.9863 17.8171 52.0553 17.8171 51.9707C17.9013 51.8014 18.0697 51.6322 18.3223 51.4629C18.5749 51.2936 18.8275 51.209 19.0801 51.209L24.6376 51.4629C24.9744 51.4629 25.2691 51.5898 25.5217 51.8438C25.7743 52.0977 25.9006 52.3939 25.9006 52.7324V53.748C25.9006 53.9173 25.8796 54.0654 25.8375 54.1924C25.7954 54.3193 25.7322 54.4251 25.648 54.5098C25.4796 54.8483 24.1955 57.8105 21.7957 63.3965C19.3959 68.9824 18.3223 75.584 18.5749 83.2012C18.5749 83.4551 18.5328 83.6455 18.4486 83.7725C18.3644 83.8994 18.2802 84.0475 18.196 84.2168C18.0276 84.3014 17.8802 84.3861 17.7539 84.4707C17.6276 84.5553 17.4802 84.5977 17.3118 84.5977ZM10.6176 82.0586H15.9225C15.9225 75.1185 16.9119 69.0671 18.8907 63.9043C20.8694 58.7415 22.2799 55.3984 23.1219 53.875L19.8379 53.748C19.1643 55.3561 17.8171 58.8896 15.7962 64.3486C13.7753 69.8076 12.0491 75.7109 10.6176 82.0586ZM69.6024 103.641C68.9288 103.641 68.3604 103.577 67.8973 103.45C67.4342 103.323 67.0763 103.217 66.8237 103.133C66.8237 103.133 66.8027 103.133 66.7606 103.133C66.7185 103.133 66.6553 103.133 66.5711 103.133C66.3185 103.133 66.0659 103.112 65.8133 103.069C65.5606 103.027 65.308 102.964 65.0554 102.879C63.4556 102.456 62.1714 101.588 61.2031 100.276C60.2348 98.9645 59.7085 97.5046 59.6243 95.8965C59.6243 95.5579 59.6032 95.304 59.5611 95.1348C59.519 94.9655 59.498 94.8809 59.498 94.8809C59.498 94.8809 59.498 94.8385 59.498 94.7539C58.9927 90.9453 58.4454 88.639 57.856 87.835C57.2666 87.0309 56.9297 86.6289 56.8455 86.6289C56.7613 86.6289 56.614 86.7559 56.4035 87.0098C56.193 87.2637 56.0877 87.4753 56.0877 87.6445C56.0035 87.9831 55.8562 88.2581 55.6456 88.4697C55.4351 88.6813 55.1615 88.7871 54.8247 88.7871C54.572 88.7871 54.3194 88.7025 54.0668 88.5332C53.8142 88.3639 53.6458 88.1523 53.5616 87.8984C52.8038 84.8516 52.1091 83.0107 51.4776 82.376C50.846 81.7412 50.4461 81.3815 50.2776 81.2969C49.7724 81.2969 49.204 81.7201 48.5725 82.5664C47.941 83.4128 47.4568 84.2168 47.12 84.9785C47.12 85.0632 47.0989 85.1266 47.0568 85.1689C47.0147 85.2113 46.9516 85.2747 46.8674 85.3594C46.699 85.5286 46.5095 85.6344 46.299 85.6768C46.0885 85.7191 45.8569 85.6979 45.6043 85.6133C45.4359 85.5286 45.2675 85.4229 45.0991 85.2959C44.9307 85.1689 44.8465 85.0208 44.8465 84.8516C44.8465 84.8516 44.8465 84.8304 44.8465 84.7881C44.8465 84.7458 44.8044 84.7246 44.7202 84.7246C44.215 83.8783 43.6045 83.0319 42.8888 82.1855C42.173 81.3392 41.3941 80.916 40.5521 80.916C39.6259 81.0007 38.7628 81.5931 37.9628 82.6934C37.1629 83.7936 36.6366 84.64 36.384 85.2324C36.2998 85.4017 36.1735 85.5498 36.0051 85.6768C35.8367 85.8037 35.6683 85.9095 35.4999 85.9941C35.2473 85.9941 35.0367 85.9518 34.8683 85.8672C34.6999 85.7826 34.5315 85.6979 34.3631 85.6133C32.679 83.7513 31.4581 82.7145 30.7002 82.5029C29.9424 82.2913 29.5214 82.1855 29.4372 82.1855C29.2688 82.2702 29.1425 82.3971 29.0583 82.5664C28.9741 82.7357 28.932 82.8626 28.932 82.9473C28.932 83.1165 28.9109 83.2435 28.8688 83.3281C28.8267 83.4128 28.7636 83.4974 28.6794 83.582L28.553 83.709C28.3846 83.8783 28.1952 84.0052 27.9847 84.0898C27.7742 84.1745 27.5426 84.2168 27.29 84.2168L21.8588 82.9473L21.101 83.709C20.8484 84.0475 20.3853 84.2591 19.7116 84.3438C19.038 84.4284 18.2381 84.4707 17.3118 84.4707C16.975 84.4707 16.6803 84.3649 16.4277 84.1533C16.1751 83.9417 16.0488 83.6667 16.0488 83.3281C15.7962 75.1185 16.9329 68.0938 19.459 62.2539C21.9851 56.4141 23.3324 53.3672 23.5008 53.1133C23.585 53.1133 23.6271 53.0921 23.6271 53.0498C23.6271 53.0075 23.6692 52.944 23.7534 52.8594C23.8376 52.7747 23.985 52.6901 24.1955 52.6055C24.406 52.5208 24.5955 52.4785 24.7639 52.4785C25.8585 52.6478 26.9111 52.7324 27.9215 52.7324C28.932 52.7324 29.8582 52.7324 30.7002 52.7324C32.0475 52.6478 33.058 52.4997 33.7316 52.2881C34.4052 52.0765 34.8262 51.9284 34.9946 51.8438C35.2473 51.7591 35.5209 51.738 35.8156 51.7803C36.1103 51.8226 36.3419 51.9284 36.5103 52.0977C36.6787 52.2669 36.784 52.4997 36.8261 52.7959C36.8682 53.0921 36.8471 53.3249 36.7629 53.4941C36.3419 54.3405 36.0682 55.1022 35.9419 55.7793C35.8156 56.4564 35.8367 56.9219 36.0051 57.1758C36.1735 57.4297 36.5945 57.5778 37.2681 57.6201C37.9418 57.6624 38.9101 57.5566 40.1732 57.3027C40.4258 57.1335 41.5204 56.6045 43.4571 55.7158C45.3938 54.8271 46.8674 53.7057 47.8778 52.3516C47.962 52.3516 48.0252 52.3092 48.0673 52.2246C48.1094 52.14 48.1725 52.0977 48.2568 52.0977C48.341 52.0977 48.9093 51.8438 49.9619 51.3359C51.0144 50.8281 52.3827 50.4896 54.0668 50.3203C55.6667 50.151 57.5402 50.2992 59.6874 50.7646C61.8346 51.2301 63.9608 52.5208 66.0659 54.6367C66.4869 54.8906 68.0026 55.9486 70.6129 57.8105C73.2232 59.5879 76.1703 61.6191 79.4543 63.9043C82.7382 66.1895 85.9801 68.4323 89.1798 70.6328C92.4638 72.918 94.9057 74.653 96.5056 75.8379C96.5056 75.9225 96.5266 75.986 96.5687 76.0283C96.6108 76.0706 96.674 76.1341 96.7582 76.2188L97.7686 77.4883C97.7686 77.4883 97.7897 77.5094 97.8318 77.5518C97.8739 77.5941 97.8949 77.6576 97.8949 77.7422C98.3159 78.6732 98.5896 79.4984 98.7159 80.2178C98.8422 80.9372 98.8212 81.6354 98.6528 82.3125C98.4002 83.4974 97.6844 84.3861 96.5056 84.9785C95.3267 85.571 93.811 85.8249 91.9586 85.7402C92.0428 86.248 92.0849 86.7347 92.0849 87.2002C92.0849 87.6657 92.0428 88.0677 91.9586 88.4062C91.7059 90.099 91.0534 91.4108 90.0008 92.3418C88.9483 93.2728 87.6221 93.7806 86.0222 93.8652C85.938 94.2884 85.8327 94.6904 85.7064 95.0713C85.5801 95.4521 85.4328 95.7695 85.2644 96.0234C84.9275 96.8698 84.4223 97.5469 83.7487 98.0547C83.0751 98.5625 82.2751 98.901 81.3489 99.0703C80.6752 99.2396 80.0227 99.3454 79.3911 99.3877C78.7596 99.43 78.1912 99.4089 77.686 99.3242C77.6018 99.832 77.286 100.361 76.7387 100.911C76.1914 101.461 75.3283 101.99 74.1494 102.498C73.2232 102.921 72.3812 103.217 71.6233 103.387C70.8655 103.556 70.1919 103.641 69.6024 103.641ZM67.4552 100.721C67.4552 100.721 67.4763 100.721 67.5184 100.721C67.5605 100.721 67.6236 100.763 67.7078 100.848C68.0447 100.932 68.6762 101.017 69.6024 101.102C70.5287 101.186 71.6654 100.932 73.0127 100.34C73.8547 99.9167 74.4231 99.5781 74.7178 99.3242C75.0125 99.0703 75.1599 98.901 75.1599 98.8164C75.2441 98.8164 75.2862 98.7952 75.2862 98.7529C75.2862 98.7106 75.2862 98.6048 75.2862 98.4355C75.202 98.3509 75.1599 98.224 75.1599 98.0547C75.1599 97.8854 75.202 97.7161 75.2862 97.5469C75.3704 97.3776 75.4546 97.2083 75.5388 97.0391C75.623 96.8698 75.7493 96.7428 75.9177 96.6582C76.2545 96.5736 76.5282 96.5524 76.7387 96.5947C76.9492 96.637 77.1387 96.7005 77.3071 96.7852C77.3071 96.7852 77.3492 96.8063 77.4334 96.8486C77.5176 96.891 77.6018 96.9121 77.686 96.9121C78.107 96.9967 78.5701 97.0179 79.0754 96.9756C79.5806 96.9333 80.17 96.8698 80.8437 96.7852C81.3489 96.7005 81.7699 96.5101 82.1067 96.2139C82.4435 95.9176 82.7382 95.5579 82.9908 95.1348C83.1593 94.7116 83.2856 94.3096 83.3698 93.9287C83.454 93.5479 83.454 93.2728 83.3698 93.1035C83.3698 92.9342 83.3698 92.765 83.3698 92.5957C83.3698 92.4264 83.4119 92.2572 83.4961 92.0879C83.5803 91.834 83.7697 91.6436 84.0644 91.5166C84.3592 91.3896 84.6328 91.3262 84.8854 91.3262C84.8854 91.3262 84.9275 91.3473 85.0117 91.3896C85.0959 91.432 85.2223 91.4531 85.3907 91.4531C86.2327 91.4531 87.0747 91.2415 87.9168 90.8184C88.7588 90.3952 89.264 89.5065 89.4324 88.1523C89.5166 87.7292 89.5377 87.2002 89.4956 86.5654C89.4535 85.9307 89.3482 85.2747 89.1798 84.5977C89.0956 84.3438 89.0746 84.1322 89.1167 83.9629C89.1588 83.7936 89.264 83.6243 89.4324 83.4551C89.6009 83.2858 89.7903 83.18 90.0008 83.1377C90.2113 83.0954 90.4008 83.0742 90.5692 83.0742C90.5692 83.0742 90.6745 83.0954 90.885 83.1377C91.0955 83.18 91.3691 83.2012 91.7059 83.2012C92.127 83.2858 92.9269 83.2858 94.1058 83.2012C95.2846 83.1165 96.0003 82.651 96.253 81.8047C96.253 81.6354 96.2319 81.318 96.1898 80.8525C96.1477 80.387 95.9582 79.7734 95.6214 79.0117L94.8636 77.8691C93.0953 76.5996 90.5692 74.8223 87.2852 72.5371C83.9171 70.1673 80.5489 67.8187 77.1808 65.4912C73.8126 63.1637 70.8655 61.1536 68.3394 59.4609C65.8133 57.6836 64.5502 56.7949 64.5502 56.7949C64.466 56.7949 64.4239 56.7738 64.4239 56.7314C64.4239 56.6891 64.3818 56.668 64.2976 56.668C61.182 53.5365 58.1297 52.2669 55.1404 52.8594C52.1512 53.4518 50.3197 53.9173 49.6461 54.2559C48.2989 55.8639 46.5516 57.1546 44.4044 58.1279C42.2572 59.1012 41.0994 59.6302 40.931 59.7148C40.931 59.7148 40.91 59.7148 40.8679 59.7148C40.8258 59.7148 40.8047 59.7148 40.8047 59.7148C39.1206 60.2227 37.7102 60.3919 36.5735 60.2227C35.4367 60.0534 34.6157 59.5879 34.1105 58.8262C33.6895 58.3184 33.4369 57.7259 33.3527 57.0488C33.2685 56.3717 33.3106 55.6947 33.479 55.0176C33.1422 55.1022 32.7422 55.1657 32.2791 55.208C31.8159 55.2503 31.3318 55.2715 30.8266 55.2715C29.9845 55.3561 29.1214 55.3773 28.2373 55.335C27.3531 55.2926 26.4058 55.2292 25.3954 55.1445C24.6376 56.5833 23.2903 59.7995 21.3536 64.793C19.4169 69.7865 18.4907 75.4993 18.5749 81.9316C18.7433 81.9316 18.9117 81.9316 19.0801 81.9316C19.2485 81.9316 19.3327 81.9316 19.3327 81.9316L20.5958 80.7891C20.68 80.6198 20.8273 80.4928 21.0379 80.4082C21.2484 80.3236 21.4799 80.3236 21.7325 80.4082L26.7848 81.5508C27.0374 81.2122 27.311 80.8737 27.6058 80.5352C27.9005 80.1966 28.3004 79.985 28.8057 79.9004C29.6477 79.6465 30.5739 79.7523 31.5844 80.2178C32.5948 80.6833 33.7316 81.5085 34.9946 82.6934C35.0788 82.5241 35.1841 82.3337 35.3104 82.1221C35.4367 81.9105 35.5841 81.7201 35.7525 81.5508C36.4261 80.6198 37.1629 79.9004 37.9628 79.3926C38.7628 78.8848 39.5838 78.5885 40.4258 78.5039C41.4362 78.4193 42.4046 78.6732 43.3308 79.2656C44.2571 79.8581 45.1412 80.7467 45.9832 81.9316C45.9832 81.847 46.0253 81.7835 46.1096 81.7412C46.1938 81.6989 46.2359 81.6354 46.2359 81.5508C46.9095 80.6198 47.6042 79.9216 48.3199 79.4561C49.0356 78.9906 49.7724 78.8001 50.5303 78.8848C51.5407 78.9694 52.4248 79.4772 53.1827 80.4082C53.9405 81.3392 54.6562 82.7357 55.3299 84.5977C55.5825 84.4284 55.8351 84.3014 56.0877 84.2168C56.3403 84.1322 56.5929 84.0898 56.8455 84.0898C56.8455 84.0898 56.8876 84.0898 56.9719 84.0898C58.2349 84.0898 59.2875 84.9362 60.1295 86.6289C60.9715 88.3216 61.6031 90.9453 62.0241 94.5C62.0241 94.5846 62.0451 94.7327 62.0872 94.9443C62.1293 95.1559 62.1504 95.431 62.1504 95.7695C62.2346 96.8698 62.5925 97.8643 63.224 98.7529C63.8555 99.6416 64.6765 100.213 65.687 100.467C65.9396 100.551 66.129 100.594 66.2553 100.594C66.3816 100.594 66.4869 100.594 66.5711 100.594C66.7395 100.594 66.8869 100.594 67.0132 100.594C67.1395 100.594 67.2868 100.636 67.4552 100.721ZM113.936 97.293C113.767 97.293 113.599 97.2507 113.431 97.166C113.262 97.0814 113.094 96.9967 112.925 96.9121C112.42 96.3197 111.915 95.5156 111.41 94.5C110.904 93.4844 110.399 92.2572 109.894 90.8184C109.136 88.5332 108.526 86.3538 108.063 84.2803C107.599 82.2067 107.368 81.1276 107.368 81.043C107.368 80.8737 107.389 80.6833 107.431 80.4717C107.473 80.2601 107.536 80.0697 107.62 79.9004C107.789 79.8158 107.957 79.7311 108.126 79.6465C108.294 79.5618 108.463 79.5195 108.631 79.5195L114.188 79.6465C114.357 79.6465 114.504 79.6888 114.63 79.7734C114.757 79.8581 114.862 79.9427 114.946 80.0273C115.115 80.112 115.22 80.2389 115.262 80.4082C115.304 80.5775 115.325 80.7044 115.325 80.7891C115.746 83.7513 116.02 86.3962 116.146 88.7236C116.272 91.0511 116.209 93.1035 115.957 94.8809C115.957 94.9655 115.936 95.0501 115.894 95.1348C115.851 95.2194 115.83 95.304 115.83 95.3887L114.946 96.7852C114.778 96.9544 114.609 97.0814 114.441 97.166C114.273 97.2507 114.104 97.293 113.936 97.293ZM110.147 82.0586C110.399 82.9896 110.715 84.1745 111.094 85.6133C111.473 87.0521 111.873 88.4909 112.294 89.9297C112.546 90.6914 112.778 91.3262 112.988 91.834C113.199 92.3418 113.431 92.8073 113.683 93.2305C113.767 91.7917 113.746 90.1413 113.62 88.2793C113.494 86.4173 113.304 84.3861 113.052 82.1855L110.147 82.0586ZM105.221 81.9316C105.136 81.9316 105.094 81.9316 105.094 81.9316L99.6632 81.6777C99.4948 81.5931 99.3475 81.5296 99.2211 81.4873C99.0948 81.445 98.9896 81.3815 98.9054 81.2969L94.8636 77.9961C93.2637 76.7266 90.7797 74.9069 87.4116 72.5371C84.0434 70.252 80.6752 67.9245 77.3071 65.5547C73.9389 63.1849 70.9918 61.1536 68.4657 59.4609C65.8554 57.6836 64.5502 56.7949 64.5502 56.7949C64.466 56.7949 64.4239 56.7738 64.4239 56.7314C64.4239 56.6891 64.3818 56.668 64.2976 56.668C61.182 53.5365 58.1297 52.2669 55.1404 52.8594C52.1512 53.4518 50.3197 53.9173 49.6461 54.2559C48.2989 55.8639 46.5516 57.1546 44.4044 58.1279C42.2572 59.1012 41.0994 59.6302 40.931 59.7148C40.931 59.7148 40.91 59.7148 40.8679 59.7148C40.8258 59.7148 40.8047 59.7148 40.8047 59.7148C39.1206 60.2227 37.7102 60.3919 36.5735 60.2227C35.4367 60.0534 34.6157 59.5879 34.1105 58.8262C33.4369 58.0645 33.1632 57.1758 33.2895 56.1602C33.4158 55.1445 33.6895 54.2135 34.1105 53.3672C34.0263 52.944 34.1316 52.6055 34.4263 52.3516C34.721 52.0977 34.9525 51.8861 35.1209 51.7168C35.2052 51.7168 35.2683 51.6956 35.3104 51.6533C35.3525 51.611 35.3736 51.5475 35.3736 51.4629C35.7946 50.8704 36.363 50.151 37.0787 49.3047C37.7944 48.4583 38.2365 47.9082 38.4049 47.6543C40.4258 44.6074 43.1624 42.3223 46.6148 40.7988C50.0671 39.2754 52.0038 38.429 52.4248 38.2598C52.9301 38.0905 53.3721 37.9001 53.7511 37.6885C54.13 37.4769 54.4878 37.3288 54.8247 37.2441C56.3403 36.4824 57.6034 36.1016 58.6138 36.1016C59.6243 36.1016 61.6873 36.5247 64.8028 37.3711C66.0659 37.7096 67.0974 37.9635 67.8973 38.1328C68.6972 38.3021 69.3498 38.429 69.855 38.5137C70.9497 38.7676 71.9601 39.0426 72.8864 39.3389C73.8126 39.6351 75.5809 40.4603 78.1912 41.8145C81.7278 43.6764 85.1801 44.417 88.5483 44.0361C91.9165 43.6553 93.6426 43.4648 93.7268 43.4648C93.9795 43.3802 94.211 43.3802 94.4215 43.4648C94.632 43.5495 94.8215 43.7188 94.9899 43.9727C95.0741 44.0573 95.7056 44.9883 96.8845 46.7656C97.9791 48.543 99.2001 51.0186 100.547 54.1924C101.895 57.3662 103.158 61.1536 104.337 65.5547C105.515 70.0404 106.231 75.0339 106.484 80.5352C106.484 80.7044 106.463 80.8737 106.421 81.043C106.378 81.2122 106.273 81.3815 106.105 81.5508C105.936 81.6354 105.789 81.7201 105.663 81.8047C105.536 81.8893 105.389 81.9316 105.221 81.9316ZM100.168 79.1387L103.831 79.2656C103.242 70.2943 101.579 62.8675 98.8422 56.9854C96.1056 51.1032 94.2742 47.4427 93.3479 46.0039C92.1691 46.2578 89.9798 46.4271 86.78 46.5117C83.5803 46.5964 80.2963 45.75 76.9282 43.9727C74.4863 42.7031 72.8653 41.9414 72.0654 41.6875C71.2655 41.4336 70.3603 41.1797 69.3498 40.9258C68.7604 40.8411 68.0657 40.7142 67.2658 40.5449C66.4658 40.3756 65.3922 40.1217 64.045 39.7832C61.4347 39.0215 59.7506 38.6195 58.9927 38.5771C58.2349 38.5348 57.1824 38.8099 55.8351 39.4023C55.4983 39.5716 55.1194 39.762 54.6983 39.9736C54.2773 40.1852 53.8142 40.3756 53.309 40.5449C53.309 40.6296 53.2879 40.6719 53.2458 40.6719C53.2037 40.6719 53.1827 40.6719 53.1827 40.6719C53.0985 40.6719 51.3933 41.3913 48.0673 42.8301C44.7412 44.2689 42.1941 46.3424 40.4258 49.0508C40.4258 49.0508 40.4258 49.0931 40.4258 49.1777C40.089 49.5163 39.5627 50.1299 38.847 51.0186C38.1312 51.9072 37.6471 52.6055 37.3945 53.1133C37.3102 53.1133 37.2471 53.1556 37.205 53.2402C37.1629 53.3249 37.0997 53.4095 37.0155 53.4941C36.9313 53.4941 36.8682 53.5153 36.8261 53.5576C36.784 53.5999 36.7208 53.6634 36.6366 53.748C36.2998 54.5098 36.0682 55.2292 35.9419 55.9062C35.8156 56.5833 35.8367 57.0488 36.0051 57.3027C36.1735 57.472 36.5945 57.599 37.2681 57.6836C37.9418 57.7682 38.868 57.6413 40.0469 57.3027C40.3837 57.1335 41.5204 56.6045 43.4571 55.7158C45.3938 54.8271 46.8674 53.748 47.8778 52.4785C47.962 52.3939 48.0252 52.3304 48.0673 52.2881C48.1094 52.2458 48.1725 52.1823 48.2568 52.0977C48.2568 52.0977 48.8041 51.8438 49.8987 51.3359C50.9934 50.8281 52.3827 50.4896 54.0668 50.3203C55.6667 50.151 57.5402 50.3203 59.6874 50.8281C61.8346 51.3359 63.9608 52.6055 66.0659 54.6367C66.4869 54.9753 68.0026 56.0332 70.6129 57.8105C73.2232 59.5879 76.1703 61.6191 79.4543 63.9043C82.7382 66.1895 85.9801 68.4746 89.1798 70.7598C92.3796 72.9603 94.8215 74.6953 96.5056 75.9648L100.168 79.1387ZM113.936 97.293C113.683 97.293 113.473 97.2507 113.304 97.166C113.136 97.0814 113.01 96.9544 112.925 96.7852C112.757 96.6159 112.673 96.4043 112.673 96.1504C112.673 95.8965 112.715 95.6426 112.799 95.3887L113.557 94.2461C113.978 90.4375 113.683 85.6556 112.673 79.9004C111.662 74.1452 110.441 68.5804 109.01 63.2061C107.578 57.8317 106.189 53.1979 104.842 49.3047C103.579 45.4115 102.947 43.4225 102.947 43.3379C102.947 43.3379 102.926 43.2956 102.884 43.2109C102.842 43.1263 102.821 43.0417 102.821 42.957V42.0684C102.821 41.7298 102.947 41.4336 103.2 41.1797C103.452 40.9258 103.747 40.7988 104.084 40.7988H114.694C114.946 40.7988 115.178 40.8835 115.388 41.0527C115.599 41.222 115.746 41.4336 115.83 41.6875C118.02 49.3047 119.872 56.2025 121.388 62.3809C122.903 68.6439 124.124 73.9759 125.051 78.377C125.977 82.778 126.651 86.1634 127.072 88.5332C127.493 90.9876 127.703 92.2572 127.703 92.3418C127.787 92.5957 127.745 92.8708 127.577 93.167C127.408 93.4632 127.156 93.6536 126.819 93.7383L114.188 97.293C114.188 97.293 114.146 97.293 114.062 97.293C113.978 97.293 113.936 97.293 113.936 97.293ZM105.6 43.3379C106.021 44.6921 106.905 47.4004 108.252 51.4629C109.515 55.5254 110.799 60.0745 112.104 65.1104C113.409 70.1462 114.483 75.2878 115.325 80.5352C116.251 85.7826 116.504 90.3105 116.083 94.1191L125.051 91.5801C124.882 90.4798 124.545 88.5332 124.04 85.7402C123.451 83.0319 122.714 79.6042 121.83 75.457C120.946 71.3099 119.83 66.528 118.483 61.1113C117.136 55.6947 115.536 49.7702 113.683 43.3379H105.6ZM114.062 82.1855L108.631 82.0586C108.631 82.0586 108.589 82.0586 108.505 82.0586L105.094 81.9316C104.758 81.847 104.484 81.6989 104.273 81.4873C104.063 81.2757 103.958 81.0007 103.958 80.6621C103.705 75.3301 102.989 70.4635 101.81 66.0625C100.632 61.7461 99.3895 58.0645 98.0844 55.0176C96.7792 51.9707 95.5793 49.6009 94.4847 47.9082C93.4742 46.2155 92.969 45.3691 92.969 45.3691C92.8006 45.1999 92.6953 45.0094 92.6532 44.7979C92.6111 44.5863 92.6322 44.3535 92.7164 44.0996C92.8006 43.9303 92.9269 43.7611 93.0953 43.5918C93.2637 43.4225 93.4742 43.3379 93.7268 43.3379L103.958 41.6875C104.21 41.6029 104.463 41.6452 104.715 41.8145C104.968 41.9837 105.179 42.1953 105.347 42.4492C105.347 42.5339 105.726 43.7611 106.484 46.1309C107.326 48.5853 108.294 51.6745 109.389 55.3984C110.483 59.1224 111.578 63.2272 112.673 67.7129C113.852 72.1986 114.736 76.515 115.325 80.6621C115.325 80.916 115.304 81.1276 115.262 81.2969C115.22 81.4661 115.157 81.6354 115.073 81.8047C114.904 81.8893 114.757 81.974 114.63 82.0586C114.504 82.1432 114.315 82.1855 114.062 82.1855ZM108.631 79.5195L112.673 79.6465C112.083 76.0918 111.325 72.4525 110.399 68.7285C109.473 65.0046 108.547 61.5133 107.62 58.2549C106.694 54.9964 105.81 52.14 104.968 49.6855C104.21 47.2311 103.663 45.4538 103.326 44.3535L96.1266 45.623C97.3897 47.7389 99.2843 51.7168 101.81 57.5566C104.337 63.3965 105.852 70.6751 106.357 79.3926L108.631 79.5195ZM108.631 82.0586C108.631 82.0586 108.589 82.0586 108.505 82.0586L105.094 81.9316C104.758 81.9316 104.484 81.8047 104.273 81.5508C104.063 81.2969 103.958 81.0007 103.958 80.6621C103.958 80.4928 103.979 80.3236 104.021 80.1543C104.063 79.985 104.168 79.8158 104.337 79.6465C104.421 79.5618 104.547 79.4984 104.715 79.4561C104.884 79.4137 105.052 79.3926 105.221 79.3926L108.631 79.5195C108.968 79.5195 109.262 79.6465 109.515 79.9004C109.768 80.1543 109.894 80.4505 109.894 80.7891C109.894 81.1276 109.768 81.4238 109.515 81.6777C109.262 81.9316 108.968 82.0586 108.631 82.0586ZM64.045 126.238C63.624 126.238 63.3082 126.111 63.0977 125.857C62.8872 125.604 62.7819 125.307 62.7819 124.969C62.7819 124.63 62.8872 124.334 63.0977 124.08C63.3082 123.826 63.624 123.699 64.045 123.699C64.3818 123.699 64.7607 123.699 65.1817 123.699C65.6027 123.699 66.0238 123.657 66.4448 123.572C66.7816 123.572 67.0763 123.699 67.3289 123.953C67.5815 124.207 67.7499 124.503 67.8342 124.842C67.8342 125.18 67.7078 125.477 67.4552 125.73C67.2026 125.984 66.9079 126.111 66.5711 126.111C66.1501 126.196 65.7291 126.238 65.308 126.238C64.887 126.238 64.466 126.238 64.045 126.238ZM58.9927 125.984C58.9927 125.984 58.9717 125.984 58.9296 125.984C58.8875 125.984 58.8664 125.984 58.8664 125.984C58.4454 125.984 58.0244 125.963 57.6034 125.921C57.1824 125.879 56.7192 125.815 56.214 125.73C55.8772 125.646 55.6035 125.477 55.393 125.223C55.1825 124.969 55.1194 124.673 55.2036 124.334C55.2036 123.995 55.3509 123.72 55.6456 123.509C55.9404 123.297 56.2561 123.191 56.5929 123.191C57.014 123.276 57.435 123.34 57.856 123.382C58.277 123.424 58.6559 123.445 58.9927 123.445C59.4138 123.53 59.7295 123.699 59.94 123.953C60.1505 124.207 60.2137 124.503 60.1295 124.842C60.1295 125.18 60.0242 125.455 59.8137 125.667C59.6032 125.879 59.3296 125.984 58.9927 125.984ZM71.497 125.73C71.2444 125.73 70.9918 125.625 70.7392 125.413C70.4866 125.201 70.3603 124.926 70.3603 124.588C70.2761 124.249 70.3392 123.932 70.5497 123.636C70.7602 123.34 71.0339 123.191 71.3707 123.191C71.7917 123.107 72.2128 123.022 72.6338 122.938C73.0548 122.853 73.4337 122.768 73.7705 122.684C74.1073 122.684 74.4231 122.768 74.7178 122.938C75.0125 123.107 75.202 123.361 75.2862 123.699C75.3704 124.038 75.3072 124.355 75.0967 124.651C74.8862 124.948 74.6126 125.138 74.2757 125.223C73.8547 125.307 73.4337 125.392 73.0127 125.477C72.5917 125.561 72.1706 125.646 71.7496 125.73C71.7496 125.73 71.7286 125.73 71.6865 125.73C71.6444 125.73 71.5812 125.73 71.497 125.73ZM51.5407 124.842C51.4565 124.842 51.3933 124.842 51.3512 124.842C51.3091 124.842 51.246 124.799 51.1618 124.715C50.7408 124.63 50.3197 124.546 49.8987 124.461C49.4777 124.376 49.0567 124.249 48.6357 124.08C48.2989 123.995 48.0462 123.805 47.8778 123.509C47.7094 123.213 47.7094 122.895 47.8778 122.557C47.962 122.218 48.1515 121.964 48.4462 121.795C48.7409 121.626 49.0567 121.583 49.3935 121.668C49.8145 121.753 50.2145 121.858 50.5934 121.985C50.9723 122.112 51.3723 122.218 51.7933 122.303C52.1301 122.387 52.3827 122.578 52.5511 122.874C52.7196 123.17 52.7617 123.488 52.6775 123.826C52.5933 124.08 52.4459 124.313 52.2354 124.524C52.0249 124.736 51.7933 124.842 51.5407 124.842ZM78.9491 124.08C78.6964 124.08 78.4438 123.995 78.1912 123.826C77.9386 123.657 77.7702 123.445 77.686 123.191C77.6018 122.853 77.6439 122.535 77.8123 122.239C77.9807 121.943 78.2333 121.71 78.5701 121.541C78.9912 121.456 79.3911 121.351 79.7701 121.224C80.149 121.097 80.5489 120.949 80.97 120.779C81.3068 120.695 81.6225 120.737 81.9173 120.906C82.212 121.076 82.4435 121.329 82.6119 121.668C82.6961 122.007 82.654 122.324 82.4856 122.62C82.3172 122.916 82.0646 123.107 81.7278 123.191C81.391 123.361 81.0121 123.509 80.591 123.636C80.17 123.763 79.749 123.911 79.328 124.08C79.2438 124.08 79.1806 124.08 79.1385 124.08C79.0964 124.08 79.0333 124.08 78.9491 124.08ZM44.215 122.43C44.215 122.43 44.1729 122.43 44.0887 122.43C44.0045 122.43 43.9203 122.43 43.836 122.43C43.415 122.26 43.0151 122.091 42.6361 121.922C42.2572 121.753 41.8573 121.583 41.4362 121.414C41.0994 121.245 40.8679 120.991 40.7416 120.652C40.6152 120.314 40.6363 119.975 40.8047 119.637C40.9731 119.383 41.2047 119.192 41.4994 119.065C41.7941 118.938 42.1099 118.917 42.4467 119.002C42.8677 119.171 43.2677 119.34 43.6466 119.51C44.0255 119.679 44.3834 119.848 44.7202 120.018C45.057 120.102 45.2886 120.314 45.4149 120.652C45.5412 120.991 45.5622 121.329 45.478 121.668C45.3938 121.922 45.2254 122.112 44.9728 122.239C44.7202 122.366 44.4676 122.43 44.215 122.43ZM86.0222 121.414C85.8538 121.414 85.6643 121.351 85.4538 121.224C85.2433 121.097 85.0538 120.906 84.8854 120.652C84.8012 120.314 84.8012 119.996 84.8854 119.7C84.9696 119.404 85.1801 119.171 85.517 119.002C85.938 118.833 86.3169 118.663 86.6537 118.494C86.9905 118.325 87.3694 118.113 87.7905 117.859C88.1273 117.69 88.443 117.669 88.7378 117.796C89.0325 117.923 89.264 118.156 89.4324 118.494C89.6009 118.833 89.643 119.15 89.5587 119.446C89.4745 119.743 89.264 119.975 88.9272 120.145C88.5062 120.398 88.1062 120.61 87.7273 120.779C87.3484 120.949 86.9484 121.118 86.5274 121.287C86.5274 121.372 86.4643 121.414 86.338 121.414C86.2116 121.414 86.1064 121.414 86.0222 121.414ZM37.3945 119.256C37.3102 119.256 37.226 119.235 37.1418 119.192C37.0576 119.15 36.9313 119.087 36.7629 119.002C36.4261 118.833 36.0682 118.621 35.6893 118.367C35.3104 118.113 34.9525 117.902 34.6157 117.732C34.2789 117.479 34.0895 117.182 34.0473 116.844C34.0052 116.505 34.0684 116.209 34.2368 115.955C34.4052 115.617 34.6578 115.426 34.9946 115.384C35.3315 115.341 35.6683 115.405 36.0051 115.574C36.3419 115.743 36.6787 115.934 37.0155 116.146C37.3524 116.357 37.6892 116.59 38.026 116.844C38.3628 117.013 38.5733 117.267 38.6575 117.605C38.7417 117.944 38.6996 118.24 38.5312 118.494C38.447 118.748 38.2996 118.938 38.0891 119.065C37.8786 119.192 37.6471 119.256 37.3945 119.256ZM92.7164 117.732C92.548 117.732 92.3585 117.69 92.148 117.605C91.9375 117.521 91.7902 117.394 91.7059 117.225C91.4533 116.886 91.3691 116.548 91.4533 116.209C91.5375 115.87 91.748 115.617 92.0849 115.447C92.4217 115.193 92.7585 114.961 93.0953 114.749C93.4321 114.537 93.7689 114.305 94.1058 114.051C94.3584 113.882 94.6531 113.818 94.9899 113.86C95.3267 113.903 95.6214 114.051 95.874 114.305C96.0424 114.643 96.1056 114.982 96.0635 115.32C96.0214 115.659 95.8319 115.913 95.4951 116.082C95.1583 116.336 94.8215 116.59 94.4847 116.844C94.1479 117.098 93.7689 117.352 93.3479 117.605C93.2637 117.69 93.1585 117.732 93.0322 117.732C92.9059 117.732 92.8006 117.732 92.7164 117.732ZM31.2055 114.939C31.0371 114.939 30.8897 114.918 30.7634 114.876C30.6371 114.834 30.4897 114.77 30.3213 114.686C29.9845 114.432 29.6477 114.157 29.3109 113.86C28.9741 113.564 28.6794 113.289 28.4267 113.035C28.0899 112.781 27.9215 112.485 27.9215 112.146C27.9215 111.808 28.0057 111.512 28.1741 111.258C28.4267 111.004 28.7215 110.856 29.0583 110.813C29.3951 110.771 29.6898 110.877 29.9424 111.131C30.2792 111.385 30.616 111.639 30.9529 111.893C31.2897 112.146 31.6265 112.4 31.9633 112.654C32.2159 112.908 32.3633 113.204 32.4054 113.543C32.4475 113.882 32.3422 114.178 32.0896 114.432C32.0054 114.601 31.8791 114.728 31.7107 114.812C31.5423 114.897 31.3739 114.939 31.2055 114.939ZM98.7791 113.289C98.6107 113.289 98.4423 113.247 98.2738 113.162C98.1054 113.077 97.937 112.951 97.7686 112.781C97.6002 112.527 97.516 112.231 97.516 111.893C97.516 111.554 97.6423 111.258 97.8949 111.004C98.2318 110.75 98.5475 110.475 98.8422 110.179C99.1369 109.882 99.4527 109.607 99.7895 109.354C100.042 109.1 100.337 108.973 100.674 108.973C101.01 108.973 101.305 109.1 101.558 109.354C101.81 109.607 101.937 109.925 101.937 110.306C101.937 110.687 101.81 110.962 101.558 111.131C101.221 111.469 100.884 111.787 100.547 112.083C100.211 112.379 99.8737 112.654 99.5369 112.908C99.4527 112.993 99.3475 113.077 99.2211 113.162C99.0948 113.247 98.9475 113.289 98.7791 113.289ZM25.5217 109.861C25.3533 109.861 25.1849 109.84 25.0165 109.798C24.8481 109.756 24.7218 109.65 24.6376 109.48C24.3008 109.227 23.985 108.93 23.6903 108.592C23.3956 108.253 23.1219 107.915 22.8693 107.576C22.6167 107.322 22.5114 107.026 22.5535 106.688C22.5956 106.349 22.743 106.053 22.9956 105.799C23.2482 105.545 23.5429 105.439 23.8797 105.481C24.2165 105.524 24.5113 105.672 24.7639 105.926C25.0165 106.18 25.2901 106.476 25.5849 106.814C25.8796 107.153 26.1532 107.449 26.4058 107.703C26.6585 107.957 26.7848 108.253 26.7848 108.592C26.7848 108.93 26.6585 109.227 26.4058 109.48C26.3216 109.65 26.1953 109.756 26.0269 109.798C25.8585 109.84 25.6901 109.861 25.5217 109.861ZM104.21 107.83C104.042 107.83 103.894 107.809 103.768 107.767C103.642 107.724 103.494 107.661 103.326 107.576C103.073 107.322 102.926 107.026 102.884 106.688C102.842 106.349 102.947 106.053 103.2 105.799C103.452 105.46 103.705 105.122 103.958 104.783C104.21 104.445 104.463 104.148 104.715 103.895C104.968 103.556 105.263 103.366 105.6 103.323C105.936 103.281 106.231 103.387 106.484 103.641C106.821 103.895 107.01 104.191 107.052 104.529C107.094 104.868 106.989 105.164 106.736 105.418C106.484 105.757 106.21 106.095 105.915 106.434C105.621 106.772 105.347 107.111 105.094 107.449C105.01 107.534 104.884 107.618 104.715 107.703C104.547 107.788 104.379 107.83 104.21 107.83ZM20.5958 104.021C20.4274 104.021 20.259 103.979 20.0906 103.895C19.9221 103.81 19.7537 103.683 19.5853 103.514C19.3327 103.175 19.1012 102.837 18.8907 102.498C18.6801 102.16 18.4486 101.779 18.196 101.355C18.0276 101.102 17.9644 100.805 18.0065 100.467C18.0486 100.128 18.2381 99.8743 18.5749 99.7051C18.8275 99.4512 19.1222 99.3665 19.459 99.4512C19.7958 99.5358 20.0485 99.7051 20.2169 99.959C20.4695 100.298 20.7221 100.636 20.9747 100.975C21.2273 101.313 21.4799 101.652 21.7325 101.99C21.9009 102.329 21.9641 102.667 21.922 103.006C21.8799 103.344 21.6904 103.598 21.3536 103.768C21.2694 103.852 21.1642 103.916 21.0379 103.958C20.9115 104 20.7642 104.021 20.5958 104.021ZM108.757 101.736C108.589 101.736 108.463 101.736 108.378 101.736C108.294 101.736 108.168 101.694 107.999 101.609C107.747 101.44 107.578 101.165 107.494 100.784C107.41 100.403 107.452 100.086 107.62 99.832C107.873 99.4935 108.105 99.1549 108.315 98.8164C108.526 98.4779 108.757 98.097 109.01 97.6738C109.178 97.4199 109.431 97.2507 109.768 97.166C110.104 97.0814 110.399 97.1237 110.652 97.293C110.989 97.4622 111.199 97.7161 111.283 98.0547C111.368 98.3932 111.325 98.6895 111.157 98.9434C110.904 99.3665 110.673 99.7686 110.462 100.149C110.252 100.53 110.02 100.89 109.768 101.229C109.683 101.398 109.536 101.525 109.326 101.609C109.115 101.694 108.926 101.736 108.757 101.736ZM16.6803 97.5469C16.4277 97.5469 16.1961 97.5046 15.9856 97.4199C15.7751 97.3353 15.6278 97.166 15.5435 96.9121C15.3751 96.5736 15.1857 96.1927 14.9752 95.7695C14.7647 95.3464 14.5752 94.9655 14.4068 94.627C14.2384 94.2884 14.2173 93.9499 14.3436 93.6113C14.4699 93.2728 14.7015 93.0189 15.0383 92.8496C15.2909 92.765 15.5857 92.765 15.9225 92.8496C16.2593 92.9342 16.5119 93.1458 16.6803 93.4844C16.8487 93.9076 17.0171 94.2884 17.1855 94.627C17.3539 94.9655 17.5644 95.3464 17.8171 95.7695C17.9855 96.0234 18.0065 96.3197 17.8802 96.6582C17.7539 96.9967 17.5223 97.2507 17.1855 97.4199C17.1013 97.5046 17.0171 97.5469 16.9329 97.5469C16.8487 97.5469 16.7645 97.5469 16.6803 97.5469ZM12.7648 52.2246C12.6806 52.2246 12.5964 52.2246 12.5122 52.2246C12.428 52.2246 12.3859 52.2246 12.3859 52.2246C12.0491 52.0553 11.7965 51.8226 11.6281 51.5264C11.4597 51.2301 11.4597 50.9128 11.6281 50.5742C11.7123 50.4049 11.7754 50.2145 11.8175 50.0029C11.8596 49.7913 11.9228 49.5586 12.007 49.3047C12.1754 48.9661 12.407 48.7334 12.7017 48.6064C12.9964 48.4795 13.3121 48.5006 13.649 48.6699C13.9858 48.7546 14.2173 48.9661 14.3436 49.3047C14.4699 49.6432 14.491 49.9818 14.4068 50.3203C14.3226 50.4896 14.2384 50.68 14.1542 50.8916C14.07 51.1032 13.9858 51.2936 13.9016 51.4629C13.8174 51.7168 13.67 51.9072 13.4595 52.0342C13.249 52.1611 13.0174 52.2246 12.7648 52.2246ZM15.1646 46.6387C15.0804 46.6387 14.9962 46.6175 14.912 46.5752C14.8278 46.5329 14.7436 46.5117 14.6594 46.5117C14.3226 46.3424 14.1121 46.0885 14.0279 45.75C13.9437 45.4115 13.9437 45.0729 14.0279 44.7344C14.2805 44.3958 14.491 44.0361 14.6594 43.6553C14.8278 43.2744 15.0383 42.9147 15.2909 42.5762C15.4593 42.2376 15.712 42.026 16.0488 41.9414C16.3856 41.8568 16.6803 41.8991 16.9329 42.0684C17.2697 42.2376 17.4802 42.4915 17.5644 42.8301C17.6486 43.1686 17.6065 43.5072 17.4381 43.8457C17.2697 44.1842 17.0803 44.5228 16.8698 44.8613C16.6593 45.1999 16.4698 45.5384 16.3014 45.877C16.2172 46.1309 16.0698 46.3213 15.8593 46.4482C15.6488 46.5752 15.4172 46.6387 15.1646 46.6387ZM18.9538 40.291C18.8696 40.291 18.7643 40.2699 18.638 40.2275C18.5117 40.1852 18.3644 40.1217 18.196 40.0371C17.9434 39.8678 17.796 39.6139 17.7539 39.2754C17.7118 38.9369 17.775 38.5983 17.9434 38.2598C18.196 37.9212 18.4275 37.5827 18.638 37.2441C18.8486 36.9056 19.0801 36.5671 19.3327 36.2285C19.5853 35.9746 19.88 35.8265 20.2169 35.7842C20.5537 35.7419 20.8484 35.8053 21.101 35.9746C21.4378 36.2285 21.6273 36.5247 21.6694 36.8633C21.7115 37.2018 21.6062 37.498 21.3536 37.752C21.1852 38.0905 20.9747 38.429 20.7221 38.7676C20.4695 39.1061 20.2169 39.4447 19.9643 39.7832C19.88 39.9525 19.7327 40.0794 19.5222 40.1641C19.3117 40.2487 19.1222 40.291 18.9538 40.291ZM23.5008 34.5781C23.3324 34.5781 23.185 34.5358 23.0587 34.4512C22.9324 34.3665 22.7851 34.2819 22.6167 34.1973C22.3641 33.9434 22.2378 33.6471 22.2378 33.3086C22.2378 32.9701 22.3641 32.6738 22.6167 32.4199C22.8693 32.0814 23.1429 31.764 23.4377 31.4678C23.7324 31.1715 24.006 30.8542 24.2586 30.5156C24.5113 30.2617 24.806 30.1348 25.1428 30.1348C25.4796 30.1348 25.7743 30.2617 26.0269 30.5156C26.2795 30.7695 26.4058 31.0869 26.4058 31.4678C26.4058 31.8486 26.2795 32.166 26.0269 32.4199C25.7743 32.6738 25.5217 32.9489 25.2691 33.2451C25.0165 33.5413 24.7218 33.8164 24.385 34.0703C24.3008 34.2396 24.1744 34.3665 24.006 34.4512C23.8376 34.5358 23.6692 34.5781 23.5008 34.5781ZM28.8057 29.373C28.6373 29.373 28.4688 29.3519 28.3004 29.3096C28.132 29.2673 27.9636 29.1615 27.7952 28.9922C27.6268 28.7383 27.5426 28.4209 27.5426 28.04C27.5426 27.6592 27.6689 27.3841 27.9215 27.2148C28.2583 26.9609 28.5951 26.6859 28.932 26.3896C29.2688 26.0934 29.6056 25.8184 29.9424 25.5645C30.195 25.3952 30.4897 25.3317 30.8266 25.374C31.1634 25.4163 31.4581 25.5645 31.7107 25.8184C31.8791 26.1569 31.9423 26.4954 31.9002 26.834C31.858 27.1725 31.7107 27.4264 31.4581 27.5957C31.1213 27.8496 30.8055 28.1035 30.5108 28.3574C30.2161 28.6113 29.9003 28.8652 29.5635 29.1191C29.4793 29.2038 29.374 29.2673 29.2477 29.3096C29.1214 29.3519 28.9741 29.373 28.8057 29.373ZM34.742 25.0566C34.4894 25.0566 34.2789 25.0143 34.1105 24.9297C33.9421 24.8451 33.7737 24.7181 33.6053 24.5488C33.4369 24.2103 33.3948 23.8717 33.479 23.5332C33.5632 23.1947 33.7316 22.9408 33.9842 22.7715C34.321 22.5176 34.6789 22.2848 35.0578 22.0732C35.4367 21.8617 35.7946 21.6712 36.1314 21.502C36.4682 21.3327 36.805 21.2904 37.1418 21.375C37.4787 21.4596 37.7313 21.6289 37.8997 21.8828C38.0681 22.2214 38.1102 22.5599 38.026 22.8984C37.9418 23.237 37.7313 23.4909 37.3945 23.6602C37.0576 23.8294 36.7208 24.0199 36.384 24.2314C36.0472 24.443 35.7104 24.6758 35.3736 24.9297C35.2894 24.9297 35.1841 24.9508 35.0578 24.9932C34.9315 25.0355 34.8262 25.0566 34.742 25.0566ZM41.0573 21.502C40.8889 21.502 40.6995 21.4385 40.4889 21.3115C40.2784 21.1846 40.089 21.0365 39.9206 20.8672C39.8364 20.5286 39.8364 20.1901 39.9206 19.8516C40.0048 19.513 40.2153 19.2591 40.5521 19.0898C40.9731 18.9206 41.3731 18.7513 41.752 18.582C42.1309 18.4128 42.4888 18.2858 42.8256 18.2012C43.1624 18.0319 43.4992 18.0107 43.836 18.1377C44.1729 18.2646 44.3834 18.4974 44.4676 18.8359C44.636 19.1745 44.657 19.4919 44.5307 19.7881C44.4044 20.0843 44.1729 20.3171 43.836 20.4863C43.4992 20.6556 43.1414 20.8037 42.7624 20.9307C42.3835 21.0576 42.0257 21.248 41.6889 21.502C41.6046 21.502 41.4994 21.502 41.3731 21.502C41.2468 21.502 41.1415 21.502 41.0573 21.502ZM48.0041 18.9629C47.6673 18.9629 47.3937 18.8783 47.1832 18.709C46.9726 18.5397 46.8253 18.3281 46.7411 18.0742C46.6569 17.7357 46.699 17.4183 46.8674 17.1221C47.0358 16.8258 47.2884 16.5931 47.6252 16.4238C47.7936 16.4238 47.9831 16.3815 48.1936 16.2969C48.4041 16.2122 48.5936 16.1699 48.762 16.1699C49.0988 16.0853 49.4356 16.1276 49.7724 16.2969C50.1092 16.4661 50.3197 16.7201 50.4039 17.0586C50.4882 17.3971 50.4461 17.7145 50.2776 18.0107C50.1092 18.307 49.8566 18.4974 49.5198 18.582C49.2672 18.6667 49.0567 18.7301 48.8883 18.7725C48.7199 18.8148 48.5094 18.8783 48.2568 18.9629C48.2568 18.9629 48.2146 18.9629 48.1304 18.9629C48.0462 18.9629 48.0041 18.9629 48.0041 18.9629ZM79.8332 18.9629C79.8332 18.9629 79.7911 18.9629 79.7069 18.9629C79.6227 18.9629 79.5385 18.9206 79.4543 18.8359C79.2859 18.8359 79.0964 18.7936 78.8859 18.709C78.6754 18.6244 78.4859 18.582 78.3175 18.582C77.9807 18.4974 77.7281 18.2858 77.5597 17.9473C77.3913 17.6087 77.3492 17.2702 77.4334 16.9316C77.5176 16.5931 77.7071 16.3392 78.0018 16.1699C78.2965 16.0006 78.6122 15.9583 78.9491 16.043C79.2017 16.1276 79.4332 16.1911 79.6437 16.2334C79.8543 16.2757 80.0437 16.3392 80.2121 16.4238C80.5489 16.5085 80.8015 16.6989 80.97 16.9951C81.1384 17.2913 81.1805 17.6087 81.0963 17.9473C81.0121 18.2858 80.8647 18.5397 80.6542 18.709C80.4437 18.8783 80.17 18.9629 79.8332 18.9629ZM106.357 36.8633C106.189 36.8633 106.021 36.8421 105.852 36.7998C105.684 36.7575 105.515 36.6517 105.347 36.4824C105.094 36.1439 104.821 35.8053 104.526 35.4668C104.231 35.1283 103.958 34.7897 103.705 34.4512C103.452 34.1126 103.326 33.7741 103.326 33.4355C103.326 33.097 103.452 32.8008 103.705 32.5469C104.042 32.3776 104.379 32.293 104.715 32.293C105.052 32.293 105.347 32.4199 105.6 32.6738C105.852 33.0124 106.126 33.3721 106.421 33.7529C106.715 34.1338 107.031 34.4935 107.368 34.832C107.536 35.0859 107.62 35.3822 107.62 35.7207C107.62 36.0592 107.452 36.3555 107.115 36.6094C107.031 36.694 106.926 36.7575 106.799 36.7998C106.673 36.8421 106.526 36.8633 106.357 36.8633ZM100.8 31.0234C100.632 31.0234 100.484 31.0023 100.358 30.96C100.232 30.9176 100.084 30.8119 99.9158 30.6426C99.6632 30.3887 99.3685 30.1136 99.0317 29.8174C98.6949 29.5212 98.3581 29.2038 98.0212 28.8652C97.6844 28.696 97.516 28.4421 97.516 28.1035C97.516 27.765 97.6002 27.4264 97.7686 27.0879C98.0212 26.834 98.3159 26.707 98.6528 26.707C98.9896 26.707 99.2843 26.7917 99.5369 26.9609C99.9579 27.2995 100.337 27.6169 100.674 27.9131C101.01 28.2093 101.347 28.5267 101.684 28.8652C101.937 29.0345 102.063 29.3096 102.063 29.6904C102.063 30.0713 101.937 30.3887 101.684 30.6426C101.6 30.7272 101.474 30.8119 101.305 30.8965C101.137 30.9811 100.968 31.0234 100.8 31.0234ZM94.4847 25.9453C94.3163 25.9453 94.19 25.9242 94.1058 25.8818C94.0216 25.8395 93.8952 25.776 93.7268 25.6914C93.39 25.4375 93.0322 25.2048 92.6532 24.9932C92.2743 24.7816 91.9165 24.5488 91.5796 24.2949C91.2428 24.1256 91.0323 23.8717 90.9481 23.5332C90.8639 23.1947 90.906 22.8561 91.0744 22.5176C91.2428 22.2637 91.4954 22.0944 91.8323 22.0098C92.1691 21.9251 92.5059 21.9674 92.8427 22.1367C93.2637 22.3906 93.6637 22.6445 94.0426 22.8984C94.4215 23.1523 94.7794 23.4062 95.1162 23.6602C95.453 23.8294 95.6425 24.0833 95.6846 24.4219C95.7267 24.7604 95.6635 25.0566 95.4951 25.3105C95.4109 25.5645 95.2636 25.7337 95.0531 25.8184C94.8425 25.903 94.6531 25.9453 94.4847 25.9453ZM87.4116 21.8828C87.3273 21.8828 87.2431 21.8617 87.1589 21.8193C87.0747 21.777 86.9905 21.7559 86.9063 21.7559C86.4853 21.5866 86.0853 21.4173 85.7064 21.248C85.3275 21.0788 84.9275 20.8672 84.5065 20.6133C84.1697 20.5286 83.9381 20.3171 83.8118 19.9785C83.6855 19.64 83.6645 19.3014 83.7487 18.9629C83.9171 18.709 84.1697 18.5186 84.5065 18.3916C84.8433 18.2646 85.138 18.2435 85.3907 18.3281C85.8117 18.4974 86.2327 18.6878 86.6537 18.8994C87.0747 19.111 87.4958 19.3014 87.9168 19.4707C88.2536 19.64 88.4852 19.8939 88.6115 20.2324C88.7378 20.571 88.7167 20.8672 88.5483 21.1211C88.4641 21.375 88.3167 21.5654 88.1062 21.6924C87.8957 21.8193 87.6642 21.8828 87.4116 21.8828ZM110.273 42.3223C110.02 42.3223 109.81 42.2799 109.641 42.1953C109.473 42.1107 109.305 41.9837 109.136 41.8145C109.052 41.6452 108.947 41.4548 108.82 41.2432C108.694 41.0316 108.589 40.8411 108.505 40.6719C108.336 40.418 108.273 40.1217 108.315 39.7832C108.357 39.4447 108.547 39.1908 108.884 39.0215C109.136 38.7676 109.431 38.6829 109.768 38.7676C110.104 38.8522 110.399 39.0215 110.652 39.2754C110.736 39.4447 110.841 39.6351 110.968 39.8467C111.094 40.0583 111.199 40.2487 111.283 40.418C111.452 40.6719 111.515 40.9893 111.473 41.3701C111.431 41.751 111.241 42.026 110.904 42.1953C110.82 42.2799 110.715 42.3223 110.589 42.3223C110.462 42.3223 110.357 42.3223 110.273 42.3223ZM63.9187 32.5469C59.7085 32.5469 56.0456 31.0869 52.9301 28.167C49.8145 25.2471 48.1304 21.6712 47.8778 17.4395C47.8778 17.2702 47.8778 17.1009 47.8778 16.9316C47.8778 16.7624 47.8778 16.5931 47.8778 16.4238C47.8778 12.0228 49.4356 8.23535 52.5511 5.06152C55.6667 1.8877 59.4559 0.300781 63.9187 0.300781C65.5185 0.300781 67.0553 0.533531 68.5288 0.999023C70.0024 1.46452 71.3707 2.12045 72.6338 2.9668C72.9706 3.13607 73.1811 3.38998 73.2653 3.72852C73.3495 4.06705 73.2653 4.36328 73.0127 4.61719C72.8443 4.95573 72.5917 5.16732 72.2549 5.25195C71.918 5.33659 71.5812 5.25195 71.2444 4.99805C70.234 4.32096 69.0972 3.79199 67.8342 3.41113C66.5711 3.03027 65.2659 2.83984 63.9187 2.83984C60.2137 2.83984 57.035 4.17285 54.3826 6.83887C51.7302 9.50488 50.4039 12.6999 50.4039 16.4238C50.4039 16.5931 50.4039 16.7412 50.4039 16.8682C50.4039 16.9951 50.4039 17.1009 50.4039 17.1855C50.6566 20.8249 52.088 23.8717 54.6983 26.3262C57.3087 28.7806 60.3821 30.0078 63.9187 30.0078C67.4552 30.0078 70.5287 28.7806 73.139 26.3262C75.7493 23.8717 77.1808 20.8249 77.4334 17.1855C77.4334 17.1009 77.4334 16.9951 77.4334 16.8682C77.4334 16.7412 77.4334 16.5931 77.4334 16.4238C77.4334 15.7467 77.3702 15.0485 77.2439 14.3291C77.1176 13.6097 76.9703 12.9115 76.8019 12.2344C76.7177 11.8958 76.7387 11.5785 76.865 11.2822C76.9913 10.986 77.2229 10.7533 77.5597 10.584C77.8965 10.4994 78.2123 10.5417 78.507 10.7109C78.8017 10.8802 79.0333 11.1341 79.2017 11.4727C79.4543 12.2344 79.6437 13.0384 79.7701 13.8848C79.8964 14.7311 79.9595 15.5775 79.9595 16.4238C79.9595 16.5931 79.9595 16.7624 79.9595 16.9316C79.9595 17.1009 79.9595 17.2279 79.9595 17.3125C79.7069 21.6289 78.0228 25.2471 74.9073 28.167C71.7917 31.0869 68.1289 32.5469 63.9187 32.5469ZM62.2767 22.0098C62.1083 22.0098 61.9399 21.9886 61.7715 21.9463C61.6031 21.904 61.4768 21.7982 61.3926 21.6289L54.8247 15.1543C54.572 14.9004 54.4457 14.583 54.4457 14.2021C54.4457 13.8213 54.572 13.5039 54.8247 13.25C55.0773 12.9961 55.372 12.8691 55.7088 12.8691C56.0456 12.8691 56.3403 12.9961 56.5929 13.25L62.2767 18.9629L80.4647 0.681641C80.7173 0.427734 81.0121 0.300781 81.3489 0.300781C81.6857 0.300781 81.9804 0.427734 82.233 0.681641C82.4856 0.935547 82.6119 1.23177 82.6119 1.57031C82.6119 1.90885 82.4856 2.20508 82.233 2.45898L63.1608 21.6289C62.9924 21.7135 62.8451 21.7982 62.7188 21.8828C62.5925 21.9674 62.4451 22.0098 62.2767 22.0098Z" fill="#DC052D"/>
</svg>
