<svg width="123" height="124" viewBox="0 0 123 124" fill="none" xmlns="http://www.w3.org/2000/svg">
<path d="M97.5013 123.953H64.0302C63.7776 123.953 63.525 123.847 63.2724 123.636C63.0198 123.424 62.8514 123.149 62.7672 122.811L61.5041 108.973C61.5041 108.803 61.5252 108.634 61.5673 108.465C61.6094 108.296 61.7146 108.126 61.883 107.957L63.7776 106.053L60.3674 101.482C60.2832 101.398 60.22 101.25 60.1779 101.038C60.1358 100.826 60.1148 100.636 60.1148 100.467C60.199 100.298 60.3042 100.128 60.4305 99.959C60.5568 99.7897 60.7042 99.6628 60.8726 99.5781L70.9771 95.2617C71.1455 95.1771 71.3139 95.1348 71.4823 95.1348C71.6507 95.1348 71.8191 95.1771 71.9875 95.2617L73.6295 95.8965C73.6295 95.8965 73.6505 95.8965 73.6926 95.8965C73.7347 95.8965 73.7979 95.9388 73.8821 96.0234C73.8821 96.0234 73.9031 96.0234 73.9452 96.0234C73.9873 96.0234 74.0505 96.0658 74.1347 96.1504C74.1347 96.1504 74.1558 96.1504 74.1979 96.1504C74.24 96.1504 74.261 96.1504 74.261 96.1504L74.5136 96.2773C74.5136 96.2773 74.5347 96.2773 74.5768 96.2773C74.6189 96.2773 74.6399 96.2773 74.6399 96.2773C74.7241 96.362 74.7873 96.4043 74.8294 96.4043C74.8715 96.4043 74.9346 96.4043 75.0188 96.4043C75.103 96.4889 75.2083 96.5524 75.3346 96.5947C75.4609 96.637 75.6083 96.7005 75.7767 96.7852L76.5345 97.166C76.5345 97.166 76.5556 97.166 76.5977 97.166C76.6398 97.166 76.6608 97.166 76.6608 97.166C79.0185 98.1816 82.1341 99.5146 86.0074 101.165C89.8808 102.815 92.5332 103.979 93.9647 104.656C96.575 106.01 98.1328 108.253 98.638 111.385C99.1432 114.516 99.1432 118.325 98.638 122.811C98.638 123.149 98.5328 123.424 98.3223 123.636C98.1118 123.847 97.8381 123.953 97.5013 123.953ZM65.167 121.414H96.2382C96.6592 117.098 96.5961 113.818 96.0488 111.575C95.5014 109.332 94.4278 107.788 92.828 106.941C91.5649 106.349 89.1019 105.27 85.4391 103.704C81.7762 102.138 78.5554 100.763 75.7767 99.5781C75.7767 99.5781 75.7346 99.5781 75.6504 99.5781L74.7662 99.1973C74.7662 99.1973 74.7662 99.1549 74.7662 99.0703C74.5978 99.0703 74.4505 99.0492 74.3242 99.0068C74.1979 98.9645 74.0926 98.901 74.0084 98.8164C74.0084 98.8164 73.9873 98.8164 73.9452 98.8164C73.9031 98.8164 73.8821 98.8164 73.8821 98.8164C73.8821 98.7318 73.861 98.6895 73.8189 98.6895C73.7768 98.6895 73.7558 98.6895 73.7558 98.6895C73.7558 98.6895 73.7137 98.6895 73.6295 98.6895C73.5453 98.6895 73.5032 98.6471 73.5032 98.5625H73.2506C73.1664 98.4779 73.1032 98.4355 73.0611 98.4355C73.019 98.4355 72.9558 98.3932 72.8716 98.3086C72.8716 98.3086 72.8506 98.3086 72.8085 98.3086C72.7664 98.3086 72.7453 98.3086 72.7453 98.3086C72.7453 98.3086 72.7243 98.3086 72.6822 98.3086C72.6401 98.3086 72.619 98.3086 72.619 98.3086L71.6086 97.8008C71.6086 97.8008 71.5875 97.8008 71.5454 97.8008C71.5033 97.8008 71.4823 97.8008 71.4823 97.8008L63.3987 101.355L66.43 105.291C66.5985 105.545 66.6827 105.82 66.6827 106.116C66.6827 106.412 66.5564 106.688 66.3037 106.941L64.0302 109.354L65.167 121.414ZM67.4405 110.115C67.2721 110.115 67.1037 110.073 66.9353 109.988C66.7669 109.904 66.5985 109.777 66.43 109.607L64.4092 106.814L60.3674 101.482C60.2832 101.398 60.22 101.25 60.1779 101.038C60.1358 100.826 60.1148 100.636 60.1148 100.467C60.199 100.298 60.3042 100.128 60.4305 99.959C60.5568 99.7897 60.7042 99.6628 60.8726 99.5781L70.9771 95.2617C71.1455 95.1771 71.3139 95.1348 71.4823 95.1348C71.6507 95.1348 71.8191 95.1771 71.9875 95.2617L73.6295 95.8965L74.261 96.1504L74.8925 96.5312L76.2819 97.0391L76.6608 97.166C76.9134 97.2507 77.1029 97.4199 77.2292 97.6738C77.3555 97.9277 77.4186 98.1816 77.4186 98.4355C77.4186 98.6048 77.3976 98.7529 77.3555 98.8799C77.3134 99.0068 77.2502 99.1126 77.166 99.1973L68.4509 109.734C68.2825 109.819 68.1141 109.904 67.9457 109.988C67.7773 110.073 67.6089 110.115 67.4405 110.115ZM63.3987 101.355L67.5668 106.814L74.1347 98.9434L71.6086 97.8008C71.6086 97.8008 71.5875 97.8008 71.5454 97.8008C71.5033 97.8008 71.4823 97.8008 71.4823 97.8008L63.3987 101.355ZM64.0302 123.953H58.7254C58.4728 123.953 58.2833 123.911 58.157 123.826C58.0307 123.742 57.8834 123.657 57.715 123.572C57.6307 123.403 57.5465 123.234 57.4623 123.064C57.3781 122.895 57.3781 122.726 57.4623 122.557L58.7254 109.354L56.4519 106.941C56.1993 106.772 56.073 106.518 56.073 106.18C56.073 105.841 56.1572 105.545 56.3256 105.291L60.3674 100.086C60.4516 99.9167 60.5989 99.7897 60.8094 99.7051C61.02 99.6204 61.2094 99.5781 61.3778 99.5781C61.5462 99.5781 61.7146 99.6204 61.883 99.7051C62.0514 99.7897 62.2199 99.9167 62.3883 100.086L66.43 105.291C66.5985 105.545 66.6827 105.841 66.6827 106.18C66.6827 106.518 66.5564 106.772 66.3037 106.941L64.0302 109.354L65.2933 122.557C65.3775 122.726 65.3775 122.895 65.2933 123.064C65.2091 123.234 65.1249 123.403 65.0407 123.572C64.8723 123.657 64.7249 123.742 64.5986 123.826C64.4723 123.911 64.2829 123.953 64.0302 123.953ZM60.1148 121.414H62.6409L61.5041 108.973C61.5041 108.803 61.5252 108.634 61.5673 108.465C61.6094 108.296 61.7146 108.126 61.883 107.957L63.7776 106.053L61.3778 102.879L58.978 105.926L60.8726 107.957C61.041 108.042 61.1463 108.19 61.1884 108.401C61.2305 108.613 61.2515 108.803 61.2515 108.973L60.1148 121.414ZM61.3778 102.117C61.2936 102.117 61.2094 102.096 61.1252 102.054C61.041 102.011 60.9568 101.99 60.8726 101.99L50.7681 97.5469C50.5155 97.4622 50.3261 97.3141 50.1998 97.1025C50.0734 96.891 50.0103 96.6582 50.0103 96.4043V87.7715C50.0103 87.6022 50.0313 87.4541 50.0734 87.3271C50.1156 87.2002 50.2208 87.0521 50.3892 86.8828H50.5155C50.5997 86.7135 50.7471 86.6077 50.9576 86.5654C51.1681 86.5231 51.3576 86.502 51.526 86.502C51.6944 86.502 51.8628 86.5443 52.0312 86.6289C52.1996 86.7135 52.3259 86.8405 52.4101 87.0098C54.5994 90.0566 56.5782 91.7282 58.3465 92.0244C60.1148 92.3206 61.041 92.4264 61.1252 92.3418C61.2936 92.3418 61.4199 92.3418 61.5041 92.3418C61.5883 92.3418 61.6725 92.3418 61.7567 92.3418C61.7567 92.4264 62.6619 92.3206 64.4723 92.0244C66.2827 91.7282 68.2404 90.0566 70.3455 87.0098C70.5139 86.8405 70.6823 86.7135 70.8507 86.6289C71.0192 86.5443 71.1876 86.502 71.356 86.502C71.6086 86.502 71.8191 86.5443 71.9875 86.6289C72.1559 86.7135 72.3243 86.8405 72.4927 87.0098V87.1367C72.5769 87.2214 72.6401 87.3271 72.6822 87.4541C72.7243 87.5811 72.7453 87.7292 72.7453 87.8984V96.4043C72.7453 96.6582 72.6822 96.891 72.5559 97.1025C72.4296 97.3141 72.2401 97.4622 71.9875 97.5469L61.883 101.99C61.7988 101.99 61.7146 102.011 61.6304 102.054C61.5462 102.096 61.462 102.117 61.3778 102.117ZM52.5364 95.5156L61.3778 99.4512L70.2192 95.5156V91.0723C68.1983 93.1035 66.3458 94.2673 64.6618 94.5635C62.9777 94.8597 61.883 94.9655 61.3778 94.8809C60.8726 94.9655 59.7779 94.8597 58.0939 94.5635C56.4098 94.2673 54.5573 93.1035 52.5364 91.0723V95.5156ZM60.4937 95.0078C59.5674 95.0078 58.157 94.627 56.2624 93.8652C54.3678 93.1035 52.4101 91.2839 50.3892 88.4062C49.884 87.7292 49.3788 86.9674 48.8735 86.1211C48.3683 85.2747 47.9052 84.3861 47.4842 83.4551C47.3158 83.5397 47.1474 83.6032 46.979 83.6455C46.8105 83.6878 46.6421 83.709 46.4737 83.709C45.5475 83.6243 44.7265 83.0742 44.0108 82.0586C43.295 81.043 42.6004 79.5195 41.9267 77.4883C41.3373 75.9648 41.0215 74.6953 40.9794 73.6797C40.9373 72.6641 41.1689 71.9447 41.6741 71.5215C42.0109 71.1829 42.453 71.0348 43.0003 71.0771C43.5476 71.1195 44.1581 71.3099 44.8318 71.6484C44.8318 71.7331 44.8739 71.7966 44.9581 71.8389C45.0423 71.8812 45.0844 71.9447 45.0844 72.0293L45.5896 72.6641L46.8526 65.6816C46.9369 65.4277 47.0632 65.195 47.2316 64.9834C47.4 64.7718 47.6526 64.666 47.9894 64.666C49.3367 64.4967 50.5787 63.7985 51.7154 62.5713C52.8522 61.3441 53.6311 60.4342 54.0521 59.8418C54.1363 59.5879 54.2626 59.4186 54.431 59.334C54.5994 59.2494 54.8099 59.207 55.0625 59.207C55.2309 59.207 55.4204 59.2494 55.6309 59.334C55.8414 59.4186 55.9888 59.5456 56.073 59.7148C56.6624 60.4766 57.5465 61.0267 58.7254 61.3652C59.9043 61.7038 60.7884 61.873 61.3778 61.873C61.9672 61.873 62.8303 61.7038 63.9671 61.3652C65.1038 61.0267 65.9669 60.4766 66.5564 59.7148C66.7248 59.5456 66.8932 59.4186 67.0616 59.334C67.23 59.2494 67.4405 59.207 67.6931 59.207C67.9457 59.207 68.1562 59.2494 68.3246 59.334C68.493 59.4186 68.6193 59.5879 68.7036 59.8418C68.7036 59.8418 69.293 60.6035 70.4718 62.127C71.6507 63.6504 73.0822 64.4967 74.7662 64.666C75.0188 64.7507 75.2504 64.8776 75.4609 65.0469C75.6714 65.2161 75.7767 65.4277 75.7767 65.6816L77.166 72.6641L77.545 72.0293C77.6292 71.9447 77.6923 71.8812 77.7344 71.8389C77.7765 71.7966 77.8397 71.7331 77.9239 71.6484C78.5975 71.2253 79.1869 70.9925 79.6922 70.9502C80.1974 70.9079 80.6605 71.056 81.0815 71.3945C81.5867 71.9023 81.8183 72.6429 81.7762 73.6162C81.7341 74.5895 81.4183 75.8379 80.8289 77.3613C80.1553 79.4772 79.4606 81.0218 78.7449 81.9951C78.0291 82.9684 77.2081 83.4974 76.2819 83.582C76.1135 83.582 75.9451 83.582 75.7767 83.582C75.6083 83.582 75.4399 83.5397 75.2715 83.4551C74.8504 84.3861 74.3873 85.2747 73.8821 86.1211C73.3769 86.9674 72.8716 87.7292 72.3664 88.4062C70.0087 91.7917 67.7352 93.7383 65.5459 94.2461C63.3566 94.7539 61.9672 94.9655 61.3778 94.8809C61.2936 94.8809 61.1884 94.902 61.0621 94.9443C60.9357 94.9867 60.7463 95.0078 60.4937 95.0078ZM61.3778 92.3418C61.3778 92.3418 61.4199 92.3418 61.5041 92.3418C61.5883 92.3418 61.6304 92.3418 61.6304 92.3418C61.7146 92.3418 62.6409 92.2148 64.4092 91.9609C66.1774 91.707 68.1562 90.0566 70.3455 87.0098C70.935 86.1634 71.5033 85.2324 72.0507 84.2168C72.598 83.2012 73.1243 82.0586 73.6295 80.7891C73.7137 80.6198 73.861 80.4505 74.0715 80.2812C74.2821 80.112 74.5136 80.0273 74.7662 80.0273C75.0188 80.0273 75.2504 80.0908 75.4609 80.2178C75.6714 80.3447 75.8188 80.5352 75.903 80.7891C75.903 80.7891 75.9451 80.8314 76.0293 80.916C76.1135 81.0007 76.1556 81.043 76.1556 81.043C76.324 80.9583 76.5977 80.6409 76.9766 80.0908C77.3555 79.5407 77.8397 78.377 78.4291 76.5996C78.4291 76.5996 78.4291 76.5784 78.4291 76.5361C78.4291 76.4938 78.4291 76.4727 78.4291 76.4727C78.5975 76.0495 78.7449 75.6263 78.8712 75.2031C78.9975 74.7799 79.1027 74.3991 79.1869 74.0605L78.4291 75.2031C78.3449 75.3724 78.1975 75.4993 77.987 75.584C77.7765 75.6686 77.5871 75.7109 77.4186 75.7109H76.1556C75.903 75.7109 75.6504 75.6263 75.3978 75.457C75.1451 75.2878 75.0188 75.0339 75.0188 74.6953L73.5032 66.9512C72.1559 66.6126 70.956 65.9567 69.9035 64.9834C68.8509 64.0101 68.0299 63.1426 67.4405 62.3809C66.3458 63.2272 65.1249 63.7773 63.7776 64.0312C62.4304 64.2852 61.6725 64.4121 61.5041 64.4121C61.4199 64.4121 61.3778 64.4121 61.3778 64.4121C61.3778 64.4121 61.3357 64.4121 61.2515 64.4121C61.0831 64.4121 60.3253 64.2852 58.978 64.0312C57.6307 63.7773 56.4098 63.2272 55.3151 62.3809C54.7257 63.1426 53.9047 64.0101 52.8522 64.9834C51.7996 65.9567 50.5997 66.6126 49.2525 66.9512L47.8631 74.6953C47.7789 75.0339 47.6105 75.2878 47.3579 75.457C47.1053 75.6263 46.8526 75.7109 46.6 75.7109H45.337C45.1686 75.7109 45.0002 75.6686 44.8318 75.584C44.6633 75.4993 44.4949 75.3724 44.3265 75.2031L43.5687 74.1875C43.6529 74.526 43.7582 74.8857 43.8845 75.2666C44.0108 75.6475 44.1581 76.0495 44.3265 76.4727C44.3265 76.4727 44.3265 76.4938 44.3265 76.5361C44.3265 76.5784 44.3686 76.5996 44.4528 76.5996C44.9581 78.377 45.4212 79.5407 45.8422 80.0908C46.2632 80.6409 46.5158 80.9583 46.6 81.043C46.6842 81.043 46.7474 81.0007 46.7895 80.916C46.8316 80.8314 46.8526 80.7891 46.8526 80.7891C47.0211 80.5352 47.2105 80.3447 47.421 80.2178C47.6315 80.0908 47.821 80.0273 47.9894 80.0273C48.242 80.0273 48.4736 80.112 48.6841 80.2812C48.8946 80.4505 49.042 80.6198 49.1262 80.7891C49.6314 81.974 50.1577 83.0954 50.705 84.1533C51.2523 85.2113 51.8207 86.1634 52.4101 87.0098C54.5994 90.0566 56.5782 91.707 58.3465 91.9609C60.1148 92.2148 61.041 92.3418 61.1252 92.3418C61.1252 92.3418 61.1673 92.3418 61.2515 92.3418C61.3357 92.3418 61.3778 92.3418 61.3778 92.3418ZM58.7254 123.953H25.2544C25.0017 123.953 24.7491 123.847 24.4965 123.636C24.2439 123.424 24.0755 123.149 23.9913 122.811C23.5703 118.325 23.6124 114.516 24.1176 111.385C24.6228 108.253 26.1806 106.01 28.7909 104.656C29.1277 104.487 29.4856 104.318 29.8645 104.148C30.2434 103.979 30.6434 103.81 31.0644 103.641C32.9169 102.794 35.2746 101.757 38.1376 100.53C41.0005 99.3031 43.6529 98.1816 46.0948 97.166C46.3474 97.0814 46.6 97.0814 46.8526 97.166C47.1053 97.2507 47.3158 97.3776 47.4842 97.5469L49.5051 100.086L55.1888 106.814L56.3256 105.291C56.494 105.122 56.6413 104.995 56.7677 104.91C56.894 104.826 57.0834 104.783 57.336 104.783C57.5044 104.783 57.6728 104.826 57.8413 104.91C58.0097 104.995 58.136 105.079 58.2202 105.164L60.8726 107.957C60.9568 108.126 61.041 108.296 61.1252 108.465C61.2094 108.634 61.2515 108.803 61.2515 108.973L59.8621 122.811C59.8621 123.149 59.7569 123.424 59.5464 123.636C59.3359 123.847 59.0622 123.953 58.7254 123.953ZM26.3911 121.414H57.4623L58.7254 109.354L57.4623 108.084L56.3256 109.607C56.1572 109.777 55.9888 109.904 55.8204 109.988C55.652 110.073 55.4835 110.115 55.3151 110.115C55.1467 110.115 54.9783 110.073 54.8099 109.988C54.6415 109.904 54.4731 109.777 54.3047 109.607L46.2211 99.959C43.8634 100.89 41.3583 101.927 38.7059 103.069C36.0535 104.212 33.8432 105.164 32.0749 105.926C31.7381 106.095 31.3802 106.264 31.0013 106.434C30.6224 106.603 30.2645 106.772 29.9277 106.941C28.0752 107.872 26.9595 109.607 26.5806 112.146C26.2017 114.686 26.1385 117.775 26.3911 121.414ZM77.4186 75.7109H76.2819C75.9451 75.7109 75.6504 75.6051 75.3978 75.3936C75.1451 75.182 75.0188 74.9492 75.0188 74.6953L73.5032 66.9512C72.1559 66.6126 70.956 65.9567 69.9035 64.9834C68.8509 64.0101 68.0299 63.1426 67.4405 62.3809C67.0195 62.7194 66.5353 63.0156 65.988 63.2695C65.4407 63.5234 64.8302 63.735 64.1565 63.9043C63.4829 64.0736 62.8724 64.2005 62.3251 64.2852C61.7778 64.3698 61.5041 64.4121 61.5041 64.4121C61.5041 64.4121 61.4831 64.4121 61.441 64.4121C61.3989 64.4121 61.3778 64.4121 61.3778 64.4121C61.1252 64.4121 60.3463 64.2852 59.0412 64.0312C57.736 63.7773 56.494 63.2272 55.3151 62.3809C54.7257 63.1426 53.9258 64.0101 52.9153 64.9834C51.9049 65.9567 50.6839 66.6126 49.2525 66.9512L47.8631 74.6953C47.7789 74.9492 47.6315 75.182 47.421 75.3936C47.2105 75.6051 46.9369 75.7109 46.6 75.7109H45.4633C45.2107 75.7109 45.0002 75.6686 44.8318 75.584C44.6633 75.4993 44.4949 75.3724 44.3265 75.2031L43.1898 73.4258C43.1056 73.4258 43.0635 73.3835 43.0635 73.2988C43.0635 73.2142 43.0214 73.1719 42.9372 73.1719C42.9372 73.0872 42.7688 72.4102 42.4319 71.1406C42.0951 69.8711 41.8846 68.263 41.8004 66.3164C41.632 63.7773 41.8004 61.4076 42.3056 59.207C42.8109 57.0065 43.6529 55.1022 44.8318 53.4941C46.4316 51.2936 48.6209 49.6221 51.3997 48.4795C54.1784 47.3369 57.5044 46.7656 61.3778 46.7656C65.3354 46.7656 68.7036 47.3369 71.4823 48.4795C74.261 49.6221 76.4503 51.2936 78.0502 53.4941C79.229 55.1022 80.0711 57.0065 80.5763 59.207C81.0815 61.4076 81.2499 63.7773 81.0815 66.3164C80.9131 68.263 80.6605 69.8711 80.3237 71.1406C79.9869 72.4102 79.8185 73.0872 79.8185 73.1719C79.8185 73.2565 79.7974 73.32 79.7553 73.3623C79.7132 73.4046 79.6922 73.4681 79.6922 73.5527L78.4291 75.2031C78.3449 75.3724 78.1975 75.4993 77.987 75.584C77.7765 75.6686 77.5871 75.7109 77.4186 75.7109ZM67.6931 59.0801C67.9457 59.1647 68.1562 59.2494 68.3246 59.334C68.493 59.4186 68.6193 59.5456 68.7036 59.7148C68.7878 59.7148 69.3982 60.4766 70.535 62C71.6717 63.5234 73.0822 64.4121 74.7662 64.666C75.103 64.666 75.3557 64.7718 75.5241 64.9834C75.6925 65.195 75.8188 65.4277 75.903 65.6816L77.166 72.5371L77.545 72.1562C77.7134 71.4792 78.0502 69.2363 78.5554 65.4277C79.0606 61.6191 78.2186 58.1491 76.0293 55.0176C74.5978 53.071 72.6822 51.6322 70.2824 50.7012C67.8826 49.7702 64.9565 49.3047 61.5041 49.3047C58.0518 49.3047 55.1046 49.7913 52.6627 50.7646C50.2208 51.738 48.2841 53.1556 46.8526 55.0176C44.6633 58.1491 43.8213 61.6191 44.3265 65.4277C44.8318 69.2363 45.1686 71.4792 45.337 72.1562L45.7159 72.6641L46.979 65.6816C46.979 65.4277 47.0842 65.195 47.2947 64.9834C47.5052 64.7718 47.7368 64.666 47.9894 64.666C49.4209 64.4967 50.705 63.7985 51.8417 62.5713C52.9785 61.3441 53.7153 60.3919 54.0521 59.7148C54.2205 59.5456 54.3889 59.4186 54.5573 59.334C54.7257 59.2494 54.8941 59.207 55.0625 59.207C55.3151 59.1224 55.5257 59.1436 55.6941 59.2705C55.8625 59.3975 56.0309 59.5456 56.1993 59.7148C56.7887 60.4766 57.6728 61.0055 58.8517 61.3018C60.0306 61.598 60.8726 61.7884 61.3778 61.873C61.9672 61.7884 62.8514 61.598 64.0302 61.3018C65.2091 61.0055 66.0932 60.4766 66.6827 59.7148C66.7669 59.4609 66.8932 59.2917 67.0616 59.207C67.23 59.1224 67.4405 59.0801 67.6931 59.0801ZM55.3151 110.115C55.1467 110.115 54.9783 110.073 54.8099 109.988C54.6415 109.904 54.4731 109.777 54.3047 109.607L47.6105 101.609L45.5896 99.1973C45.5054 99.028 45.4212 98.8587 45.337 98.6895C45.2528 98.5202 45.2528 98.3086 45.337 98.0547C45.4212 97.8854 45.5264 97.7161 45.6527 97.5469C45.7791 97.3776 45.9264 97.2507 46.0948 97.166L46.4737 97.0391L47.8631 96.5312C47.8631 96.4466 47.8631 96.4043 47.8631 96.4043C47.8631 96.4043 47.9052 96.4043 47.9894 96.4043L48.4946 96.1504C48.4946 96.1504 48.5367 96.1504 48.6209 96.1504L50.2629 95.3887L50.7681 95.2617C50.9365 95.1771 51.1049 95.1348 51.2734 95.1348C51.4418 95.1348 51.6102 95.1771 51.7786 95.2617L61.883 99.5781C62.0514 99.6628 62.1988 99.7897 62.3251 99.959C62.4514 100.128 62.5567 100.298 62.6409 100.467C62.7251 100.636 62.7461 100.826 62.704 101.038C62.6619 101.25 62.5567 101.398 62.3883 101.482L58.3465 106.814L56.3256 109.607C56.2414 109.777 56.1151 109.904 55.9467 109.988C55.7783 110.073 55.5678 110.115 55.3151 110.115ZM48.6209 98.9434L49.5051 99.959L55.1888 106.814L56.3256 105.291L59.3569 101.355L51.2734 97.8008L49.2525 98.5625L48.8735 98.8164C48.8735 98.8164 48.8525 98.8164 48.8104 98.8164C48.7683 98.8164 48.7051 98.8164 48.6209 98.8164V98.9434ZM114.931 123.953H10.3503C10.0135 123.953 9.71874 123.826 9.46613 123.572C9.21352 123.318 9.08722 123.022 9.08722 122.684C9.08722 122.345 9.21352 122.049 9.46613 121.795C9.71874 121.541 10.0135 121.414 10.3503 121.414H114.931C115.268 121.414 115.563 121.541 115.816 121.795C116.068 122.049 116.195 122.345 116.195 122.684C116.195 123.022 116.068 123.318 115.816 123.572C115.563 123.826 115.268 123.953 114.931 123.953ZM5.80326 123.953H3.52976C3.19294 123.953 2.89823 123.826 2.64562 123.572C2.39301 123.318 2.2667 123.022 2.2667 122.684C2.2667 122.345 2.39301 122.049 2.64562 121.795C2.89823 121.541 3.19294 121.414 3.52976 121.414H5.80326C6.14008 121.414 6.43479 121.541 6.68741 121.795C6.94002 122.049 7.06632 122.345 7.06632 122.684C7.06632 123.022 6.94002 123.318 6.68741 123.572C6.43479 123.826 6.14008 123.953 5.80326 123.953ZM31.5696 106.053H1.50887C1.17205 106.053 0.877338 105.947 0.624726 105.735C0.372115 105.524 0.245809 105.249 0.245809 104.91C-0.0910067 101.863 -0.0699558 99.3031 0.308962 97.2295C0.687879 95.1559 1.76148 93.6536 3.52976 92.7227C4.456 92.2995 6.18218 91.5378 8.7083 90.4375C11.2344 89.3372 13.2553 88.4909 14.771 87.8984C14.771 87.8138 14.792 87.7715 14.8341 87.7715C14.8762 87.7715 14.8973 87.7715 14.8973 87.7715L15.4025 87.6445C15.4867 87.5599 15.5709 87.4964 15.6551 87.4541C15.7393 87.4118 15.8235 87.3906 15.9077 87.3906C15.9919 87.3906 16.0551 87.3695 16.0972 87.3271C16.1393 87.2848 16.2024 87.2637 16.2866 87.2637L16.413 87.1367C16.4972 87.1367 16.5393 87.1367 16.5393 87.1367C16.6235 87.1367 16.6866 87.1156 16.7287 87.0732C16.7708 87.0309 16.7919 87.0098 16.7919 87.0098C16.7919 87.0098 16.834 87.0098 16.9182 87.0098C16.9182 87.0098 16.9392 86.9886 16.9813 86.9463C17.0234 86.904 17.0445 86.8828 17.0445 86.8828V82.4395C16.7919 82.0163 16.5393 81.5931 16.2866 81.1699C16.034 80.7467 15.8235 80.3236 15.6551 79.9004C15.5709 79.9004 15.4867 79.9004 15.4025 79.9004C15.3183 79.9004 15.2341 79.9004 15.1499 79.9004C14.2237 79.8158 13.529 79.3079 13.0658 78.377C12.6027 77.446 12.2028 76.515 11.8659 75.584C11.4449 74.4837 11.2134 73.5739 11.1713 72.8545C11.1292 72.1351 11.3186 71.5638 11.7396 71.1406C11.8238 71.1406 11.887 71.1195 11.9291 71.0771C11.9712 71.0348 11.9922 71.0137 11.9922 71.0137C11.7396 69.7441 11.6344 68.0091 11.6765 65.8086C11.7186 63.6081 12.4133 61.5345 13.7605 59.5879C14.8552 58.1491 16.3287 57.0277 18.1812 56.2236C20.0337 55.4196 22.2651 55.0176 24.8754 55.0176C27.4858 55.0176 29.7172 55.4196 31.5696 56.2236C33.4221 57.0277 34.8957 58.1491 35.9904 59.5879C37.3376 61.5345 38.0323 63.6081 38.0744 65.8086C38.1165 68.0091 37.9691 69.7441 37.6323 71.0137C37.7165 71.0137 37.7797 71.0348 37.8218 71.0771C37.8639 71.1195 37.8849 71.1406 37.8849 71.1406C38.306 71.5638 38.5165 72.1351 38.5165 72.8545C38.5165 73.5739 38.306 74.4837 37.8849 75.584C37.5481 76.515 37.1271 77.446 36.6219 78.377C36.1167 79.3079 35.443 79.8158 34.601 79.9004C34.5168 79.9004 34.4326 79.9004 34.3484 79.9004C34.2642 79.9004 34.18 79.9004 34.0958 79.9004C33.8432 80.3236 33.5905 80.7467 33.3379 81.1699C33.0853 81.5931 32.8327 82.0163 32.5801 82.4395V86.8828H32.7064C32.7064 86.9674 32.7275 87.0098 32.7696 87.0098C32.8117 87.0098 32.8327 87.0098 32.8327 87.0098C32.8327 87.0098 32.8748 87.0098 32.959 87.0098C33.0432 87.0944 33.1064 87.1367 33.1485 87.1367C33.1906 87.1367 33.2537 87.179 33.3379 87.2637H33.4642C33.4642 87.2637 33.4853 87.2637 33.5274 87.2637C33.5695 87.2637 33.5905 87.2637 33.5905 87.2637C33.6747 87.3483 33.7379 87.3906 33.78 87.3906C33.8221 87.3906 33.8432 87.3906 33.8432 87.3906C33.9274 87.3906 33.9695 87.4118 33.9695 87.4541C33.9695 87.4964 34.0116 87.5176 34.0958 87.5176C34.0958 87.5176 34.1168 87.5176 34.1589 87.5176C34.201 87.5176 34.2642 87.5599 34.3484 87.6445L34.7273 87.7715C34.8115 87.7715 34.8536 87.7715 34.8536 87.7715C34.8536 87.7715 34.8957 87.8138 34.9799 87.8984L35.9904 88.2793C37.8428 89.041 39.8216 89.8662 41.9267 90.7549C44.0318 91.6436 45.4633 92.2995 46.2211 92.7227C47.0632 93.1458 47.7578 93.7383 48.3052 94.5C48.8525 95.2617 49.2525 96.235 49.5051 97.4199C49.5893 97.5892 49.6103 97.7585 49.5682 97.9277C49.5261 98.097 49.4209 98.2663 49.2525 98.4355C49.1683 98.5202 49.0841 98.6048 48.9998 98.6895C48.9156 98.7741 48.7893 98.8587 48.6209 98.9434L46.979 99.5781C46.979 99.5781 46.9369 99.5781 46.8526 99.5781C44.4107 100.678 41.7794 101.821 38.9585 103.006C36.1377 104.191 33.8432 105.164 32.0749 105.926C31.9907 106.01 31.9065 106.053 31.8223 106.053C31.7381 106.053 31.6539 106.053 31.5696 106.053ZM2.64562 103.514H31.317C33.1695 102.667 35.4851 101.673 38.2639 100.53C41.0426 99.3877 43.6529 98.2663 46.0948 97.166C46.0948 97.166 46.1159 97.166 46.158 97.166C46.2001 97.166 46.2211 97.166 46.2211 97.166L46.8526 96.9121C46.6842 96.4889 46.4527 96.1081 46.158 95.7695C45.8633 95.431 45.5475 95.1771 45.2107 95.0078C44.4528 94.6693 43.0214 94.0557 40.9163 93.167C38.8112 92.2783 36.8745 91.4531 35.1062 90.6914L34.2221 90.3105C34.1379 90.3105 34.0958 90.2894 34.0958 90.2471C34.0958 90.2048 34.0958 90.1836 34.0958 90.1836L33.8432 90.0566C33.8432 90.0566 33.8221 90.0566 33.78 90.0566C33.7379 90.0566 33.7168 90.0566 33.7168 90.0566L33.4642 89.9297C33.38 89.9297 33.3379 89.9297 33.3379 89.9297C33.3379 89.9297 33.2958 89.9297 33.2116 89.9297C33.2116 89.9297 33.1695 89.9085 33.0853 89.8662C33.0011 89.8239 32.9169 89.7604 32.8327 89.6758C32.8327 89.6758 32.8117 89.6758 32.7696 89.6758C32.7275 89.6758 32.7064 89.6758 32.7064 89.6758H32.5801C32.5801 89.5911 32.559 89.5488 32.5169 89.5488C32.4748 89.5488 32.4538 89.5488 32.4538 89.5488C32.3696 89.5488 32.3064 89.5277 32.2643 89.4854C32.2222 89.443 32.2012 89.4219 32.2012 89.4219C32.117 89.4219 32.0538 89.4219 32.0117 89.4219C31.9696 89.4219 31.9065 89.3796 31.8223 89.2949C31.8223 89.2949 31.8433 89.2949 31.8854 89.2949C31.9275 89.2949 31.9486 89.3372 31.9486 89.4219C31.9486 89.4219 31.9275 89.4007 31.8854 89.3584C31.8433 89.3161 31.8223 89.2949 31.8223 89.2949L31.0644 89.041C30.8118 88.8717 30.6224 88.6813 30.496 88.4697C30.3697 88.2581 30.3066 88.0254 30.3066 87.7715V82.5664C30.2224 82.3971 30.2013 82.2067 30.2434 81.9951C30.2855 81.7835 30.3487 81.5931 30.4329 81.4238C30.7697 80.916 31.1276 80.3236 31.5065 79.6465C31.8854 78.9694 32.2012 78.2923 32.4538 77.6152C32.6222 77.3613 32.7906 77.1497 32.959 76.9805C33.1274 76.8112 33.3379 76.7266 33.5905 76.7266C33.8432 76.7266 34.0537 76.7689 34.2221 76.8535C34.3905 76.9382 34.5168 77.0651 34.601 77.2344C34.7694 77.0651 34.9378 76.79 35.1062 76.4092C35.2746 76.0283 35.443 75.4993 35.6114 74.8223C35.6114 74.8223 35.6114 74.8011 35.6114 74.7588C35.6114 74.7165 35.6114 74.6953 35.6114 74.6953C35.6956 74.526 35.7798 74.3568 35.864 74.1875C35.9482 74.0182 35.9904 73.849 35.9904 73.6797C35.9061 73.6797 35.8219 73.6585 35.7377 73.6162C35.6535 73.5739 35.5693 73.5104 35.4851 73.4258C35.2325 73.2565 35.0641 73.0449 34.9799 72.791C34.8957 72.5371 34.8957 72.2832 34.9799 72.0293C34.9799 72.0293 35.2115 70.7386 35.6746 68.1572C36.1377 65.5758 35.6114 63.2695 34.0958 61.2383C33.2537 60.0534 32.0749 59.1647 30.5592 58.5723C29.0435 57.9798 27.191 57.6836 25.0017 57.6836C22.8124 57.6836 20.96 57.9798 19.4443 58.5723C17.9286 59.1647 16.7498 60.0534 15.9077 61.2383C14.3921 63.3542 13.8658 65.6816 14.3289 68.2207C14.792 70.7598 15.0236 72.0293 15.0236 72.0293C15.1078 72.2832 15.1078 72.5371 15.0236 72.791C14.9394 73.0449 14.771 73.2565 14.5184 73.4258C14.4342 73.5104 14.35 73.5739 14.2658 73.6162C14.1815 73.6585 14.0973 73.6797 14.0131 73.6797C14.0131 73.849 14.0552 74.0182 14.1394 74.1875C14.2237 74.3568 14.3079 74.526 14.3921 74.6953C14.3921 74.6953 14.3921 74.7165 14.3921 74.7588C14.3921 74.8011 14.3921 74.8223 14.3921 74.8223C14.5605 75.4993 14.7289 76.0072 14.8973 76.3457C15.0657 76.6842 15.2341 76.9382 15.4025 77.1074C15.4867 77.0228 15.613 76.9382 15.7814 76.8535C15.9498 76.7689 16.1182 76.7266 16.2866 76.7266C16.5393 76.7266 16.7708 76.8112 16.9813 76.9805C17.1918 77.1497 17.3392 77.3613 17.4234 77.6152C17.7602 78.2923 18.097 78.9694 18.4338 79.6465C18.7707 80.3236 19.1496 80.916 19.5706 81.4238C19.6548 81.5931 19.718 81.7835 19.7601 81.9951C19.8022 82.2067 19.7811 82.3971 19.6969 82.5664V87.7715C19.6969 88.0254 19.6337 88.2581 19.5074 88.4697C19.3811 88.6813 19.1917 88.8294 18.9391 88.9141L18.6865 89.168C18.6865 89.168 18.6654 89.168 18.6233 89.168C18.5812 89.168 18.5602 89.168 18.5602 89.168L18.1812 89.2949C18.097 89.3796 18.0339 89.4219 17.9918 89.4219C17.9497 89.4219 17.8865 89.4219 17.8023 89.4219C17.8023 89.4219 17.8023 89.443 17.8023 89.4854C17.8023 89.5277 17.8023 89.5488 17.8023 89.5488C17.7181 89.5488 17.655 89.57 17.6129 89.6123C17.5708 89.6546 17.5076 89.6758 17.4234 89.6758H17.2971C17.2129 89.6758 17.1708 89.6758 17.1708 89.6758C17.1708 89.6758 17.1708 89.7181 17.1708 89.8027C17.0866 89.8027 17.0445 89.8027 17.0445 89.8027C17.0445 89.8027 17.0024 89.8451 16.9182 89.9297C16.9182 89.9297 16.8761 89.9508 16.7919 89.9932C16.7077 90.0355 16.6235 90.0566 16.5393 90.0566L16.1603 90.1836L15.9077 90.3105C15.9077 90.3105 15.8867 90.3105 15.8446 90.3105C15.8025 90.3105 15.7814 90.3105 15.7814 90.3105C14.0131 91.0723 11.9501 91.9609 9.59244 92.9766C7.23473 93.9922 5.63486 94.7116 4.79282 95.1348C4.03498 95.3887 3.4245 96.0658 2.96138 97.166C2.49826 98.2663 2.39301 100.382 2.64562 103.514ZM121.499 105.672H91.4386C91.3544 105.672 91.2702 105.651 91.186 105.608C91.1018 105.566 91.0176 105.545 90.9334 105.545C89.0809 104.699 86.7653 103.683 83.9865 102.498C81.2078 101.313 78.5975 100.213 76.1556 99.1973C76.0714 99.1973 76.0293 99.1973 76.0293 99.1973L75.0188 98.8164L74.261 98.4355C74.1768 98.4355 74.0926 98.3932 74.0084 98.3086C73.9242 98.224 73.84 98.1393 73.7558 98.0547C73.6716 97.8854 73.5874 97.7161 73.5032 97.5469C73.419 97.3776 73.419 97.2083 73.5032 97.0391C73.7558 95.8542 74.1347 94.8809 74.6399 94.1191C75.1451 93.3574 75.8609 92.765 76.7871 92.3418C77.545 91.9186 78.9764 91.2627 81.0815 90.374C83.1866 89.4854 85.1654 88.6602 87.0179 87.8984L88.0283 87.5176C88.0283 87.4329 88.0494 87.3906 88.0915 87.3906C88.1336 87.3906 88.1546 87.3906 88.1546 87.3906L88.6599 87.2637C88.6599 87.179 88.6809 87.1367 88.723 87.1367C88.7651 87.1367 88.7862 87.1367 88.7862 87.1367C88.8704 87.1367 88.9335 87.1367 88.9756 87.1367C89.0177 87.1367 89.0388 87.0944 89.0388 87.0098C89.123 87.0098 89.1861 87.0098 89.2282 87.0098C89.2703 87.0098 89.3335 86.9674 89.4177 86.8828C89.4177 86.8828 89.4388 86.8828 89.4809 86.8828C89.523 86.8828 89.544 86.8828 89.544 86.8828L89.6703 86.7559C89.7545 86.7559 89.8177 86.7347 89.8598 86.6924C89.9019 86.6501 89.965 86.6289 90.0492 86.6289C90.0492 86.6289 90.0703 86.6289 90.1124 86.6289C90.1545 86.6289 90.1755 86.6289 90.1755 86.6289C90.1755 86.6289 90.1966 86.6077 90.2387 86.5654C90.2808 86.5231 90.3018 86.502 90.3018 86.502V82.0586C90.0492 81.6354 89.8177 81.2122 89.6072 80.7891C89.3967 80.3659 89.1651 79.9427 88.9125 79.5195C88.8283 79.5195 88.7441 79.5195 88.6599 79.5195C88.5757 79.5195 88.4915 79.5195 88.4073 79.5195C87.5652 79.4349 86.8916 78.9271 86.3864 77.9961C85.8811 77.0651 85.4601 76.1341 85.1233 75.2031C84.7023 74.1029 84.4707 73.193 84.4286 72.4736C84.3865 71.7542 84.576 71.1829 84.997 70.7598C85.0812 70.7598 85.1444 70.7386 85.1865 70.6963C85.2286 70.654 85.2496 70.6328 85.2496 70.6328C84.997 69.3633 84.8917 67.6283 84.9338 65.4277C84.976 63.2272 85.6706 61.1536 87.0179 59.207C88.1125 57.6836 89.5861 56.541 91.4386 55.7793C93.2911 55.0176 95.5225 54.6367 98.1328 54.6367C100.743 54.6367 102.975 55.0387 104.827 55.8428C106.679 56.6468 108.153 57.7682 109.248 59.207C110.595 61.1536 111.29 63.2272 111.332 65.4277C111.374 67.6283 111.269 69.3633 111.016 70.6328C111.016 70.6328 111.037 70.654 111.079 70.6963C111.121 70.7386 111.184 70.7598 111.269 70.7598C111.69 71.1829 111.879 71.7542 111.837 72.4736C111.795 73.193 111.563 74.1029 111.142 75.2031C110.805 76.1341 110.384 77.0651 109.879 77.9961C109.374 78.9271 108.7 79.4349 107.858 79.5195C107.774 79.5195 107.69 79.5195 107.606 79.5195C107.522 79.5195 107.437 79.5195 107.353 79.5195C107.101 79.9427 106.869 80.3659 106.658 80.7891C106.448 81.2122 106.216 81.6354 105.964 82.0586V86.502C105.964 86.502 105.985 86.5231 106.027 86.5654C106.069 86.6077 106.132 86.6289 106.216 86.6289C106.216 86.6289 106.237 86.6289 106.28 86.6289C106.322 86.6289 106.385 86.6712 106.469 86.7559H106.595C106.679 86.8405 106.764 86.8828 106.848 86.8828C106.932 86.8828 107.016 86.9251 107.101 87.0098C107.185 87.0098 107.269 87.0309 107.353 87.0732C107.437 87.1156 107.522 87.1367 107.606 87.1367L108.111 87.3906C109.711 88.0677 111.774 88.9564 114.3 90.0566C116.826 91.1569 118.552 91.9186 119.478 92.3418C121.247 93.2728 122.32 94.7751 122.699 96.8486C123.078 98.9222 123.099 101.482 122.762 104.529C122.762 104.868 122.636 105.143 122.384 105.354C122.131 105.566 121.836 105.672 121.499 105.672ZM91.6912 103.133H120.363C120.615 100.001 120.51 97.8854 120.047 96.7852C119.584 95.6849 119.015 94.9655 118.342 94.627C117.5 94.2038 115.879 93.4844 113.479 92.4688C111.079 91.4531 108.995 90.5645 107.227 89.8027L106.974 89.6758L106.595 89.5488C106.511 89.4642 106.448 89.4219 106.406 89.4219C106.364 89.4219 106.301 89.3796 106.216 89.2949C106.216 89.2949 106.195 89.2949 106.153 89.2949C106.111 89.2949 106.09 89.2949 106.09 89.2949C106.006 89.2949 105.964 89.2949 105.964 89.2949C105.964 89.2949 105.964 89.2526 105.964 89.168H105.711C105.627 89.0833 105.564 89.041 105.522 89.041C105.48 89.041 105.416 88.9987 105.332 88.9141C105.248 88.9141 105.206 88.9141 105.206 88.9141C105.206 88.9141 105.164 88.9141 105.08 88.9141C105.08 88.9141 105.08 88.8929 105.08 88.8506C105.08 88.8083 105.038 88.7871 104.953 88.7871L104.195 88.4062C103.943 88.3216 103.753 88.1735 103.627 87.9619C103.501 87.7503 103.438 87.5176 103.438 87.2637V82.0586C103.353 81.8893 103.332 81.6989 103.374 81.4873C103.417 81.2757 103.48 81.0853 103.564 80.916C103.985 80.4082 104.364 79.8369 104.701 79.2021C105.038 78.5674 105.374 77.8691 105.711 77.1074C105.795 76.8535 105.943 76.6419 106.153 76.4727C106.364 76.3034 106.595 76.2188 106.848 76.2188C107.016 76.2188 107.185 76.2611 107.353 76.3457C107.522 76.4303 107.648 76.5573 107.732 76.7266C107.9 76.5573 108.069 76.2822 108.237 75.9014C108.406 75.5205 108.574 74.9915 108.742 74.3145C108.742 74.3145 108.742 74.2721 108.742 74.1875C108.827 74.0182 108.89 73.849 108.932 73.6797C108.974 73.5104 109.037 73.3835 109.121 73.2988C109.037 73.2142 108.932 73.1507 108.806 73.1084C108.679 73.0661 108.574 73.0449 108.49 73.0449C108.321 72.8757 108.195 72.6641 108.111 72.4102C108.027 72.1562 108.027 71.9023 108.111 71.6484C108.111 71.5638 108.343 70.252 108.806 67.7129C109.269 65.1738 108.742 62.8464 107.227 60.7305C106.385 59.5456 105.206 58.6569 103.69 58.0645C102.175 57.472 100.322 57.1758 98.1328 57.1758C95.9435 57.1758 94.091 57.472 92.5753 58.0645C91.0597 58.6569 89.8808 59.5456 89.0388 60.7305C87.5231 62.8464 86.9758 65.1738 87.3968 67.7129C87.8178 70.252 88.0704 71.5638 88.1546 71.6484C88.1546 71.9023 88.1336 72.1562 88.0915 72.4102C88.0494 72.6641 87.902 72.8757 87.6494 73.0449C87.5652 73.0449 87.481 73.0661 87.3968 73.1084C87.3126 73.1507 87.2284 73.2142 87.1442 73.2988C87.1442 73.4681 87.1863 73.6374 87.2705 73.8066C87.3547 73.9759 87.3968 74.1029 87.3968 74.1875C87.481 74.2721 87.5231 74.3145 87.5231 74.3145C87.6915 74.9915 87.8599 75.5205 88.0283 75.9014C88.1967 76.2822 88.3652 76.5573 88.5336 76.7266C88.6178 76.5573 88.7441 76.4303 88.9125 76.3457C89.0809 76.2611 89.2493 76.2188 89.4177 76.2188C89.6703 76.2188 89.9019 76.3034 90.1124 76.4727C90.3229 76.6419 90.4703 76.8535 90.5545 77.1074C90.8913 77.8691 91.2281 78.5674 91.5649 79.2021C91.9017 79.8369 92.2806 80.4082 92.7017 80.916C92.7859 81.0853 92.849 81.2757 92.8911 81.4873C92.9332 81.6989 92.9122 81.8893 92.828 82.0586V87.3906C92.828 87.6445 92.7648 87.8773 92.6385 88.0889C92.5122 88.3005 92.3227 88.4486 92.0701 88.5332L91.3123 88.9141C91.2281 88.9141 91.186 88.9141 91.186 88.9141C91.186 88.9141 91.1649 88.9141 91.1228 88.9141C91.0807 88.9141 91.0176 88.9564 90.9334 89.041C90.8492 89.041 90.786 89.041 90.7439 89.041C90.7018 89.041 90.6808 89.0833 90.6808 89.168C90.6808 89.168 90.6597 89.168 90.6176 89.168C90.5755 89.168 90.5545 89.168 90.5545 89.168H90.4281C90.4281 89.2526 90.4071 89.2949 90.365 89.2949C90.3229 89.2949 90.3018 89.2949 90.3018 89.2949H90.1755C90.0913 89.3796 89.9861 89.443 89.8598 89.4854C89.7335 89.5277 89.6282 89.5488 89.544 89.5488L89.2914 89.6758L89.0388 89.8027C88.9546 89.8027 88.9125 89.8027 88.9125 89.8027L88.0283 90.1836C86.1758 90.9453 84.1971 91.7705 82.092 92.6592C79.9869 93.5479 78.5975 94.2038 77.9239 94.627C77.5871 94.7962 77.2713 95.0078 76.9766 95.2617C76.6819 95.5156 76.4503 95.9388 76.2819 96.5312L76.7871 96.7852C76.8713 96.7852 76.9134 96.7852 76.9134 96.7852C76.9134 96.7852 76.9555 96.7852 77.0397 96.7852C79.4816 97.8008 82.0709 98.901 84.8075 100.086C87.5442 101.271 89.8387 102.286 91.6912 103.133ZM121.247 75.8379H112.658C112.321 75.8379 112.026 75.7109 111.774 75.457C111.521 75.2031 111.395 74.9069 111.395 74.5684C111.395 74.2298 111.521 73.9336 111.774 73.6797C112.026 73.4258 112.321 73.2988 112.658 73.2988H119.984V51.7168H103.69C103.438 51.7168 103.185 51.6322 102.932 51.4629C102.68 51.2936 102.511 51.0397 102.427 50.7012C102.09 49.2624 101.585 47.7601 100.912 46.1943C100.238 44.6286 99.4801 43.0417 98.638 41.4336C98.4696 41.1797 98.4065 40.9046 98.4486 40.6084C98.4907 40.3122 98.5959 40.0794 98.7643 39.9102L110.258 28.3574L95.3541 13.25L83.8602 24.8027C83.6076 25.0566 83.355 25.1836 83.1024 25.1836C82.8498 25.1836 82.5972 25.1413 82.3446 25.0566C80.9973 24.2949 79.5658 23.5967 78.0502 22.9619C76.5345 22.3271 74.8504 21.7135 72.9979 21.1211C72.7453 21.0365 72.5348 20.8883 72.3664 20.6768C72.198 20.4652 72.1138 20.2324 72.1138 19.9785V3.47461H50.6418V19.9785C50.6418 20.2324 50.5576 20.4652 50.3892 20.6768C50.2208 20.8883 49.9682 21.0365 49.6314 21.1211C48.1999 21.5443 46.7474 22.0944 45.2738 22.7715C43.8003 23.4486 42.3056 24.168 40.79 24.9297L40.4111 25.0566C40.1584 25.2259 39.8848 25.2894 39.5901 25.2471C39.2954 25.2048 39.0638 25.0566 38.8954 24.8027L27.4016 13.25L20.96 19.5977L12.3712 28.3574L23.865 39.9102C24.1176 40.0794 24.2439 40.3122 24.2439 40.6084C24.2439 40.9046 24.2018 41.1797 24.1176 41.4336C23.3598 42.7878 22.6651 44.2266 22.0336 45.75C21.402 47.2734 20.7916 48.9661 20.2021 50.8281C20.1179 51.082 19.9706 51.2936 19.7601 51.4629C19.5495 51.6322 19.318 51.7168 19.0654 51.7168H2.64562V73.2988H10.3503C10.6871 73.2988 10.9818 73.4258 11.2344 73.6797C11.487 73.9336 11.6133 74.2298 11.6133 74.5684C11.6133 74.9069 11.487 75.2031 11.2344 75.457C10.9818 75.7109 10.6871 75.8379 10.3503 75.8379H1.38256C1.04575 75.8379 0.751032 75.7109 0.49842 75.457C0.245809 75.2031 0.119503 74.9069 0.119503 74.5684V50.4473C0.119503 50.1087 0.245809 49.8125 0.49842 49.5586C0.751032 49.3047 1.04575 49.1777 1.38256 49.1777H18.0549C18.6444 47.6543 19.1917 46.2155 19.6969 44.8613C20.2021 43.5072 20.7916 42.2376 21.4652 41.0527L9.71874 29.2461C9.46613 28.9922 9.33983 28.696 9.33983 28.3574C9.33983 28.0189 9.46613 27.7227 9.71874 27.4688L19.1917 17.8203L26.5174 10.584C26.77 10.3301 27.0647 10.2031 27.4016 10.2031C27.7384 10.2031 28.0331 10.3301 28.2857 10.584L40.0321 22.3906C41.3794 21.7135 42.7267 21.0788 44.0739 20.4863C45.4212 19.8939 46.7684 19.3861 48.1157 18.9629V2.20508C48.1157 1.86654 48.242 1.57031 48.4946 1.31641C48.7472 1.0625 49.042 0.935547 49.3788 0.935547H73.3769C73.7137 0.935547 74.0084 1.0625 74.261 1.31641C74.5136 1.57031 74.6399 1.86654 74.6399 2.20508V18.9629C76.1556 19.4707 77.5871 19.9997 78.9343 20.5498C80.2816 21.0999 81.5446 21.7135 82.7235 22.3906L94.4699 10.584C94.5541 10.4147 94.6804 10.3089 94.8489 10.2666C95.0173 10.2243 95.1857 10.2031 95.3541 10.2031C95.5225 10.2031 95.6909 10.2243 95.8593 10.2666C96.0277 10.3089 96.154 10.4147 96.2382 10.584L113.037 27.4688C113.289 27.7227 113.416 28.0189 113.416 28.3574C113.416 28.696 113.289 28.9922 113.037 29.2461L101.29 41.0527C101.964 42.4915 102.596 43.8669 103.185 45.1787C103.774 46.4906 104.28 47.8236 104.701 49.1777H121.373C121.71 49.1777 122.005 49.3047 122.257 49.5586C122.51 49.8125 122.636 50.1087 122.636 50.4473V74.5684C122.552 74.9069 122.405 75.2031 122.194 75.457C121.984 75.7109 121.668 75.8379 121.247 75.8379ZM93.8384 57.6836C93.5016 57.6836 93.2279 57.5778 93.0174 57.3662C92.8069 57.1546 92.6596 56.8796 92.5753 56.541C92.5753 56.3717 92.5543 56.1813 92.5122 55.9697C92.4701 55.7581 92.4069 55.5677 92.3227 55.3984C92.3227 55.0599 92.4069 54.7425 92.5753 54.4463C92.7438 54.1501 92.9964 53.9596 93.3332 53.875C93.67 53.7904 93.9858 53.8538 94.2805 54.0654C94.5752 54.277 94.7646 54.5521 94.8489 54.8906C94.8489 55.0599 94.8699 55.2503 94.912 55.4619C94.9541 55.6735 95.0173 55.9062 95.1015 56.1602C95.1857 56.4987 95.1225 56.8161 94.912 57.1123C94.7015 57.4085 94.4278 57.599 94.091 57.6836C94.0068 57.6836 93.9437 57.6836 93.9016 57.6836C93.8595 57.6836 93.8384 57.6836 93.8384 57.6836ZM30.5592 51.4629C30.5592 51.4629 30.5171 51.4629 30.4329 51.4629C30.3487 51.4629 30.2645 51.4629 30.1803 51.4629C29.8435 51.2936 29.5909 51.0609 29.4224 50.7646C29.254 50.4684 29.254 50.151 29.4224 49.8125C29.5909 49.3893 29.7593 48.9661 29.9277 48.543C30.0961 48.1198 30.2645 47.6966 30.4329 47.2734C30.6013 46.9349 30.8539 46.7233 31.1907 46.6387C31.5275 46.554 31.8644 46.554 32.2012 46.6387C32.538 46.8079 32.7485 47.0619 32.8327 47.4004C32.9169 47.7389 32.9169 48.0775 32.8327 48.416C32.5801 48.7546 32.3906 49.1143 32.2643 49.4951C32.138 49.876 31.9907 50.278 31.8223 50.7012C31.7381 50.9551 31.5696 51.1455 31.317 51.2725C31.0644 51.3994 30.8118 51.4629 30.5592 51.4629ZM92.1964 51.4629C91.9438 51.4629 91.6912 51.3994 91.4386 51.2725C91.186 51.1455 91.0176 50.9551 90.9334 50.7012C90.765 50.278 90.6176 49.876 90.4913 49.4951C90.365 49.1143 90.1755 48.7546 89.9229 48.416C89.8387 48.0775 89.8387 47.7389 89.9229 47.4004C90.0071 47.0619 90.2176 46.8079 90.5545 46.6387C90.8913 46.554 91.2281 46.554 91.5649 46.6387C91.9017 46.7233 92.1543 46.9349 92.3227 47.2734C92.4911 47.6966 92.6596 48.1198 92.828 48.543C92.9964 48.9661 93.1648 49.3893 93.3332 49.8125C93.4174 50.0664 93.3963 50.3626 93.27 50.7012C93.1437 51.0397 92.9122 51.2936 92.5753 51.4629C92.4911 51.4629 92.428 51.4629 92.3859 51.4629C92.3438 51.4629 92.2806 51.4629 92.1964 51.4629ZM34.2221 44.7344C34.0537 44.7344 33.9063 44.7132 33.78 44.6709C33.6537 44.6286 33.5484 44.5651 33.4642 44.4805C33.2116 44.2266 33.0432 43.9303 32.959 43.5918C32.8748 43.2533 32.9169 42.957 33.0853 42.7031C33.3379 42.2799 33.6116 41.8991 33.9063 41.5605C34.201 41.222 34.4747 40.8835 34.7273 40.5449C34.9799 40.291 35.2746 40.1429 35.6114 40.1006C35.9482 40.0583 36.243 40.1217 36.4956 40.291C36.7482 40.5449 36.8955 40.8411 36.9376 41.1797C36.9797 41.5182 36.9166 41.8145 36.7482 42.0684C36.4956 42.4069 36.243 42.7454 35.9904 43.084C35.7377 43.4225 35.4851 43.7611 35.2325 44.0996C35.1483 44.2689 35.001 44.417 34.7904 44.5439C34.5799 44.6709 34.3905 44.7344 34.2221 44.7344ZM88.5336 44.6074C88.3652 44.6074 88.1967 44.5651 88.0283 44.4805C87.8599 44.3958 87.6915 44.2689 87.5231 44.0996C87.2705 43.7611 87.0389 43.4225 86.8284 43.084C86.6179 42.7454 86.3864 42.4069 86.1338 42.0684C85.8811 41.8145 85.7759 41.5182 85.818 41.1797C85.8601 40.8411 86.0074 40.5449 86.2601 40.291C86.5127 40.1217 86.8284 40.0583 87.2074 40.1006C87.5863 40.1429 87.8599 40.291 88.0283 40.5449C88.281 40.8835 88.5546 41.2432 88.8493 41.624C89.144 42.0049 89.4177 42.3646 89.6703 42.7031C89.8387 42.957 89.9019 43.2533 89.8598 43.5918C89.8177 43.9303 89.6282 44.2266 89.2914 44.4805C89.2072 44.5651 89.1019 44.6074 88.9756 44.6074C88.8493 44.6074 88.702 44.6074 88.5336 44.6074ZM39.148 38.8945C38.9796 38.8945 38.8322 38.8522 38.7059 38.7676C38.5796 38.6829 38.4323 38.5983 38.2639 38.5137C38.0112 38.2598 37.906 37.9424 37.9481 37.5615C37.9902 37.1807 38.1376 36.8633 38.3902 36.6094C38.6428 36.3555 38.9585 36.0804 39.3375 35.7842C39.7164 35.488 40.0742 35.2129 40.4111 34.959C40.6637 34.7051 40.9584 34.5993 41.2952 34.6416C41.632 34.6839 41.9267 34.8744 42.1793 35.2129C42.3477 35.4668 42.4109 35.763 42.3688 36.1016C42.3267 36.4401 42.1793 36.7363 41.9267 36.9902C41.5899 37.2441 41.2531 37.498 40.9163 37.752C40.5795 38.0059 40.2847 38.2598 40.0321 38.5137C39.9479 38.6829 39.8216 38.7887 39.6532 38.8311C39.4848 38.8734 39.3164 38.8945 39.148 38.8945ZM83.4813 38.8945C83.3971 38.8945 83.2708 38.8734 83.1024 38.8311C82.934 38.7887 82.8077 38.6829 82.7235 38.5137C82.3867 38.2598 82.0709 38.0059 81.7762 37.752C81.4815 37.498 81.1657 37.2441 80.8289 36.9902C80.4921 36.7363 80.3026 36.4401 80.2605 36.1016C80.2184 35.763 80.3237 35.4668 80.5763 35.2129C80.7447 34.8744 81.0184 34.6839 81.3973 34.6416C81.7762 34.5993 82.092 34.7051 82.3446 34.959C82.6814 35.2129 83.0182 35.488 83.355 35.7842C83.6918 36.0804 84.0287 36.3555 84.3655 36.6094C84.6181 36.8633 84.7444 37.1595 84.7444 37.498C84.7444 37.8366 84.6181 38.1751 84.3655 38.5137C84.2813 38.5983 84.176 38.6829 84.0497 38.7676C83.9234 38.8522 83.7339 38.8945 83.4813 38.8945ZM45.4633 34.4512C45.2107 34.4512 44.9791 34.3877 44.7686 34.2607C44.5581 34.1338 44.4107 33.9434 44.3265 33.6895C44.1581 33.4355 44.116 33.1393 44.2002 32.8008C44.2844 32.4622 44.4949 32.2083 44.8318 32.0391C45.2528 31.7852 45.6527 31.5736 46.0317 31.4043C46.4106 31.235 46.8105 31.0234 47.2316 30.7695C47.5684 30.6849 47.8841 30.7061 48.1789 30.833C48.4736 30.96 48.7051 31.1504 48.8735 31.4043C49.042 31.7428 49.063 32.0814 48.9367 32.4199C48.8104 32.7585 48.5788 33.0124 48.242 33.1816C47.9052 33.3509 47.5473 33.5202 47.1684 33.6895C46.7895 33.8587 46.4316 34.028 46.0948 34.1973C45.9264 34.2819 45.8001 34.3454 45.7159 34.3877C45.6317 34.43 45.5475 34.4512 45.4633 34.4512ZM77.2923 34.3242C77.2081 34.3242 77.1029 34.3242 76.9766 34.3242C76.8503 34.3242 76.745 34.2819 76.6608 34.1973C76.324 34.028 75.9661 33.8587 75.5872 33.6895C75.2083 33.5202 74.8504 33.3086 74.5136 33.0547C74.1768 32.9701 73.9452 32.7585 73.8189 32.4199C73.6926 32.0814 73.7137 31.7428 73.8821 31.4043C73.9663 31.0658 74.1768 30.8542 74.5136 30.7695C74.8504 30.6849 75.1872 30.6849 75.5241 30.7695C75.9451 30.9388 76.3451 31.1292 76.724 31.3408C77.1029 31.5524 77.5029 31.7852 77.9239 32.0391C78.1765 32.2083 78.3659 32.4622 78.4922 32.8008C78.6186 33.1393 78.5975 33.4355 78.4291 33.6895C78.2607 33.9434 78.0923 34.1126 77.9239 34.1973C77.7555 34.2819 77.545 34.3242 77.2923 34.3242ZM52.5364 31.5312C52.2838 31.5312 52.0312 31.4466 51.7786 31.2773C51.526 31.1081 51.3576 30.8542 51.2734 30.5156C51.1891 30.1771 51.2313 29.8597 51.3997 29.5635C51.5681 29.2673 51.8207 29.0768 52.1575 28.9922C52.5785 28.8229 52.9995 28.696 53.4206 28.6113C53.8416 28.5267 54.3047 28.4421 54.8099 28.3574C55.1467 28.2728 55.4414 28.3363 55.6941 28.5479C55.9467 28.7594 56.1151 29.0345 56.1993 29.373C56.2835 29.7116 56.2414 30.029 56.073 30.3252C55.9046 30.6214 55.652 30.8119 55.3151 30.8965C54.8941 30.8965 54.4731 30.96 54.0521 31.0869C53.6311 31.2139 53.2521 31.3197 52.9153 31.4043C52.8311 31.4043 52.768 31.4255 52.7259 31.4678C52.6838 31.5101 52.6206 31.5312 52.5364 31.5312ZM70.2192 31.4043C70.135 31.4043 70.0719 31.4043 70.0298 31.4043C69.9877 31.4043 69.9245 31.4043 69.8403 31.4043C69.5035 31.3197 69.1246 31.235 68.7036 31.1504C68.2825 31.0658 67.8615 30.9811 67.4405 30.8965C67.1037 30.8119 66.8511 30.6214 66.6827 30.3252C66.5143 30.029 66.43 29.7116 66.43 29.373C66.5143 29.0345 66.7037 28.7594 66.9984 28.5479C67.2931 28.3363 67.6089 28.2728 67.9457 28.3574C68.3667 28.4421 68.8088 28.5267 69.2719 28.6113C69.735 28.696 70.1771 28.8229 70.5981 28.9922C70.935 29.0768 71.1876 29.2673 71.356 29.5635C71.5244 29.8597 71.5665 30.1771 71.4823 30.5156C71.3981 30.7695 71.2297 30.9811 70.9771 31.1504C70.7244 31.3197 70.4718 31.4043 70.2192 31.4043ZM60.1148 30.2617C59.7779 30.2617 59.4832 30.1559 59.2306 29.9443C58.978 29.7327 58.8517 29.4577 58.8517 29.1191C58.8517 28.696 58.957 28.3574 59.1675 28.1035C59.378 27.8496 59.6516 27.7227 59.9885 27.7227C60.4937 27.7227 60.9568 27.7227 61.3778 27.7227C61.7988 27.7227 62.2199 27.7227 62.6409 27.7227C63.0619 27.7227 63.3777 27.8496 63.5882 28.1035C63.7987 28.3574 63.9039 28.696 63.9039 29.1191C63.9039 29.4577 63.7776 29.7327 63.525 29.9443C63.2724 30.1559 62.9777 30.2617 62.6409 30.2617C62.2199 30.2617 61.7988 30.2617 61.3778 30.2617C60.9568 30.2617 60.5358 30.2617 60.1148 30.2617ZM28.9172 57.6836C28.833 57.6836 28.7699 57.6836 28.7278 57.6836C28.6857 57.6836 28.6646 57.6836 28.6646 57.6836C28.3278 57.599 28.0541 57.4085 27.8436 57.1123C27.6331 56.8161 27.57 56.4987 27.6542 56.1602C27.6542 55.9909 27.6752 55.8005 27.7173 55.5889C27.7594 55.3773 27.8226 55.1445 27.9068 54.8906C27.991 54.5521 28.1804 54.2982 28.4752 54.1289C28.7699 53.9596 29.0856 53.875 29.4224 53.875C29.7593 53.9596 30.0119 54.1501 30.1803 54.4463C30.3487 54.7425 30.3908 55.0599 30.3066 55.3984C30.3066 55.6523 30.2855 55.8639 30.2434 56.0332C30.2013 56.2025 30.1382 56.4141 30.054 56.668C30.054 56.9219 29.9277 57.1546 29.6751 57.3662C29.4224 57.5778 29.1698 57.6836 28.9172 57.6836Z" fill="#DC052D"/>
</svg>
