<svg width="110" height="125" viewBox="0 0 110 125" fill="none" xmlns="http://www.w3.org/2000/svg">
<path d="M47.5634 124.699C47.3949 124.699 47.2476 124.678 47.1213 124.636C46.995 124.593 46.8476 124.53 46.6792 124.445C43.7321 122.076 40.8691 119.663 38.0904 117.209C35.3959 114.67 32.8277 112.067 30.3858 109.401C27.9438 106.735 25.6282 103.964 23.4389 101.086C21.2496 98.293 19.1866 95.4154 17.25 92.4531C14.2186 87.7135 11.5662 82.8047 9.29269 77.7266C7.01919 72.6484 5.1667 67.4434 3.73524 62.1113C1.20912 53.0553 -0.0328879 45.5863 0.009214 39.7041C0.0513159 33.8219 0.0723669 30.7116 0.0723669 30.373C0.0723669 30.1191 0.198673 29.8864 0.451284 29.6748C0.703896 29.4632 0.998609 29.3574 1.33542 29.3574C5.2088 29.3574 8.91377 28.9766 12.4503 28.2148C15.9869 27.4531 19.3551 26.3529 22.5548 24.9141C25.1651 23.7292 27.6281 22.3327 29.9437 20.7246C32.2593 19.1165 34.4275 17.2969 36.4484 15.2656C39.9008 11.7956 42.4059 8.57943 43.9636 5.61719C45.5214 2.65495 46.3003 1.13151 46.3003 1.04688C46.4687 0.792969 46.6582 0.602539 46.8687 0.475586C47.0792 0.348633 47.3107 0.285156 47.5634 0.285156C47.816 0.285156 48.0475 0.348633 48.258 0.475586C48.4685 0.602539 48.6159 0.792969 48.7001 1.04688C48.7001 1.13151 49.479 2.63379 51.0368 5.55371C52.5945 8.47363 55.0996 11.7109 58.552 15.2656C60.5728 17.2969 62.7621 19.1165 65.1199 20.7246C67.4776 22.3327 69.9195 23.7292 72.4456 24.9141C75.6453 26.3529 79.0345 27.4531 82.6132 28.2148C86.1919 28.9766 89.8758 29.3574 93.665 29.3574C94.0018 29.3574 94.2965 29.4632 94.5491 29.6748C94.8017 29.8864 94.928 30.1191 94.928 30.373C95.0122 30.7116 95.0333 34.224 94.9912 40.9102C94.9491 47.5964 93.3281 56.0176 90.1284 66.1738C90.0442 66.3431 89.9389 66.4912 89.8126 66.6182C89.6863 66.7451 89.5811 66.8509 89.4969 66.9355C89.3285 67.0202 89.1601 67.0625 88.9917 67.0625C88.8232 67.0625 88.6548 67.0202 88.4864 66.9355C86.9708 66.3431 85.4551 65.8988 83.9394 65.6025C82.4238 65.3063 80.866 65.1159 79.2661 65.0312C79.0977 65.0312 78.9503 65.0312 78.824 65.0312C78.6977 65.0312 78.5083 65.0312 78.2557 65.0312C74.3823 65.0312 70.7194 65.793 67.2671 67.3164C63.8989 68.7552 60.9307 70.7653 58.3625 73.3467C55.7943 75.9281 53.7523 78.9538 52.2367 82.4238C50.8052 85.8939 50.0895 89.5755 50.0895 93.4688C50.0895 95.5 50.2789 97.4889 50.6578 99.4355C51.0368 101.382 51.6472 103.286 52.4893 105.148C53.2471 106.757 54.1313 108.28 55.1417 109.719C56.1521 111.158 57.2889 112.512 58.552 113.781C58.6362 113.866 58.7204 113.993 58.8046 114.162C58.8888 114.331 58.9309 114.501 58.9309 114.67C58.9309 114.839 58.8888 115.008 58.8046 115.178C58.7204 115.347 58.6362 115.474 58.552 115.559C56.9521 117.082 55.2891 118.584 53.5629 120.065C51.8367 121.547 50.0474 123.007 48.1949 124.445C48.1107 124.53 48.0054 124.593 47.8791 124.636C47.7528 124.678 47.6476 124.699 47.5634 124.699ZM2.47218 31.7695C2.38797 33.5469 2.47218 37.1016 2.72479 42.4336C2.9774 47.7656 4.11415 54.1133 6.13505 61.4766C7.65072 66.724 9.52425 71.8232 11.7557 76.7744C13.9871 81.7256 16.5763 86.5286 19.5235 91.1836C21.2917 93.9766 23.2284 96.7272 25.3335 99.4355C27.4386 102.144 29.649 104.789 31.9646 107.37C34.2802 109.951 36.7432 112.427 39.3535 114.797C41.9638 117.251 44.7004 119.579 47.5634 121.779C48.9948 120.679 50.4052 119.515 51.7946 118.288C53.184 117.061 54.5523 115.855 55.8995 114.67C54.7207 113.4 53.6471 112.046 52.6787 110.607C51.7104 109.169 50.8894 107.688 50.2158 106.164C49.3737 104.133 48.7212 102.059 48.258 99.9434C47.7949 97.8275 47.5634 95.6693 47.5634 93.4688C47.5634 89.237 48.3633 85.2168 49.9632 81.4082C51.563 77.6842 53.7523 74.4046 56.5311 71.5693C59.3098 68.7341 62.5937 66.5124 66.3829 64.9043C70.0879 63.2962 74.0876 62.4922 78.382 62.4922C78.5504 62.4922 78.7188 62.4922 78.8872 62.4922C79.0556 62.4922 79.224 62.4922 79.3924 62.4922C80.8239 62.5768 82.2764 62.7461 83.75 63C85.2235 63.2539 86.676 63.6348 88.1075 64.1426C89.539 59.2337 90.5705 54.748 91.202 50.6855C91.8335 46.623 92.2335 43.2376 92.4019 40.5293C92.5703 38.498 92.6545 36.7419 92.6545 35.2607C92.6545 33.7796 92.6124 32.6159 92.5282 31.7695C83.6868 31.6003 76.34 29.9287 70.4878 26.7549C64.6357 23.5811 60.0255 20.3014 56.6574 16.916C54.2997 14.5462 52.363 12.2399 50.8473 9.99707C49.3316 7.75423 48.1949 5.91341 47.437 4.47461C46.7634 5.91341 45.6688 7.75423 44.1531 9.99707C42.6374 12.2399 40.6586 14.5462 38.2167 16.916C34.9328 20.2168 30.3647 23.4753 24.5125 26.6914C18.6604 29.9076 11.3136 31.6003 2.47218 31.7695ZM47.5634 110.1C47.3949 110.1 47.2476 110.078 47.1213 110.036C46.995 109.994 46.8476 109.93 46.6792 109.846C42.1322 106.206 37.9852 102.355 34.2381 98.293C30.491 94.2305 27.186 89.9564 24.3231 85.4707C21.9654 81.8314 19.9234 78.0651 18.1972 74.1719C16.4711 70.2786 15.0607 66.3008 13.966 62.2383C12.0293 55.2982 11.082 49.5853 11.1241 45.0996C11.1662 40.6139 11.1873 38.2865 11.1873 38.1172C11.1873 37.7786 11.3136 37.5036 11.5662 37.292C11.8188 37.0804 12.1135 36.9746 12.4503 36.9746C19.0182 36.9746 24.4704 36.0225 28.8069 34.1182C33.1434 32.2139 36.5326 30.2884 38.9746 28.3418C41.5849 26.2259 43.4795 24.2793 44.6583 22.502C45.8372 20.7246 46.4266 19.7936 46.4266 19.709C46.5108 19.5397 46.6582 19.3916 46.8687 19.2646C47.0792 19.1377 47.3107 19.0742 47.5634 19.0742C47.816 19.0742 48.0265 19.1377 48.1949 19.2646C48.3633 19.3916 48.5317 19.5397 48.7001 19.709C48.7001 19.7936 49.2895 20.7246 50.4684 22.502C51.6472 24.2793 53.5418 26.2259 56.1521 28.3418C58.5099 30.2884 61.878 32.2139 66.2566 34.1182C70.6352 36.0225 76.1085 36.9746 82.6764 36.9746C83.0132 36.9746 83.2868 37.0804 83.4973 37.292C83.7079 37.5036 83.8552 37.7786 83.9394 38.1172C83.9394 38.2865 83.9394 40.8044 83.9394 45.6709C83.9394 50.5374 82.8027 56.6947 80.5292 64.1426C80.445 64.3965 80.2976 64.6081 80.0871 64.7773C79.8766 64.9466 79.6029 65.0312 79.2661 65.0312C79.1819 65.0312 79.0556 65.0312 78.8872 65.0312C78.7188 65.0312 78.5504 65.0312 78.382 65.0312C74.5086 65.0312 70.8457 65.7507 67.3934 67.1895C63.941 68.7129 60.9307 70.7653 58.3625 73.3467C55.7943 75.9281 53.7944 78.9538 52.363 82.4238C50.8473 85.8092 50.0895 89.4909 50.0895 93.4688C50.0895 95.5 50.3 97.4889 50.721 99.4355C51.142 101.382 51.7735 103.244 52.6156 105.021C52.6998 105.275 52.7208 105.55 52.6787 105.847C52.6366 106.143 52.4893 106.376 52.2367 106.545C51.6472 107.053 51.0157 107.582 50.3421 108.132C49.6684 108.682 48.9948 109.211 48.3212 109.719C48.237 109.888 48.1107 109.994 47.9423 110.036C47.7739 110.078 47.6476 110.1 47.5634 110.1ZM13.5871 39.5137C13.5029 40.9525 13.566 43.6608 13.7765 47.6387C13.9871 51.6165 14.8501 56.3138 16.3658 61.7305C17.4605 65.6237 18.8498 69.4534 20.5339 73.2197C22.218 76.986 24.1968 80.6042 26.4703 84.0742C29.1648 88.3906 32.2803 92.4743 35.8169 96.3252C39.3535 100.176 43.269 103.794 47.5634 107.18C47.9002 106.841 48.2791 106.524 48.7001 106.228C49.1211 105.931 49.5 105.614 49.8369 105.275C49.079 103.413 48.5106 101.488 48.1317 99.499C47.7528 97.5101 47.5634 95.5 47.5634 93.4688C47.5634 89.237 48.3633 85.2168 49.9632 81.4082C51.563 77.6842 53.7523 74.4046 56.5311 71.5693C59.3098 68.7341 62.5937 66.5124 66.3829 64.9043C70.0879 63.2962 74.0876 62.4922 78.382 62.4922C79.9818 56.9062 80.9081 52.0397 81.1607 47.8926C81.4133 43.7454 81.4975 40.9525 81.4133 39.5137C74.7612 39.3444 69.2248 38.2653 64.8041 36.2764C60.3834 34.2874 56.91 32.2773 54.3839 30.2461C52.6156 28.8073 51.1841 27.432 50.0895 26.1201C48.9948 24.8083 48.1528 23.6869 47.5634 22.7559C46.9739 23.6869 46.1108 24.8083 44.9741 26.1201C43.8373 27.432 42.3848 28.8073 40.6165 30.2461C38.0904 32.2773 34.617 34.2874 30.1963 36.2764C25.7756 38.2653 20.2392 39.3444 13.5871 39.5137ZM78.382 124.445C78.2136 124.445 78.0872 124.445 78.003 124.445C77.9188 124.445 77.8346 124.445 77.7504 124.445C77.3294 124.445 77.0136 124.318 76.8031 124.064C76.5926 123.811 76.4874 123.514 76.4874 123.176C76.4874 122.837 76.6137 122.541 76.8663 122.287C77.1189 122.033 77.4136 121.906 77.7504 121.906C78.1715 121.906 78.5714 121.906 78.9503 121.906C79.3293 121.906 79.7292 121.906 80.1502 121.906C80.4871 121.822 80.7818 121.906 81.0344 122.16C81.287 122.414 81.4133 122.71 81.4133 123.049C81.4975 123.387 81.4133 123.684 81.1607 123.938C80.9081 124.191 80.6134 124.361 80.2766 124.445C79.9397 124.445 79.624 124.445 79.3293 124.445C79.0345 124.445 78.7188 124.445 78.382 124.445ZM72.8245 123.938C72.8245 123.938 72.8035 123.938 72.7614 123.938C72.7193 123.938 72.6561 123.938 72.5719 123.938C72.1509 123.853 71.7299 123.768 71.3088 123.684C70.8878 123.599 70.4668 123.472 70.0458 123.303C69.709 123.218 69.4564 123.028 69.2879 122.731C69.1195 122.435 69.0774 122.118 69.1616 121.779C69.2458 121.441 69.4564 121.187 69.7932 121.018C70.13 120.848 70.4668 120.806 70.8036 120.891C71.1404 120.975 71.4983 121.06 71.8772 121.145C72.2561 121.229 72.6561 121.314 73.0771 121.398C73.4139 121.483 73.6876 121.674 73.8981 121.97C74.1086 122.266 74.1718 122.583 74.0876 122.922C74.0034 123.176 73.856 123.409 73.6455 123.62C73.435 123.832 73.1613 123.938 72.8245 123.938ZM85.0762 123.684C84.8236 123.684 84.5709 123.578 84.3183 123.366C84.0657 123.155 83.8973 122.922 83.8131 122.668C83.8131 122.329 83.8973 122.012 84.0657 121.716C84.2341 121.42 84.4867 121.229 84.8236 121.145C85.1604 121.06 85.5182 120.954 85.8972 120.827C86.2761 120.7 86.676 120.594 87.0971 120.51C87.4339 120.425 87.7496 120.467 88.0444 120.637C88.3391 120.806 88.5285 121.018 88.6127 121.271C88.7811 121.61 88.7811 121.949 88.6127 122.287C88.4443 122.626 88.1917 122.837 87.8549 122.922C87.4339 123.091 87.0129 123.218 86.5918 123.303C86.1708 123.387 85.7498 123.472 85.3288 123.557C85.3288 123.641 85.3077 123.684 85.2656 123.684C85.2235 123.684 85.1604 123.684 85.0762 123.684ZM65.7514 121.652C65.6672 121.652 65.583 121.631 65.4988 121.589C65.4146 121.547 65.3304 121.525 65.2462 121.525C64.8251 121.356 64.4252 121.166 64.0463 120.954C63.6673 120.743 63.3095 120.51 62.9727 120.256C62.6358 120.087 62.4253 119.833 62.3411 119.494C62.2569 119.156 62.299 118.859 62.4674 118.605C62.6358 118.267 62.8885 118.055 63.2253 117.971C63.5621 117.886 63.8989 117.928 64.2357 118.098C64.5725 118.352 64.9093 118.563 65.2462 118.732C65.583 118.902 65.9198 119.071 66.2566 119.24C66.5934 119.41 66.825 119.642 66.9513 119.938C67.0776 120.235 67.0565 120.552 66.8881 120.891C66.8039 121.145 66.6566 121.335 66.4461 121.462C66.2356 121.589 66.004 121.652 65.7514 121.652ZM92.023 121.018C91.8546 121.018 91.6651 120.975 91.4546 120.891C91.2441 120.806 91.0546 120.637 90.8862 120.383C90.7178 120.044 90.6968 119.706 90.8231 119.367C90.9494 119.029 91.181 118.775 91.5178 118.605C91.8546 118.436 92.1914 118.267 92.5282 118.098C92.865 117.928 93.2018 117.717 93.5387 117.463C93.7913 117.294 94.086 117.251 94.4228 117.336C94.7596 117.421 95.0543 117.59 95.3069 117.844C95.4753 118.098 95.5174 118.415 95.4332 118.796C95.349 119.177 95.1806 119.452 94.928 119.621C94.507 119.79 94.1281 120.002 93.7913 120.256C93.4545 120.51 93.0755 120.721 92.6545 120.891C92.5703 120.975 92.4651 121.018 92.3388 121.018C92.2124 121.018 92.1072 121.018 92.023 121.018ZM59.5624 117.59C59.394 117.59 59.2466 117.569 59.1203 117.526C58.994 117.484 58.8467 117.421 58.6783 117.336C58.4257 117.082 58.1309 116.807 57.7941 116.511C57.4573 116.215 57.1205 115.939 56.7837 115.686C56.5311 115.432 56.4048 115.114 56.4048 114.733C56.4048 114.353 56.5311 114.035 56.7837 113.781C57.0363 113.527 57.331 113.4 57.6678 113.4C58.0046 113.4 58.2993 113.527 58.552 113.781C58.8046 114.035 59.0993 114.31 59.4361 114.606C59.7729 114.903 60.0676 115.178 60.3202 115.432C60.5728 115.601 60.7202 115.876 60.7623 116.257C60.8044 116.638 60.7413 116.955 60.5728 117.209C60.4044 117.378 60.236 117.484 60.0676 117.526C59.8992 117.569 59.7308 117.59 59.5624 117.59ZM98.0857 116.828C97.9173 116.828 97.7489 116.786 97.5804 116.701C97.412 116.617 97.2857 116.49 97.2015 116.32C96.9489 116.066 96.8226 115.77 96.8226 115.432C96.8226 115.093 96.991 114.797 97.3278 114.543C97.5804 114.289 97.8541 114.014 98.1488 113.718C98.4435 113.422 98.7172 113.146 98.9698 112.893C99.2224 112.639 99.5171 112.512 99.854 112.512C100.191 112.512 100.485 112.639 100.738 112.893C100.991 113.062 101.117 113.337 101.117 113.718C101.117 114.099 101.033 114.416 100.864 114.67C100.528 115.008 100.212 115.326 99.9171 115.622C99.6224 115.918 99.3066 116.193 98.9698 116.447C98.8856 116.532 98.7593 116.617 98.5909 116.701C98.4225 116.786 98.2541 116.828 98.0857 116.828ZM54.5102 112.258C54.2576 112.258 54.0471 112.215 53.8786 112.131C53.7102 112.046 53.5839 111.919 53.4997 111.75C53.2471 111.411 52.9945 111.052 52.7419 110.671C52.4893 110.29 52.2367 109.93 51.9841 109.592C51.8156 109.253 51.7735 108.915 51.8577 108.576C51.942 108.238 52.1525 107.984 52.4893 107.814C52.7419 107.645 53.0366 107.603 53.3734 107.688C53.7102 107.772 53.9628 107.941 54.1313 108.195C54.3839 108.534 54.6154 108.872 54.8259 109.211C55.0364 109.549 55.268 109.888 55.5206 110.227C55.689 110.48 55.7522 110.777 55.7101 111.115C55.668 111.454 55.5206 111.75 55.268 112.004C55.0996 112.089 54.9522 112.152 54.8259 112.194C54.6996 112.237 54.5944 112.258 54.5102 112.258ZM103.012 111.242C102.843 111.242 102.696 111.221 102.57 111.179C102.443 111.136 102.338 111.073 102.254 110.988C102.001 110.819 101.833 110.565 101.749 110.227C101.664 109.888 101.706 109.549 101.875 109.211C102.127 108.872 102.359 108.534 102.57 108.195C102.78 107.857 102.969 107.518 103.138 107.18C103.306 106.926 103.559 106.735 103.896 106.608C104.233 106.481 104.569 106.503 104.906 106.672C105.159 106.841 105.348 107.095 105.475 107.434C105.601 107.772 105.58 108.111 105.411 108.449C105.159 108.788 104.927 109.147 104.717 109.528C104.506 109.909 104.275 110.269 104.022 110.607C103.938 110.777 103.79 110.925 103.58 111.052C103.369 111.179 103.18 111.242 103.012 111.242ZM50.8473 105.656C50.5947 105.656 50.3631 105.593 50.1526 105.466C49.9421 105.339 49.7948 105.148 49.7105 104.895C49.5421 104.471 49.3948 104.069 49.2685 103.688C49.1422 103.308 48.9948 102.906 48.8264 102.482C48.7422 102.144 48.7843 101.826 48.9527 101.53C49.1211 101.234 49.3737 101.001 49.7105 100.832C50.0474 100.747 50.3631 100.79 50.6578 100.959C50.9526 101.128 51.142 101.382 51.2262 101.721C51.3946 102.059 51.542 102.419 51.6683 102.8C51.7946 103.181 51.8998 103.583 51.9841 104.006C52.1525 104.344 52.1735 104.662 52.0472 104.958C51.9209 105.254 51.6893 105.487 51.3525 105.656C51.2683 105.656 51.1841 105.656 51.0999 105.656C51.0157 105.656 50.9315 105.656 50.8473 105.656ZM106.296 104.514C106.211 104.514 106.127 104.514 106.043 104.514C105.959 104.514 105.875 104.471 105.79 104.387C105.538 104.302 105.327 104.09 105.159 103.752C104.99 103.413 104.948 103.117 105.032 102.863C105.201 102.44 105.327 102.038 105.411 101.657C105.496 101.276 105.622 100.917 105.79 100.578C105.875 100.24 106.064 99.9645 106.359 99.7529C106.653 99.5413 106.969 99.4779 107.306 99.5625C107.643 99.6471 107.895 99.8587 108.064 100.197C108.232 100.536 108.274 100.874 108.19 101.213C108.106 101.636 108.001 102.038 107.874 102.419C107.748 102.8 107.601 103.202 107.432 103.625C107.348 103.879 107.201 104.09 106.99 104.26C106.78 104.429 106.548 104.514 106.296 104.514ZM49.079 98.5469C48.7422 98.5469 48.4475 98.4411 48.1949 98.2295C47.9423 98.0179 47.816 97.7428 47.816 97.4043C47.7318 96.9811 47.6686 96.5579 47.6265 96.1348C47.5844 95.7116 47.5634 95.2461 47.5634 94.7383C47.5634 94.3997 47.6686 94.1035 47.8791 93.8496C48.0896 93.5957 48.3633 93.4688 48.7001 93.4688C49.1211 93.4688 49.4579 93.5745 49.7105 93.7861C49.9632 93.9977 50.0895 94.3151 50.0895 94.7383C50.0895 95.0768 50.1105 95.4577 50.1526 95.8809C50.1947 96.304 50.2158 96.6849 50.2158 97.0234C50.3 97.362 50.2368 97.6794 50.0263 97.9756C49.8158 98.2718 49.5421 98.4199 49.2053 98.4199C49.2053 98.5046 49.1843 98.5469 49.1422 98.5469C49.1001 98.5469 49.079 98.5469 49.079 98.5469ZM107.811 97.2773C107.811 97.2773 107.79 97.2773 107.748 97.2773C107.706 97.2773 107.685 97.2773 107.685 97.2773C107.348 97.1927 107.074 97.0234 106.864 96.7695C106.653 96.5156 106.548 96.2194 106.548 95.8809C106.548 95.4577 106.569 95.0557 106.611 94.6748C106.653 94.2939 106.674 93.8919 106.674 93.4688C106.674 93.0456 106.78 92.7282 106.99 92.5166C107.201 92.305 107.517 92.1992 107.938 92.1992C108.274 92.1992 108.569 92.305 108.822 92.5166C109.074 92.7282 109.201 93.0456 109.201 93.4688C109.201 93.8919 109.18 94.3151 109.137 94.7383C109.095 95.1615 109.074 95.5846 109.074 96.0078C109.074 96.3464 108.948 96.6426 108.695 96.8965C108.443 97.1504 108.148 97.2773 107.811 97.2773ZM49.079 91.0566C48.9948 91.0566 48.9527 91.0566 48.9527 91.0566C48.9527 91.0566 48.9106 91.0566 48.8264 91.0566C48.4896 91.0566 48.2159 90.9085 48.0054 90.6123C47.7949 90.3161 47.7318 89.9987 47.816 89.6602C47.816 89.237 47.8581 88.8138 47.9423 88.3906C48.0265 87.9674 48.1107 87.5443 48.1949 87.1211C48.2791 86.7826 48.4685 86.5075 48.7633 86.2959C49.058 86.0843 49.3737 86.0208 49.7105 86.1055C50.0474 86.1901 50.321 86.3805 50.5315 86.6768C50.742 86.973 50.8052 87.2904 50.721 87.6289C50.6368 87.9674 50.5526 88.3271 50.4684 88.708C50.3842 89.0889 50.3421 89.4909 50.3421 89.9141C50.2579 90.2526 50.0895 90.5277 49.8369 90.7393C49.5842 90.9508 49.3316 91.0566 49.079 91.0566ZM107.432 89.7871C107.18 89.7871 106.927 89.6813 106.674 89.4697C106.422 89.2581 106.296 88.9831 106.296 88.6445C106.211 88.306 106.127 87.9251 106.043 87.502C105.959 87.0788 105.875 86.6979 105.79 86.3594C105.706 86.0208 105.748 85.7034 105.917 85.4072C106.085 85.111 106.338 84.9206 106.674 84.8359C107.011 84.7513 107.327 84.7936 107.622 84.9629C107.916 85.1322 108.106 85.3861 108.19 85.7246C108.274 86.1478 108.359 86.571 108.443 86.9941C108.527 87.4173 108.611 87.8405 108.695 88.2637C108.78 88.6022 108.716 88.9196 108.506 89.2158C108.295 89.512 108.022 89.6602 107.685 89.6602C107.685 89.7448 107.664 89.7871 107.622 89.7871C107.58 89.7871 107.517 89.7871 107.432 89.7871ZM50.8473 83.8203C50.7631 83.8203 50.6789 83.8203 50.5947 83.8203C50.5105 83.8203 50.4263 83.778 50.3421 83.6934C50.0895 83.6087 49.879 83.3971 49.7105 83.0586C49.5421 82.7201 49.5421 82.3815 49.7105 82.043C49.879 81.7044 50.0474 81.3236 50.2158 80.9004C50.3842 80.4772 50.5526 80.0964 50.721 79.7578C50.8894 79.4193 51.142 79.1865 51.4788 79.0596C51.8156 78.9326 52.1525 78.9538 52.4893 79.123C52.7419 79.2923 52.9313 79.5462 53.0577 79.8848C53.184 80.2233 53.1629 80.5618 52.9945 80.9004C52.8261 81.2389 52.6577 81.5775 52.4893 81.916C52.3209 82.2546 52.1946 82.6354 52.1104 83.0586C51.942 83.3125 51.7525 83.5029 51.542 83.6299C51.3315 83.7568 51.0999 83.8203 50.8473 83.8203ZM105.285 82.6777C105.117 82.6777 104.927 82.5931 104.717 82.4238C104.506 82.2546 104.317 82.0853 104.148 81.916C103.98 81.4928 103.812 81.112 103.643 80.7734C103.475 80.4349 103.306 80.0964 103.138 79.7578C102.969 79.4193 102.927 79.0807 103.012 78.7422C103.096 78.4036 103.306 78.1497 103.643 77.9805C103.896 77.8112 104.19 77.7689 104.527 77.8535C104.864 77.9382 105.117 78.1497 105.285 78.4883C105.538 78.9115 105.748 79.3135 105.917 79.6943C106.085 80.0752 106.296 80.4349 106.548 80.7734C106.632 81.112 106.611 81.4505 106.485 81.7891C106.359 82.1276 106.169 82.3815 105.917 82.5508C105.748 82.5508 105.622 82.5719 105.538 82.6143C105.454 82.6566 105.369 82.6777 105.285 82.6777ZM54.3839 77.3457C54.2997 77.3457 54.1944 77.3245 54.0681 77.2822C53.9418 77.2399 53.8365 77.1764 53.7523 77.0918C53.4155 76.8379 53.2261 76.5417 53.184 76.2031C53.1419 75.8646 53.205 75.5684 53.3734 75.3145C53.626 74.9759 53.8997 74.6374 54.1944 74.2988C54.4891 73.9603 54.7628 73.6217 55.0154 73.2832C55.268 73.0293 55.5627 72.8812 55.8995 72.8389C56.2364 72.7966 56.5311 72.9023 56.7837 73.1562C57.0363 73.3255 57.1836 73.6006 57.2257 73.9814C57.2678 74.3623 57.1626 74.6797 56.91 74.9336C56.6574 75.2721 56.4048 75.5895 56.1521 75.8857C55.8995 76.182 55.689 76.4993 55.5206 76.8379C55.3522 77.0072 55.1838 77.1341 55.0154 77.2188C54.847 77.3034 54.6365 77.3457 54.3839 77.3457ZM101.496 76.3301C101.328 76.3301 101.159 76.2878 100.991 76.2031C100.822 76.1185 100.654 75.9915 100.485 75.8223C100.233 75.4837 99.9803 75.1663 99.7276 74.8701C99.475 74.5739 99.2224 74.2988 98.9698 74.0449C98.7172 73.791 98.5909 73.4736 98.5909 73.0928C98.5909 72.7119 98.7172 72.3945 98.9698 72.1406C99.2224 71.9714 99.5382 71.8867 99.9171 71.8867C100.296 71.8867 100.57 72.0137 100.738 72.2676C101.075 72.6061 101.391 72.9235 101.685 73.2197C101.98 73.5159 102.254 73.8333 102.506 74.1719C102.675 74.4258 102.738 74.7432 102.696 75.124C102.654 75.5049 102.506 75.7799 102.254 75.9492C102.17 76.0339 102.043 76.1185 101.875 76.2031C101.706 76.2878 101.58 76.3301 101.496 76.3301ZM59.4361 71.8867C59.2677 71.8867 59.0993 71.8444 58.9309 71.7598C58.7625 71.6751 58.6362 71.5482 58.552 71.3789C58.2993 71.125 58.1941 70.8288 58.2362 70.4902C58.2783 70.1517 58.4257 69.8555 58.6783 69.6016C59.0151 69.3477 59.3519 69.0938 59.6887 68.8398C60.0255 68.5859 60.3623 68.332 60.6992 68.0781C61.036 67.9089 61.3728 67.8454 61.7096 67.8877C62.0464 67.93 62.299 68.0781 62.4674 68.332C62.72 68.6706 62.8043 69.0091 62.72 69.3477C62.6358 69.6862 62.4674 69.9401 62.2148 70.1094C61.878 70.3633 61.5412 70.6172 61.2044 70.8711C60.8676 71.125 60.5728 71.3789 60.3202 71.6328C60.1518 71.7174 60.0045 71.7809 59.8782 71.8232C59.7519 71.8656 59.6045 71.8867 59.4361 71.8867ZM96.1911 71.125C96.0227 71.125 95.8753 71.1038 95.749 71.0615C95.6227 71.0192 95.5174 70.9557 95.4332 70.8711C95.0964 70.6172 94.7596 70.3633 94.4228 70.1094C94.086 69.8555 93.7492 69.6439 93.4124 69.4746C93.1597 69.3053 92.9913 69.0514 92.9071 68.7129C92.8229 68.3743 92.865 68.0358 93.0334 67.6973C93.286 67.4434 93.5808 67.2741 93.9176 67.1895C94.2544 67.1048 94.5491 67.1471 94.8017 67.3164C95.2227 67.5703 95.6017 67.8242 95.9385 68.0781C96.2753 68.332 96.6121 68.5859 96.9489 68.8398C97.2015 69.0091 97.3489 69.2842 97.391 69.665C97.4331 70.0459 97.3699 70.3633 97.2015 70.6172C97.0331 70.7865 96.8647 70.9134 96.6963 70.998C96.5279 71.0827 96.3595 71.125 96.1911 71.125ZM65.7514 67.9512C65.4988 67.9512 65.2672 67.8877 65.0567 67.7607C64.8462 67.6338 64.6988 67.4434 64.6146 67.1895C64.4462 66.8509 64.4252 66.5124 64.5515 66.1738C64.6778 65.8353 64.9093 65.5814 65.2462 65.4121C65.583 65.2428 65.9619 65.0736 66.3829 64.9043C66.8039 64.735 67.1828 64.5658 67.5197 64.3965C67.8565 64.3118 68.1933 64.333 68.5301 64.46C68.8669 64.5869 69.0774 64.8197 69.1616 65.1582C69.33 65.4967 69.33 65.8353 69.1616 66.1738C68.9932 66.5124 68.7406 66.724 68.4038 66.8086C68.067 66.9779 67.7091 67.126 67.3302 67.2529C66.9513 67.3799 66.5934 67.528 66.2566 67.6973C66.1724 67.7819 66.0882 67.8454 66.004 67.8877C65.9198 67.93 65.8356 67.9512 65.7514 67.9512ZM89.7495 67.3164C89.6653 67.3164 89.5811 67.3164 89.4969 67.3164C89.4127 67.3164 89.3285 67.2741 89.2443 67.1895C89.1601 67.1895 89.0338 67.1471 88.8653 67.0625C88.6969 66.9779 88.5706 66.9355 88.4864 66.9355C88.2338 66.8509 87.9812 66.7663 87.7286 66.6816C87.476 66.597 87.2655 66.5124 87.0971 66.4277C86.7602 66.2585 86.5076 66.0257 86.3392 65.7295C86.1708 65.4333 86.1287 65.1159 86.2129 64.7773C86.3813 64.4388 86.6129 64.1849 86.9076 64.0156C87.2023 63.8464 87.5181 63.8464 87.8549 64.0156C88.1075 64.1003 88.3601 64.1849 88.6127 64.2695C88.8653 64.3542 89.118 64.4388 89.3706 64.5234C89.539 64.6081 89.6863 64.6716 89.8126 64.7139C89.9389 64.7562 90.0863 64.8197 90.2547 64.9043C90.5915 64.9889 90.8231 65.2005 90.9494 65.5391C91.0757 65.8776 91.0546 66.2161 90.8862 66.5547C90.802 66.8086 90.6547 66.999 90.4442 67.126C90.2337 67.2529 90.0021 67.3164 89.7495 67.3164ZM72.8245 65.5391C72.4877 65.5391 72.214 65.4544 72.0035 65.2852C71.793 65.1159 71.6457 64.862 71.5614 64.5234C71.4772 64.1849 71.5404 63.8675 71.7509 63.5713C71.9614 63.2751 72.2351 63.0846 72.5719 63C72.9929 63 73.4139 62.9577 73.835 62.873C74.256 62.7884 74.677 62.7038 75.098 62.6191C75.4348 62.6191 75.7506 62.7249 76.0453 62.9365C76.34 63.1481 76.4874 63.4232 76.4874 63.7617C76.4874 64.1003 76.3821 64.4176 76.1716 64.7139C75.9611 65.0101 75.6874 65.1582 75.3506 65.1582C74.9296 65.2428 74.5296 65.3063 74.1507 65.3486C73.7718 65.3909 73.3718 65.4544 72.9508 65.5391C72.9508 65.5391 72.9298 65.5391 72.8877 65.5391C72.8456 65.5391 72.8245 65.5391 72.8245 65.5391ZM82.6764 65.4121C82.5922 65.4121 82.5501 65.4121 82.5501 65.4121C82.5501 65.4121 82.5079 65.3698 82.4238 65.2852C82.0869 65.2852 81.708 65.264 81.287 65.2217C80.866 65.1794 80.4871 65.1159 80.1502 65.0312C79.7292 65.0312 79.4135 64.9043 79.2029 64.6504C78.9924 64.3965 78.8872 64.1003 78.8872 63.7617C78.8872 63.4232 79.0345 63.127 79.3293 62.873C79.624 62.6191 79.9397 62.4922 80.2766 62.4922C80.6976 62.5768 81.1186 62.6403 81.5396 62.6826C81.9606 62.7249 82.3816 62.7461 82.8027 62.7461C83.1395 62.8307 83.4131 63.0212 83.6237 63.3174C83.8342 63.6136 83.9394 63.931 83.9394 64.2695C83.8552 64.6081 83.6868 64.8831 83.4342 65.0947C83.1816 65.3063 82.929 65.4121 82.6764 65.4121ZM78.382 116.447C72.0667 116.447 66.6776 114.204 62.2148 109.719C57.752 105.233 55.5206 99.8164 55.5206 93.4688C55.5206 87.1211 57.752 81.7044 62.2148 77.2188C66.6776 72.7331 72.0667 70.4902 78.382 70.4902C84.6973 70.4902 90.0863 72.7331 94.5491 77.2188C99.0119 81.7044 101.243 87.1211 101.243 93.4688C101.243 99.8164 99.0119 105.233 94.5491 109.719C90.0863 114.204 84.6973 116.447 78.382 116.447ZM78.382 73.0293C72.7403 73.0293 67.9407 75.0182 63.9831 78.9961C60.0255 82.974 58.0467 87.7982 58.0467 93.4688C58.0467 99.1393 60.0255 103.964 63.9831 107.941C67.9407 111.919 72.7403 113.908 78.382 113.908C83.9394 113.908 88.718 111.919 92.7177 107.941C96.7174 103.964 98.7172 99.1393 98.7172 93.4688C98.7172 87.7982 96.7174 82.974 92.7177 78.9961C88.718 75.0182 83.9394 73.0293 78.382 73.0293ZM72.6982 105.021C72.5298 105.021 72.3614 105 72.193 104.958C72.0246 104.916 71.8983 104.81 71.8141 104.641L63.8568 96.6426C63.6042 96.3887 63.4779 96.0924 63.4779 95.7539C63.4779 95.4154 63.6042 95.1191 63.8568 94.8652C64.1094 94.6113 64.4041 94.4844 64.7409 94.4844C65.0778 94.4844 65.3725 94.6113 65.6251 94.8652L72.6982 101.975L90.0021 84.582C90.2547 84.3281 90.5494 84.2012 90.8862 84.2012C91.2231 84.2012 91.5178 84.3281 91.7704 84.582C92.023 84.8359 92.1493 85.1322 92.1493 85.4707C92.1493 85.8092 92.023 86.1055 91.7704 86.3594L73.5823 104.641C73.4139 104.725 73.2666 104.81 73.1403 104.895C73.014 104.979 72.8666 105.021 72.6982 105.021Z" fill="#DC052D"/>
</svg>
