<svg width="128" height="129" viewBox="0 0 128 129" fill="none" xmlns="http://www.w3.org/2000/svg">
<path d="M78.8229 58.4141C78.4861 58.4141 78.1914 58.2871 77.9387 58.0332C77.6861 57.7793 77.5598 57.4831 77.5598 57.1445V7.75977C77.5598 7.42123 77.6861 7.125 77.9387 6.87109C78.1914 6.61719 78.4861 6.49023 78.8229 6.49023C79.2439 6.49023 79.5597 6.61719 79.7702 6.87109C79.9807 7.125 80.0859 7.42123 80.0859 7.75977V57.1445C80.0859 57.4831 79.9807 57.7793 79.7702 58.0332C79.5597 58.2871 79.2439 58.4141 78.8229 58.4141ZM78.8229 119.605C78.4861 119.605 78.1914 119.479 77.9387 119.225C77.6861 118.971 77.5598 118.674 77.5598 118.336V77.8379C77.5598 77.4993 77.6861 77.2031 77.9387 76.9492C78.1914 76.6953 78.4861 76.5684 78.8229 76.5684C79.2439 76.5684 79.5597 76.6953 79.7702 76.9492C79.9807 77.2031 80.0859 77.4993 80.0859 77.8379V118.336C80.0859 118.674 79.9807 118.971 79.7702 119.225C79.5597 119.479 79.2439 119.605 78.8229 119.605ZM56.7194 41.6562C53.3512 41.6562 50.4462 40.4502 48.0043 38.0381C45.5624 35.626 44.3414 32.6849 44.3414 29.2148C44.3414 25.8294 45.5624 22.9095 48.0043 20.4551C50.4462 18.0006 53.3512 16.7734 56.7194 16.7734C60.1717 16.7734 63.0978 18.0006 65.4976 20.4551C67.8974 22.9095 69.0973 25.8294 69.0973 29.2148C69.0973 32.6849 67.8974 35.626 65.4976 38.0381C63.0978 40.4502 60.1717 41.6562 56.7194 41.6562ZM56.7194 19.3125C54.0248 19.3125 51.7092 20.2858 49.7725 22.2324C47.8359 24.179 46.8675 26.5065 46.8675 29.2148C46.8675 31.9232 47.8359 34.2506 49.7725 36.1973C51.7092 38.1439 54.0248 39.1172 56.7194 39.1172C59.4981 39.1172 61.8347 38.1439 63.7293 36.1973C65.6239 34.2506 66.5712 31.9232 66.5712 29.2148C66.5712 26.5065 65.6239 24.179 63.7293 22.2324C61.8347 20.2858 59.4981 19.3125 56.7194 19.3125ZM70.3604 119.605H61.519C61.1822 119.605 60.8875 119.5 60.6348 119.288C60.3822 119.076 60.2559 118.801 60.2559 118.463L56.7194 90.9141L53.3091 118.463C53.3091 118.801 53.1828 119.076 52.9302 119.288C52.6776 119.5 52.3829 119.605 52.046 119.605H43.2046C43.0362 119.605 42.8678 119.563 42.6994 119.479C42.531 119.394 42.3626 119.309 42.1942 119.225C42.11 119.055 42.0468 118.886 42.0047 118.717C41.9626 118.548 41.9416 118.378 41.9416 118.209L44.0888 78.0918L42.6994 61.4609L40.4259 75.4258C40.2575 76.6107 39.7312 77.5628 38.8471 78.2822C37.963 79.0016 36.9736 79.3613 35.8789 79.3613C34.6158 79.3613 33.5212 78.8958 32.595 77.9648C31.6687 77.0339 31.2056 75.9336 31.2056 74.6641C31.2056 74.5794 31.2056 74.4948 31.2056 74.4102C31.2056 74.3255 31.2056 74.2409 31.2056 74.1562L34.7422 46.4805C34.7422 46.4805 34.7422 46.4593 34.7422 46.417C34.7422 46.3747 34.7422 46.3535 34.7422 46.3535C34.9106 44.8301 35.6052 43.5394 36.8262 42.4814C38.0472 41.4235 39.4155 40.8945 40.9311 40.8945H52.046H61.519H72.6339C73.3075 40.8945 74.0022 41.0215 74.7179 41.2754C75.4337 41.5293 76.0863 41.9525 76.6757 42.5449C77.2651 43.0527 77.7493 43.6452 78.1282 44.3223C78.5071 44.9994 78.7387 45.6764 78.8229 46.3535L82.2331 74.0293C82.4015 75.1296 82.2121 76.1452 81.6648 77.0762C81.1174 78.0072 80.3385 78.6419 79.3281 78.9805C79.0755 79.0651 78.8018 79.1497 78.5071 79.2344C78.2124 79.319 77.9387 79.3613 77.6861 79.3613C77.0967 79.3613 76.5494 79.2555 76.0442 79.0439C75.5389 78.8324 75.0758 78.5573 74.6548 78.2188C74.2338 77.8802 73.8969 77.457 73.6443 76.9492C73.3917 76.4414 73.2233 75.9336 73.1391 75.4258L70.7393 61.4609L69.3499 78.0918L71.6234 118.209C71.6234 118.378 71.6024 118.548 71.5603 118.717C71.5182 118.886 71.4129 119.013 71.2445 119.098C71.1603 119.267 71.034 119.394 70.8656 119.479C70.6972 119.563 70.5288 119.605 70.3604 119.605ZM62.5294 117.066H68.971L66.8238 78.0918C66.8238 78.0918 66.8238 78.0706 66.8238 78.0283C66.8238 77.986 66.8238 77.9648 66.8238 77.9648L69.0973 51.1777C69.0973 50.8392 69.2236 50.5641 69.4762 50.3525C69.7289 50.141 70.0236 50.0352 70.3604 50.0352C70.613 49.9505 70.8656 50.014 71.1182 50.2256C71.3708 50.4372 71.5392 50.7122 71.6234 51.0508L75.5389 75.0449C75.6231 75.2988 75.7284 75.5316 75.8547 75.7432C75.981 75.9548 76.1284 76.1452 76.2968 76.3145C76.4652 76.4837 76.6757 76.6107 76.9283 76.6953C77.1809 76.7799 77.4335 76.8223 77.6861 76.8223C77.7703 76.8223 77.8756 76.8011 78.0019 76.7588C78.1282 76.7165 78.2756 76.6953 78.444 76.6953C78.865 76.526 79.2018 76.2298 79.4544 75.8066C79.707 75.3835 79.7912 74.918 79.707 74.4102L76.2968 46.7344C76.2968 46.3112 76.1705 45.888 75.9178 45.4648C75.6652 45.0417 75.3705 44.7031 75.0337 44.4492C74.6969 44.1107 74.318 43.8568 73.8969 43.6875C73.4759 43.5182 73.0549 43.4336 72.6339 43.4336L61.519 43.5605H52.046L40.9311 43.4336C40.0049 43.4336 39.1839 43.751 38.4682 44.3857C37.7524 45.0205 37.3525 45.8034 37.2683 46.7344L33.7317 74.4102C33.7317 74.4948 33.7317 74.5583 33.7317 74.6006C33.7317 74.6429 33.7317 74.6641 33.7317 74.6641C33.7317 75.2565 33.9422 75.7643 34.3632 76.1875C34.7843 76.6107 35.2895 76.8223 35.8789 76.8223C36.3841 76.8223 36.8262 76.653 37.2051 76.3145C37.584 75.9759 37.8156 75.5527 37.8998 75.0449L41.9416 51.0508C41.9416 50.7122 42.0679 50.4372 42.3205 50.2256C42.5731 50.014 42.8678 49.9505 43.2046 50.0352C43.5415 50.0352 43.8151 50.141 44.0256 50.3525C44.2361 50.5641 44.3835 50.8392 44.4677 51.1777L46.6149 77.9648C46.6149 77.9648 46.6149 77.986 46.6149 78.0283C46.6149 78.0706 46.6149 78.0918 46.6149 78.0918L44.4677 117.066H50.9093L55.4563 80.6309C55.5405 80.2923 55.7089 80.0173 55.9615 79.8057C56.2141 79.5941 56.4668 79.4883 56.7194 79.4883C57.0562 79.4883 57.3509 79.5941 57.6035 79.8057C57.8561 80.0173 57.9824 80.2923 57.9824 80.6309L62.5294 117.066ZM26.2797 97.3887C24.343 97.3887 22.4273 96.9232 20.5327 95.9922C18.6382 95.0612 16.7646 93.707 14.9121 91.9297C14.0701 90.9987 13.5017 90.0042 13.207 88.9463C12.9123 87.8883 12.6807 86.8516 12.5123 85.8359C12.2597 84.3125 11.9229 83.1699 11.5019 82.4082C11.0809 81.6465 10.0704 81.2656 8.47055 81.2656C5.10239 81.2656 2.84994 80.2077 1.71318 78.0918C0.576433 75.9759 0.00805664 74.1986 0.00805664 72.7598C0.00805664 72.5905 0.0501586 72.4212 0.134362 72.252C0.218566 72.0827 0.30277 71.9134 0.386974 71.7441C0.555382 71.6595 0.72379 71.596 0.892197 71.5537C1.06061 71.5114 1.22901 71.4902 1.39742 71.4902C4.93398 71.7441 8.4916 71.1094 12.0703 69.5859C15.6489 68.0625 19.2065 65.6081 22.7431 62.2227C25.6902 59.3451 28.1953 56.3617 30.2583 53.2725C32.3213 50.1833 33.858 47.75 34.8685 45.9727C35.0369 45.7188 35.2474 45.5283 35.5 45.4014C35.7526 45.2744 36.0473 45.2533 36.3841 45.3379C36.6367 45.4225 36.8472 45.613 37.0157 45.9092C37.1841 46.2054 37.2262 46.4805 37.142 46.7344L33.7317 74.4102C33.7317 74.4948 33.7317 74.5583 33.7317 74.6006C33.7317 74.6429 33.7317 74.6641 33.7317 74.6641C33.7317 75.2565 33.9422 75.7643 34.3632 76.1875C34.7843 76.6107 35.2895 76.8223 35.8789 76.8223C36.3841 76.8223 36.8262 76.653 37.2051 76.3145C37.584 75.9759 37.8156 75.5527 37.8998 75.0449L41.9416 51.0508C41.9416 50.7122 42.0679 50.4372 42.3205 50.2256C42.5731 50.014 42.8678 49.9082 43.2046 49.9082C43.5415 49.9928 43.8151 50.141 44.0256 50.3525C44.2361 50.5641 44.3414 50.8392 44.3414 51.1777L46.6149 77.9648C46.6149 77.9648 46.6149 77.986 46.6149 78.0283C46.6149 78.0706 46.6149 78.0918 46.6149 78.0918L45.6045 96.1191C45.6045 96.373 45.5413 96.6058 45.415 96.8174C45.2887 97.029 45.0992 97.1771 44.8466 97.2617C44.6782 97.3464 44.4677 97.3675 44.2151 97.3252C43.9625 97.2829 43.752 97.1771 43.5836 97.0078C42.9941 96.5 41.71 95.8229 39.7312 94.9766C37.7524 94.1302 35.3737 94.3841 32.595 95.7383C31.5845 96.2461 30.532 96.6481 29.4373 96.9443C28.3427 97.2406 27.2901 97.3887 26.2797 97.3887ZM2.66048 74.0293C2.82889 74.9603 3.31306 75.9759 4.113 77.0762C4.91293 78.1764 6.36545 78.7266 8.47055 78.7266C11.2493 78.7266 12.9755 79.4671 13.6491 80.9482C14.3227 82.4294 14.7858 83.9316 15.0384 85.4551C15.1227 86.3014 15.27 87.1478 15.4805 87.9941C15.691 88.8405 16.091 89.5176 16.6804 90.0254C19.1223 92.5645 21.5642 94.1091 24.0062 94.6592C26.4481 95.2093 28.9742 94.8073 31.5845 93.4531C34.0264 92.1836 36.2789 91.7393 38.3419 92.1201C40.4049 92.501 42.0258 93.0299 43.2046 93.707L44.0888 78.0918L42.6994 61.4609L40.4259 75.4258C40.2575 76.6107 39.7312 77.5628 38.8471 78.2822C37.963 79.0016 36.9736 79.3613 35.8789 79.3613C34.6158 79.3613 33.5212 78.8958 32.595 77.9648C31.6687 77.0339 31.2056 75.9336 31.2056 74.6641C31.2056 74.5794 31.2056 74.4948 31.2056 74.4102C31.2056 74.3255 31.2056 74.2409 31.2056 74.1562L33.9843 52.3203C32.8055 54.0977 31.4161 56.0231 29.8162 58.0967C28.2164 60.1702 26.406 62.138 24.3851 64C20.9327 67.4701 17.3751 70.0303 13.7122 71.6807C10.0494 73.3311 6.36545 74.1139 2.66048 74.0293ZM15.7963 81.2656C15.4595 81.2656 15.1648 81.1598 14.9121 80.9482C14.6595 80.7367 14.5332 80.4193 14.5332 79.9961C14.5332 79.319 14.8279 78.79 15.4174 78.4092C16.0068 78.0283 16.7225 77.6686 17.5646 77.3301C18.9118 76.7376 20.4275 75.8701 22.1116 74.7275C23.7957 73.585 24.8903 71.6172 25.3955 68.8242C25.4797 68.4857 25.6692 68.2318 25.9639 68.0625C26.2586 67.8932 26.5744 67.8086 26.9112 67.8086C27.248 67.8932 27.5217 68.0837 27.7322 68.3799C27.9427 68.6761 28.0058 68.9935 27.9216 69.332C27.248 72.8021 25.8586 75.2354 23.7535 76.6318C21.6485 78.0283 19.8802 79.0228 18.4487 79.6152C18.1961 79.7845 17.9224 79.9326 17.6277 80.0596C17.333 80.1865 17.1014 80.2923 16.933 80.377C16.933 80.6309 16.8067 80.8424 16.5541 81.0117C16.3015 81.181 16.0489 81.2656 15.7963 81.2656ZM93.9796 35.0547H78.9492C78.5282 35.0547 78.2124 34.9277 78.0019 34.6738C77.7914 34.4199 77.6861 34.1237 77.6861 33.7852V12.0762C77.6861 11.7376 77.7914 11.4414 78.0019 11.1875C78.2124 10.9336 78.5282 10.8066 78.9492 10.8066H102.568C102.989 10.8066 103.305 10.9336 103.516 11.1875C103.726 11.4414 103.831 11.7376 103.831 12.0762V20.8359C103.831 21.1745 103.726 21.4707 103.516 21.7246C103.305 21.9785 102.989 22.1055 102.568 22.1055H95.2426V33.7852C95.2426 34.1237 95.1163 34.4199 94.8637 34.6738C94.6111 34.9277 94.3164 35.0547 93.9796 35.0547ZM80.0859 32.5156H92.7165V20.8359C92.7165 20.4128 92.8428 20.0954 93.0954 19.8838C93.348 19.6722 93.6428 19.5664 93.9796 19.5664H101.305V13.3457H80.0859V32.5156ZM126.314 45.8457H93.9796C93.6428 45.8457 93.348 45.7399 93.0954 45.5283C92.8428 45.3167 92.7165 44.9994 92.7165 44.5762V20.8359C92.7165 20.4128 92.8428 20.0954 93.0954 19.8838C93.348 19.6722 93.6428 19.5664 93.9796 19.5664H126.314C126.566 19.5664 126.798 19.6299 127.009 19.7568C127.219 19.8838 127.366 20.0742 127.451 20.3281C127.535 20.582 127.556 20.8359 127.514 21.0898C127.472 21.3438 127.366 21.5553 127.198 21.7246L114.567 32.7695L127.198 43.6875C127.366 43.8568 127.472 44.0684 127.514 44.3223C127.556 44.5762 127.535 44.8301 127.451 45.084C127.366 45.3379 127.219 45.5283 127.009 45.6553C126.798 45.7822 126.566 45.8457 126.314 45.8457ZM95.2426 43.3066H122.904L111.789 33.6582C111.62 33.5736 111.494 33.4466 111.41 33.2773C111.326 33.1081 111.283 32.8965 111.283 32.6426C111.283 32.4733 111.326 32.304 111.41 32.1348C111.494 31.9655 111.62 31.8385 111.789 31.7539L122.904 21.9785H95.2426V43.3066ZM102.568 22.1055H93.9796C93.727 22.1055 93.4954 22.0208 93.2849 21.8516C93.0744 21.6823 92.927 21.4707 92.8428 21.2168C92.7586 21.0475 92.7376 20.8359 92.7797 20.582C92.8218 20.3281 92.927 20.1165 93.0954 19.9473L101.684 11.1875C101.853 11.0182 102.063 10.9124 102.316 10.8701C102.568 10.8278 102.821 10.849 103.074 10.9336C103.326 11.0182 103.516 11.1663 103.642 11.3779C103.768 11.5895 103.831 11.8223 103.831 12.0762V20.8359C103.831 21.1745 103.705 21.4707 103.453 21.7246C103.2 21.9785 102.905 22.1055 102.568 22.1055ZM97.0109 19.5664H101.305V15.123L97.0109 19.5664ZM85.3908 128.238H27.1638C26.827 128.238 26.5323 128.111 26.2797 127.857C26.0271 127.604 25.9007 127.307 25.9007 126.969V118.336C25.9007 117.997 26.0271 117.701 26.2797 117.447C26.5323 117.193 26.827 117.066 27.1638 117.066H85.3908C85.7276 117.066 86.0223 117.193 86.2749 117.447C86.5275 117.701 86.6538 117.997 86.6538 118.336V126.969C86.6538 127.307 86.5275 127.604 86.2749 127.857C86.0223 128.111 85.7276 128.238 85.3908 128.238ZM28.4269 125.699H84.1277V119.605H28.4269V125.699ZM10.3651 69.5859C10.1967 69.5859 10.0283 69.5436 9.85991 69.459C9.6915 69.3743 9.52309 69.2474 9.35469 69.0781C9.10207 68.7396 8.84946 68.401 8.59685 68.0625C8.34424 67.724 8.09163 67.3431 7.83902 66.9199C7.5864 66.666 7.5022 66.3698 7.5864 66.0312C7.67061 65.6927 7.83902 65.3965 8.09163 65.1426C8.34424 64.9733 8.66 64.9098 9.03892 64.9521C9.41784 64.9945 9.6915 65.1849 9.85991 65.5234C10.1125 65.862 10.3651 66.1794 10.6177 66.4756C10.8704 66.7718 11.123 67.0892 11.3756 67.4277C11.6282 67.6816 11.7334 67.999 11.6913 68.3799C11.6492 68.7607 11.5019 69.0358 11.2493 69.2051C11.0809 69.3743 10.9335 69.4801 10.8072 69.5225C10.6809 69.5648 10.5335 69.5859 10.3651 69.5859ZM6.19704 63.2383C5.94443 63.2383 5.71287 63.1748 5.50236 63.0479C5.29185 62.9209 5.14449 62.7728 5.06029 62.6035C4.89188 62.1803 4.70242 61.7783 4.49191 61.3975C4.2814 61.0166 4.09194 60.6146 3.92354 60.1914C3.75513 59.8529 3.73408 59.5355 3.86038 59.2393C3.98669 58.943 4.21825 58.7103 4.55507 58.541C4.80768 58.3717 5.10239 58.3506 5.43921 58.4775C5.77602 58.6045 6.02863 58.8372 6.19704 59.1758C6.36545 59.5143 6.53386 59.874 6.70226 60.2549C6.87067 60.6357 7.03908 60.9954 7.20749 61.334C7.3759 61.6725 7.418 62.0111 7.33379 62.3496C7.24959 62.6881 7.03908 62.9421 6.70226 63.1113C6.61806 63.1113 6.53386 63.1325 6.44965 63.1748C6.36545 63.2171 6.28124 63.2383 6.19704 63.2383ZM3.1657 56.2559C2.91309 56.2559 2.68153 56.1712 2.47102 56.002C2.26051 55.8327 2.11315 55.6211 2.02895 55.3672C1.86054 54.944 1.71318 54.5208 1.58688 54.0977C1.46057 53.6745 1.35532 53.2513 1.27111 52.8281C1.18691 52.4896 1.22901 52.1722 1.39742 51.876C1.56583 51.5798 1.81844 51.3893 2.15526 51.3047C2.49207 51.2201 2.82889 51.2624 3.1657 51.4316C3.50252 51.6009 3.71303 51.8548 3.79723 52.1934C3.88143 52.5319 3.96564 52.9128 4.04984 53.3359C4.13405 53.7591 4.26035 54.14 4.42876 54.4785C4.51296 54.8171 4.47086 55.1556 4.30245 55.4941C4.13405 55.8327 3.92354 56.0443 3.67092 56.1289C3.58672 56.1289 3.50252 56.1501 3.41831 56.1924C3.33411 56.2347 3.24991 56.2559 3.1657 56.2559ZM1.52373 48.7656C1.27111 48.7656 1.0185 48.6598 0.765891 48.4482C0.51328 48.2367 0.344872 47.9616 0.260668 47.623C0.260668 47.1999 0.239617 46.7767 0.197515 46.3535C0.155413 45.9303 0.134362 45.5072 0.134362 45.084C0.0501586 44.7454 0.134362 44.4281 0.386974 44.1318C0.639586 43.8356 0.934299 43.6875 1.27111 43.6875C1.60793 43.6875 1.90264 43.7933 2.15526 44.0049C2.40787 44.2165 2.57627 44.5339 2.66048 44.957C2.66048 45.2956 2.68153 45.6764 2.72363 46.0996C2.76573 46.5228 2.78678 46.946 2.78678 47.3691C2.87099 47.7077 2.80784 48.0039 2.59733 48.2578C2.38682 48.5117 2.11315 48.681 1.77634 48.7656C1.69213 48.7656 1.65003 48.7656 1.65003 48.7656C1.65003 48.7656 1.60793 48.7656 1.52373 48.7656ZM1.39742 41.1484C1.31322 41.1484 1.27111 41.1484 1.27111 41.1484C0.934299 41.1484 0.639586 41.0215 0.386974 40.7676C0.134362 40.5137 0.0501586 40.2174 0.134362 39.8789C0.134362 39.4557 0.155413 39.0114 0.197515 38.5459C0.239617 38.0804 0.260668 37.6361 0.260668 37.2129C0.344872 36.8744 0.51328 36.5993 0.765891 36.3877C1.0185 36.1761 1.35532 36.0703 1.77634 36.0703C2.11315 36.1549 2.38682 36.3242 2.59733 36.5781C2.80784 36.832 2.87099 37.1706 2.78678 37.5938C2.78678 37.9323 2.76573 38.3131 2.72363 38.7363C2.68153 39.1595 2.66048 39.5827 2.66048 40.0059C2.57627 40.3444 2.42892 40.6195 2.21841 40.8311C2.0079 41.0426 1.73424 41.1484 1.39742 41.1484ZM2.53417 33.6582C2.44997 33.6582 2.38682 33.6582 2.34471 33.6582C2.30261 33.6582 2.23946 33.6582 2.15526 33.6582C1.81844 33.5736 1.56583 33.3831 1.39742 33.0869C1.22901 32.7907 1.18691 32.4733 1.27111 32.1348C1.35532 31.7116 1.46057 31.2884 1.58688 30.8652C1.71318 30.4421 1.86054 30.0189 2.02895 29.5957C2.11315 29.2572 2.30261 29.0033 2.59733 28.834C2.89204 28.6647 3.2078 28.6224 3.54462 28.707C3.88143 28.8763 4.13405 29.109 4.30245 29.4053C4.47086 29.7015 4.51296 30.0189 4.42876 30.3574C4.26035 30.7806 4.13405 31.1826 4.04984 31.5635C3.96564 31.9443 3.88143 32.3464 3.79723 32.7695C3.71303 33.0234 3.54462 33.235 3.29201 33.4043C3.0394 33.5736 2.78678 33.6582 2.53417 33.6582ZM5.06029 26.5488C4.97608 26.5488 4.87083 26.5277 4.74452 26.4854C4.61822 26.443 4.51296 26.4219 4.42876 26.4219C4.17615 26.2526 3.98669 25.9987 3.86038 25.6602C3.73408 25.3216 3.71303 24.9831 3.79723 24.6445C3.96564 24.306 4.1551 23.9463 4.36561 23.5654C4.57612 23.1846 4.80768 22.7826 5.06029 22.3594C5.2287 22.0208 5.46026 21.8092 5.75497 21.7246C6.04968 21.64 6.36545 21.6823 6.70226 21.8516C7.03908 22.0208 7.24959 22.2747 7.33379 22.6133C7.418 22.9518 7.3759 23.2904 7.20749 23.6289C7.03908 23.9674 6.87067 24.3271 6.70226 24.708C6.53386 25.0889 6.36545 25.4486 6.19704 25.7871C6.02863 26.041 5.83917 26.2314 5.62866 26.3584C5.41816 26.4854 5.2287 26.5488 5.06029 26.5488ZM75.6652 20.0742C75.4968 20.0742 75.3284 20.0319 75.16 19.9473C74.9916 19.8626 74.8232 19.6934 74.6548 19.4395C74.4022 19.1855 74.1496 18.8893 73.8969 18.5508C73.6443 18.2122 73.3917 17.8737 73.1391 17.5352C72.9707 17.2812 72.9076 16.985 72.9497 16.6465C72.9918 16.3079 73.1391 16.0117 73.3917 15.7578C73.6443 15.5039 73.9391 15.3981 74.2759 15.4404C74.6127 15.4827 74.9074 15.6732 75.16 16.0117C75.4126 16.3503 75.6652 16.6888 75.9178 17.0273C76.1705 17.3659 76.4231 17.7044 76.6757 18.043C76.9283 18.2969 77.0125 18.6143 76.9283 18.9951C76.8441 19.376 76.6757 19.651 76.4231 19.8203C76.3389 19.9049 76.2336 19.9684 76.1073 20.0107C75.981 20.0531 75.8336 20.0742 75.6652 20.0742ZM8.84946 19.9473C8.68106 19.9473 8.5337 19.9261 8.40739 19.8838C8.28109 19.8415 8.17583 19.778 8.09163 19.6934C7.75481 19.5241 7.56535 19.249 7.52325 18.8682C7.48115 18.4873 7.5443 18.1699 7.71271 17.916C7.96532 17.5775 8.23899 17.2389 8.5337 16.9004C8.82841 16.5619 9.10207 16.2233 9.35469 15.8848C9.52309 15.5462 9.79676 15.3558 10.1757 15.3135C10.5546 15.2712 10.8704 15.377 11.123 15.6309C11.3756 15.8848 11.5229 16.181 11.565 16.5195C11.6071 16.8581 11.5019 17.1543 11.2493 17.4082C10.9967 17.7467 10.7651 18.0641 10.5546 18.3604C10.3441 18.6566 10.1125 18.974 9.85991 19.3125C9.6915 19.4818 9.52309 19.6299 9.35469 19.7568C9.18628 19.8838 9.01787 19.9473 8.84946 19.9473ZM70.7393 14.2344C70.5709 14.2344 70.4235 14.2132 70.2972 14.1709C70.1709 14.1286 70.0236 14.0228 69.8552 13.8535C69.6026 13.5996 69.3289 13.3245 69.0342 13.0283C68.7395 12.7321 68.4237 12.457 68.0869 12.2031C67.8343 11.9492 67.6869 11.653 67.6448 11.3145C67.6027 10.9759 67.708 10.6797 67.9606 10.4258C68.2132 10.1719 68.5079 10.0238 68.8447 9.98145C69.1815 9.93913 69.4762 10.0449 69.7289 10.2988C70.0657 10.5527 70.4025 10.8278 70.7393 11.124C71.0761 11.4202 71.3708 11.7376 71.6234 12.0762C71.8761 12.3301 72.0024 12.6263 72.0024 12.9648C72.0024 13.3034 71.9182 13.5996 71.7498 13.8535C71.5813 13.9381 71.4129 14.0228 71.2445 14.1074C71.0761 14.1921 70.9077 14.2344 70.7393 14.2344ZM13.7754 14.1074C13.607 14.1074 13.4386 14.0863 13.2702 14.0439C13.1018 14.0016 12.9334 13.8958 12.7649 13.7266C12.5965 13.4727 12.5123 13.1764 12.5123 12.8379C12.5123 12.4994 12.6386 12.2031 12.8912 11.9492C13.1439 11.6107 13.4386 11.3145 13.7754 11.0605C14.1122 10.8066 14.449 10.5104 14.7858 10.1719C15.0384 10.0026 15.3332 9.91797 15.67 9.91797C16.0068 9.91797 16.3015 10.0449 16.5541 10.2988C16.8067 10.5527 16.912 10.8701 16.8699 11.251C16.8278 11.6318 16.6804 11.9069 16.4278 12.0762C16.091 12.3301 15.7752 12.6051 15.4805 12.9014C15.1858 13.1976 14.9121 13.4727 14.6595 13.7266C14.4911 13.8958 14.3227 14.0016 14.1543 14.0439C13.9859 14.0863 13.8596 14.1074 13.7754 14.1074ZM64.9292 9.41016C64.7608 9.41016 64.6135 9.41016 64.4872 9.41016C64.3609 9.41016 64.2556 9.36784 64.1714 9.2832C63.8346 9.0293 63.4978 8.79655 63.161 8.58496C62.8241 8.37337 62.4873 8.18295 62.1505 8.01367C61.8137 7.8444 61.6032 7.56934 61.519 7.18848C61.4348 6.80762 61.4769 6.49023 61.6453 6.23633C61.8137 5.89779 62.0663 5.6862 62.4031 5.60156C62.7399 5.51693 63.0768 5.55924 63.4136 5.72852C63.7504 5.98242 64.1083 6.23633 64.4872 6.49023C64.8661 6.74414 65.224 6.95573 65.5608 7.125C65.8134 7.37891 65.9818 7.67513 66.066 8.01367C66.1502 8.35221 66.1081 8.64844 65.9397 8.90234C65.7713 9.07162 65.6029 9.19857 65.4345 9.2832C65.2661 9.36784 65.0976 9.41016 64.9292 9.41016ZM19.5855 9.41016C19.417 9.41016 19.2276 9.36784 19.0171 9.2832C18.8066 9.19857 18.6592 9.0293 18.575 8.77539C18.4066 8.52148 18.3434 8.22526 18.3856 7.88672C18.4277 7.54818 18.6171 7.29427 18.9539 7.125C19.2907 6.87109 19.6486 6.61719 20.0275 6.36328C20.4064 6.10938 20.7643 5.89779 21.1011 5.72852C21.4379 5.55924 21.7748 5.51693 22.1116 5.60156C22.4484 5.6862 22.701 5.85547 22.8694 6.10938C23.0378 6.44791 23.0799 6.78646 22.9957 7.125C22.9115 7.46354 22.701 7.71745 22.3642 7.88672C22.0274 8.05599 21.6906 8.24642 21.3537 8.45801C21.0169 8.66959 20.6801 8.90234 20.3433 9.15625C20.1749 9.24088 20.0486 9.30436 19.9644 9.34668C19.8802 9.389 19.7539 9.41016 19.5855 9.41016ZM58.235 5.85547C58.1508 5.85547 58.0666 5.83431 57.9824 5.79199C57.8982 5.74967 57.814 5.72852 57.7298 5.72852C57.393 5.55924 57.0351 5.41113 56.6562 5.28418C56.2773 5.15723 55.8773 5.00912 55.4563 4.83984C55.1195 4.75521 54.8879 4.54362 54.7616 4.20508C54.6353 3.86654 54.6143 3.52799 54.6985 3.18945C54.7827 2.85091 54.9932 2.61816 55.33 2.49121C55.6668 2.36426 56.0036 2.3431 56.3404 2.42773C56.7615 2.59701 57.1614 2.76627 57.5404 2.93555C57.9193 3.10482 58.3192 3.27409 58.7403 3.44336C59.0771 3.52799 59.3086 3.73959 59.4349 4.07812C59.5612 4.41666 59.5402 4.75521 59.3718 5.09375C59.2876 5.34766 59.1402 5.53809 58.9297 5.66504C58.7192 5.79199 58.4876 5.85547 58.235 5.85547ZM26.2797 5.72852C26.0271 5.72852 25.7955 5.66504 25.585 5.53809C25.3745 5.41113 25.2271 5.2207 25.1429 4.9668C24.9745 4.62826 24.9535 4.31087 25.0798 4.01465C25.2061 3.71842 25.4376 3.48568 25.7744 3.31641C26.1955 3.14713 26.6165 2.97787 27.0375 2.80859C27.4585 2.63932 27.8374 2.51237 28.1743 2.42773C28.5111 2.25846 28.8479 2.25846 29.1847 2.42773C29.5215 2.59701 29.732 2.85091 29.8162 3.18945C29.9846 3.52799 29.9846 3.84538 29.8162 4.1416C29.6478 4.43783 29.3952 4.67057 29.0584 4.83984C28.7216 4.92448 28.3427 5.05143 27.9216 5.2207C27.5006 5.38998 27.1217 5.55924 26.7849 5.72852C26.7007 5.72852 26.6165 5.72852 26.5323 5.72852C26.4481 5.72852 26.3639 5.72852 26.2797 5.72852ZM51.0356 3.57031C50.9514 3.57031 50.8882 3.57031 50.8461 3.57031C50.804 3.57031 50.783 3.52799 50.783 3.44336C50.362 3.35873 49.962 3.29525 49.5831 3.25293C49.2042 3.21061 48.8042 3.14713 48.3832 3.0625C48.0464 2.97787 47.7727 2.78744 47.5622 2.49121C47.3517 2.19498 47.2464 1.8776 47.2464 1.53906C47.3306 1.20052 47.5201 0.925453 47.8148 0.713867C48.1095 0.502281 48.4253 0.438805 48.7621 0.523438C49.1831 0.60807 49.6041 0.692711 50.0252 0.777344C50.4462 0.861977 50.8672 0.946617 51.2882 1.03125C51.625 1.11588 51.8776 1.30631 52.046 1.60254C52.2145 1.89877 52.2987 2.21615 52.2987 2.55469C52.2145 2.80859 52.046 3.04134 51.7934 3.25293C51.5408 3.46452 51.2882 3.57031 51.0356 3.57031ZM33.4791 3.44336C33.2265 3.44336 32.9739 3.35873 32.7213 3.18945C32.4686 3.02018 32.3002 2.80859 32.216 2.55469C32.1318 2.21615 32.195 1.89877 32.4055 1.60254C32.616 1.30631 32.8897 1.11588 33.2265 1.03125C33.6475 0.946617 34.0685 0.861977 34.4895 0.777344C34.9106 0.692711 35.3316 0.60807 35.7526 0.523438C36.0894 0.438805 36.4052 0.502281 36.6999 0.713867C36.9946 0.925453 37.142 1.20052 37.142 1.53906C37.2262 1.8776 37.163 2.19498 36.9525 2.49121C36.742 2.78744 36.4683 2.97787 36.1315 3.0625C35.7105 3.14713 35.3105 3.21061 34.9316 3.25293C34.5527 3.29525 34.1527 3.35873 33.7317 3.44336C33.7317 3.44336 33.7107 3.44336 33.6686 3.44336C33.6264 3.44336 33.5633 3.44336 33.4791 3.44336ZM43.5836 2.55469C43.4994 2.55469 43.4573 2.55469 43.4573 2.55469C43.0362 2.55469 42.6363 2.55469 42.2573 2.55469C41.8784 2.55469 41.4785 2.55469 41.0574 2.55469C40.7206 2.55469 40.4259 2.44889 40.1733 2.2373C39.9207 2.02572 39.7944 1.70834 39.7944 1.28516C39.7102 0.946617 39.7944 0.650391 40.047 0.396484C40.2996 0.142578 40.5943 0.015625 40.9311 0.015625C41.4364 0.015625 41.8995 0.015625 42.3205 0.015625C42.7415 0.015625 43.1625 0.015625 43.5836 0.015625C43.9204 0.015625 44.2151 0.142578 44.4677 0.396484C44.7203 0.650391 44.8466 0.98893 44.8466 1.41211C44.7624 1.66602 44.6151 1.91992 44.4045 2.17383C44.194 2.42773 43.9204 2.55469 43.5836 2.55469ZM99.0318 128.238H12.6386C12.3018 128.238 12.0071 128.111 11.7545 127.857C11.5019 127.604 11.3756 127.307 11.3756 126.969C11.3756 126.63 11.5019 126.334 11.7545 126.08C12.0071 125.826 12.3018 125.699 12.6386 125.699H99.0318C99.3686 125.699 99.6633 125.826 99.9159 126.08C100.169 126.334 100.295 126.63 100.295 126.969C100.295 127.307 100.169 127.604 99.9159 127.857C99.6633 128.111 99.3686 128.238 99.0318 128.238ZM110.399 128.238H105.852C105.516 128.238 105.221 128.111 104.968 127.857C104.716 127.604 104.589 127.307 104.589 126.969C104.589 126.63 104.716 126.334 104.968 126.08C105.221 125.826 105.516 125.699 105.852 125.699H110.399C110.736 125.699 111.031 125.826 111.283 126.08C111.536 126.334 111.662 126.63 111.662 126.969C111.662 127.307 111.536 127.604 111.283 127.857C111.031 128.111 110.736 128.238 110.399 128.238Z" fill="#DC052D"/>
</svg>
