<svg width="90" height="91" viewBox="0 0 90 91" fill="none" xmlns="http://www.w3.org/2000/svg">
<path d="M45.0313 8.01562C37.6917 8.01562 30.517 10.1921 24.4144 14.2697C18.3118 18.3473 13.5554 24.143 10.7467 30.9239C7.93795 37.7047 7.20306 45.1662 8.63494 52.3647C10.0668 59.5632 13.6011 66.1754 18.791 71.3653C23.9808 76.5551 30.5931 80.0895 37.7916 81.5213C44.9901 82.9532 52.4516 82.2183 59.2324 79.4096C66.0133 76.6009 71.809 71.8445 75.8866 65.7419C79.9642 59.6393 82.1406 52.4645 82.1406 45.125C82.1324 35.2855 78.22 25.8514 71.2624 18.8938C64.3049 11.9363 54.8707 8.0239 45.0313 8.01562ZM45.0313 79.8906C38.1553 79.8906 31.4337 77.8517 25.7165 74.0316C19.9993 70.2115 15.5433 64.7818 12.912 58.4292C10.2807 52.0766 9.59221 45.0864 10.9337 38.3426C12.2751 31.5987 15.5862 25.4041 20.4483 20.542C25.3103 15.6799 31.505 12.3688 38.2488 11.0274C44.9927 9.68595 51.9829 10.3744 58.3355 13.0058C64.6881 15.6371 70.1177 20.0931 73.9378 25.8103C77.7579 31.5274 79.7969 38.249 79.7969 45.125C79.7886 54.3429 76.1232 63.1808 69.6051 69.6989C63.0871 76.2169 54.2491 79.8823 45.0313 79.8906Z" fill="#DC052D"/>
<path d="M45.4374 18.4375C42.2579 18.3088 39.098 18.9914 36.2551 20.4211C33.4123 21.8507 30.98 23.9803 29.1874 26.6094C27.1718 30.1719 25.578 34.2657 28.578 37.4532C31.5312 40.25 36.3905 39.9375 38.0937 34.5157C38.6457 32.6243 39.5937 30.8719 40.8749 29.375C42.578 27.4063 47.9374 27.2969 49.8905 29.375C50.4206 29.8655 50.8381 30.465 51.1144 31.1322C51.3906 31.7995 51.5191 32.5187 51.4909 33.2403C51.4627 33.9619 51.2785 34.6688 50.951 35.3125C50.6234 35.9561 50.1604 36.5212 49.5937 36.9688C46.4687 40.0938 41.5624 43.375 39.953 47.5938C38.3437 51.8125 38.3905 58.7657 44.3124 58.7032C45.578 58.7739 46.8221 58.3536 47.7856 57.5299C48.749 56.7062 49.3575 55.5425 49.4843 54.2813C50.0312 52.0625 49.9687 51.2969 51.328 49.7032C53.453 47.4219 57.9374 43.7032 58.8749 42.625C69.3593 32.0313 59.1249 17.7032 45.4374 18.4375ZM59.7343 37.5C57.5312 41.6719 53.3749 43.9219 49.4999 48.125C47.8437 50.0938 47.7499 51.25 47.1249 53.8125C47.1158 54.1727 47.0327 54.5272 46.8807 54.8538C46.7287 55.1805 46.5111 55.4724 46.2414 55.7113C45.9717 55.9502 45.6557 56.1311 45.3131 56.2426C44.9705 56.3541 44.6086 56.3938 44.2499 56.3594C38.8437 56.0313 41.7343 47.4532 44.2499 45.1875C46.578 42.4532 51.3437 39.3907 53.078 36.2344C55.8749 31.1094 51.203 25.1563 45.5155 25.4844C39.7187 25.4844 37.703 28.6094 35.9374 33.7344C34.8749 37.3125 32.0937 37.3438 30.3437 35.7344C28.2655 33.4219 29.828 30.3907 31.2499 27.7813C35.4687 20.7657 46.5155 18.9063 53.6562 22.3907C59.3437 24.875 62.578 31.9219 59.7343 37.5ZM44.6249 59.4375C36.2655 59.5469 36.2499 71.9375 44.6249 71.9375C52.9999 71.9375 52.8749 59.5625 44.6249 59.4375ZM44.6249 69.5469C39.3593 69.6719 39.3593 61.7344 44.6249 61.7344C49.8905 61.7344 49.7343 69.6094 44.6249 69.5469Z" fill="#DC052D"/>
<path d="M45.0313 0.203125C36.1466 0.203125 27.4614 2.83775 20.074 7.77383C12.6866 12.7099 6.9289 19.7257 3.52887 27.9341C0.128839 36.1425 -0.760764 45.1748 0.972556 53.8888C2.70588 62.6028 6.98427 70.6071 13.2667 76.8896C19.5491 83.172 27.5535 87.4504 36.2674 89.1837C44.9814 90.917 54.0137 90.0274 62.2221 86.6274C70.4305 83.2274 77.4464 77.4696 82.3824 70.0823C87.3185 62.6949 89.9531 54.0097 89.9531 45.125C89.9366 33.2161 85.1985 21.7996 76.7776 13.3787C68.3567 4.9578 56.9402 0.219659 45.0313 0.203125ZM45.0313 87.7031C36.6101 87.7031 28.3781 85.206 21.3761 80.5274C14.3742 75.8489 8.91685 69.1991 5.69421 61.4189C2.47157 53.6388 1.62839 45.0778 3.27127 36.8184C4.91416 28.5591 8.96933 20.9724 14.924 15.0177C20.8786 9.06306 28.4653 5.00789 36.7247 3.365C44.984 1.72212 53.5451 2.5653 61.3252 5.78794C69.1053 9.01058 75.7551 14.4679 80.4337 21.4699C85.1122 28.4718 87.6094 36.7038 87.6094 45.125C87.597 56.4136 83.1071 67.2363 75.1248 75.2186C67.1426 83.2008 56.3199 87.6907 45.0313 87.7031Z" fill="#DC052D"/>
</svg>
